Pretendard-Split-Symbols-Base.glyphspackage
{
color = 11;
glyphname = logo40wonders.small;
layers = (
{
layerId = "B1F27B51-9973-4381-9301-4FE46FE1CA59";
shapes = (
{
closed = 1;
nodes = (
(653,723,ls),
(673,735,o),
(679,760,o),
(668,779,cs),
(657,799,o),
(632,806,o),
(612,794,cs),
(462,708,ls),
(442,696,o),
(435,671,o),
(447,652,cs),
(458,632,o),
(483,625,o),
(503,637,cs)
);
},
{
closed = 1;
nodes = (
(312,13,ls),
(335,13,o),
(353,31,o),
(353,53,cs),
(353,76,o),
(335,94,o),
(312,94,cs),
(138,94,ls),
(116,94,o),
(98,76,o),
(98,53,cs),
(98,31,o),
(116,13,o),
(138,13,cs)
);
},
{
closed = 1;
nodes = (
(190,129,o),
(215,136,o),
(227,155,cs),
(238,175,o),
(231,200,o),
(212,211,cs),
(61,298,ls),
(42,309,o),
(17,303,o),
(5,283,cs),
(-6,264,o),
(1,238,o),
(20,227,cs),
(171,140,ls)
);
},
{
closed = 1;
nodes = (
(498,-28,ls),
(518,-16,o),
(525,9,o),
(513,28,cs),
(502,48,o),
(477,55,o),
(457,43,cs),
(307,-43,ls),
(287,-55,o),
(281,-80,o),
(292,-99,cs),
(303,-119,o),
(328,-126,o),
(348,-114,cs)
);
},
{
closed = 1;
nodes = (
(188,318,o),
(195,343,o),
(183,363,cs),
(97,513,ls),
(85,533,o),
(60,539,o),
(41,528,cs),
(21,517,o),
(14,492,o),
(26,472,cs),
(112,322,ls),
(124,302,o),
(149,295,o),
(168,307,cs)
);
},
{
closed = 1;
nodes = (
(557,-146,o),
(582,-139,o),
(593,-120,cs),
(680,31,ls),
(691,50,o),
(684,75,o),
(665,87,cs),
(645,98,o),
(620,91,o),
(609,72,cs),
(522,-79,ls),
(511,-98,o),
(517,-123,o),
(537,-134,cs)
);
},
{
closed = 1;
nodes = (
(216,467,o),
(234,485,o),
(234,508,cs),
(234,681,ls),
(234,704,o),
(216,722,o),
(193,722,cs),
(171,722,o),
(152,704,o),
(152,681,cs),
(152,508,ls),
(152,485,o),
(171,467,o),
(193,467,cs)
);
},
{
closed = 1;
nodes = (
(789,-42,o),
(807,-24,o),
(807,-1,cs),
(807,172,ls),
(807,195,o),
(789,213,o),
(767,213,cs),
(744,213,o),
(726,195,o),
(726,172,cs),
(726,-1,ls),
(726,-24,o),
(744,-42,o),
(767,-42,cs)
);
},
{
closed = 1;
nodes = (
(315,582,o),
(340,589,o),
(351,608,cs),
(438,759,ls),
(449,778,o),
(443,803,o),
(423,814,cs),
(403,826,o),
(378,819,o),
(367,800,cs),
(280,649,ls),
(269,630,o),
(276,605,o),
(295,593,cs)
);
},
{
closed = 1;
nodes = (
(939,163,o),
(946,188,o),
(934,208,cs),
(848,358,ls),
(836,378,o),
(811,385,o),
(792,373,cs),
(772,362,o),
(765,337,o),
(777,317,cs),
(863,167,ls),
(875,147,o),
(900,141,o),
(919,152,cs)
);
},
{
closed = 1;
nodes = (
(918,371,o),
(943,377,o),
(954,397,cs),
(966,417,o),
(959,442,o),
(940,453,cs),
(789,540,ls),
(770,551,o),
(745,544,o),
(733,525,cs),
(722,505,o),
(729,480,o),
(748,469,cs),
(899,382,ls)
);
},
{
closed = 1;
nodes = (
(821,586,ls),
(844,586,o),
(862,604,o),
(862,627,cs),
(862,649,o),
(844,668,o),
(821,668,cs),
(648,668,ls),
(625,668,o),
(607,649,o),
(607,627,cs),
(607,604,o),
(625,586,o),
(648,586,cs)
);
}
);
width = 960;
},
{
layerId = "CD0E3B44-F66A-4791-B84C-A1128DC61275";
shapes = (
{
closed = 1;
nodes = (
(653,723,ls),
(673,735,o),
(679,760,o),
(668,779,cs),
(657,799,o),
(632,806,o),
(612,794,cs),
(462,708,ls),
(442,696,o),
(435,671,o),
(447,652,cs),
(458,632,o),
(483,625,o),
(503,637,cs)
);
},
{
closed = 1;
nodes = (
(312,13,ls),
(335,13,o),
(353,31,o),
(353,53,cs),
(353,76,o),
(335,94,o),
(312,94,cs),
(138,94,ls),
(116,94,o),
(98,76,o),
(98,53,cs),
(98,31,o),
(116,13,o),
(138,13,cs)
);
},
{
closed = 1;
nodes = (
(190,129,o),
(215,136,o),
(227,155,cs),
(238,175,o),
(231,200,o),
(212,211,cs),
(61,298,ls),
(42,309,o),
(17,303,o),
(5,283,cs),
(-6,264,o),
(1,238,o),
(20,227,cs),
(171,140,ls)
);
},
{
closed = 1;
nodes = (
(498,-28,ls),
(518,-16,o),
(525,9,o),
(513,28,cs),
(502,48,o),
(477,55,o),
(457,43,cs),
(307,-43,ls),
(287,-55,o),
(281,-80,o),
(292,-99,cs),
(303,-119,o),
(328,-126,o),
(348,-114,cs)
);
},
{
closed = 1;
nodes = (
(188,318,o),
(195,343,o),
(183,363,cs),
(97,513,ls),
(85,533,o),
(60,539,o),
(41,528,cs),
(21,517,o),
(14,492,o),
(26,472,cs),
(112,322,ls),
(124,302,o),
(149,295,o),
(168,307,cs)
);
},
{
closed = 1;
nodes = (
(557,-146,o),
(582,-139,o),
(593,-120,cs),
(680,31,ls),
(691,50,o),
(684,75,o),
(665,87,cs),
(645,98,o),
(620,91,o),
(609,72,cs),
(522,-79,ls),
(511,-98,o),
(517,-123,o),
(537,-134,cs)
);
},
{
closed = 1;
nodes = (
(216,467,o),
(234,485,o),
(234,508,cs),
(234,681,ls),
(234,704,o),
(216,722,o),
(193,722,cs),
(171,722,o),
(152,704,o),
(152,681,cs),
(152,508,ls),
(152,485,o),
(171,467,o),
(193,467,cs)
);
},
{
closed = 1;
nodes = (
(789,-42,o),
(807,-24,o),
(807,-1,cs),
(807,172,ls),
(807,195,o),
(789,213,o),
(767,213,cs),
(744,213,o),
(726,195,o),
(726,172,cs),
(726,-1,ls),
(726,-24,o),
(744,-42,o),
(767,-42,cs)
);
},
{
closed = 1;
nodes = (
(315,582,o),
(340,589,o),
(351,608,cs),
(438,759,ls),
(449,778,o),
(443,803,o),
(423,814,cs),
(403,826,o),
(378,819,o),
(367,800,cs),
(280,649,ls),
(269,630,o),
(276,605,o),
(295,593,cs)
);
},
{
closed = 1;
nodes = (
(939,163,o),
(946,188,o),
(934,208,cs),
(848,358,ls),
(836,378,o),
(811,385,o),
(792,373,cs),
(772,362,o),
(765,337,o),
(777,317,cs),
(863,167,ls),
(875,147,o),
(900,141,o),
(919,152,cs)
);
},
{
closed = 1;
nodes = (
(918,371,o),
(943,377,o),
(954,397,cs),
(966,417,o),
(959,442,o),
(940,453,cs),
(789,540,ls),
(770,551,o),
(745,544,o),
(733,525,cs),
(722,505,o),
(729,480,o),
(748,469,cs),
(899,382,ls)
);
},
{
closed = 1;
nodes = (
(821,586,ls),
(844,586,o),
(862,604,o),
(862,627,cs),
(862,649,o),
(844,668,o),
(821,668,cs),
(648,668,ls),
(625,668,o),
(607,649,o),
(607,627,cs),
(607,604,o),
(625,586,o),
(648,586,cs)
);
}
);
width = 960;
},
{
layerId = "5C20EF92-B63D-42A8-8878-93C2863E0093";
shapes = (
{
closed = 1;
nodes = (
(653,723,ls),
(673,735,o),
(679,760,o),
(668,779,cs),
(657,799,o),
(632,806,o),
(612,794,cs),
(462,708,ls),
(442,696,o),
(435,671,o),
(447,652,cs),
(458,632,o),
(483,625,o),
(503,637,cs)
);
},
{
closed = 1;
nodes = (
(312,13,ls),
(335,13,o),
(353,31,o),
(353,53,cs),
(353,76,o),
(335,94,o),
(312,94,cs),
(138,94,ls),
(116,94,o),
(98,76,o),
(98,53,cs),
(98,31,o),
(116,13,o),
(138,13,cs)
);
},
{
closed = 1;
nodes = (
(190,129,o),
(215,136,o),
(227,155,cs),
(238,175,o),
(231,200,o),
(212,211,cs),
(61,298,ls),
(42,309,o),
(17,303,o),
(5,283,cs),
(-6,264,o),
(1,238,o),
(20,227,cs),
(171,140,ls)
);
},
{
closed = 1;
nodes = (
(498,-28,ls),
(518,-16,o),
(525,9,o),
(513,28,cs),
(502,48,o),
(477,55,o),
(457,43,cs),
(307,-43,ls),
(287,-55,o),
(281,-80,o),
(292,-99,cs),
(303,-119,o),
(328,-126,o),
(348,-114,cs)
);
},
{
closed = 1;
nodes = (
(188,318,o),
(195,343,o),
(183,363,cs),
(97,513,ls),
(85,533,o),
(60,539,o),
(41,528,cs),
(21,517,o),
(14,492,o),
(26,472,cs),
(112,322,ls),
(124,302,o),
(149,295,o),
(168,307,cs)
);
},
{
closed = 1;
nodes = (
(557,-146,o),
(582,-139,o),
(593,-120,cs),
(680,31,ls),
(691,50,o),
(684,75,o),
(665,87,cs),
(645,98,o),
(620,91,o),
(609,72,cs),
(522,-79,ls),
(511,-98,o),
(517,-123,o),
(537,-134,cs)
);
},
{
closed = 1;
nodes = (
(216,467,o),
(234,485,o),
(234,508,cs),
(234,681,ls),
(234,704,o),
(216,722,o),
(193,722,cs),
(171,722,o),
(152,704,o),
(152,681,cs),
(152,508,ls),
(152,485,o),
(171,467,o),
(193,467,cs)
);
},
{
closed = 1;
nodes = (
(789,-42,o),
(807,-24,o),
(807,-1,cs),
(807,172,ls),
(807,195,o),
(789,213,o),
(767,213,cs),
(744,213,o),
(726,195,o),
(726,172,cs),
(726,-1,ls),
(726,-24,o),
(744,-42,o),
(767,-42,cs)
);
},
{
closed = 1;
nodes = (
(315,582,o),
(340,589,o),
(351,608,cs),
(438,759,ls),
(449,778,o),
(443,803,o),
(423,814,cs),
(403,826,o),
(378,819,o),
(367,800,cs),
(280,649,ls),
(269,630,o),
(276,605,o),
(295,593,cs)
);
},
{
closed = 1;
nodes = (
(939,163,o),
(946,188,o),
(934,208,cs),
(848,358,ls),
(836,378,o),
(811,385,o),
(792,373,cs),
(772,362,o),
(765,337,o),
(777,317,cs),
(863,167,ls),
(875,147,o),
(900,141,o),
(919,152,cs)
);
},
{
closed = 1;
nodes = (
(918,371,o),
(943,377,o),
(954,397,cs),
(966,417,o),
(959,442,o),
(940,453,cs),
(789,540,ls),
(770,551,o),
(745,544,o),
(733,525,cs),
(722,505,o),
(729,480,o),
(748,469,cs),
(899,382,ls)
);
},
{
closed = 1;
nodes = (
(821,586,ls),
(844,586,o),
(862,604,o),
(862,627,cs),
(862,649,o),
(844,668,o),
(821,668,cs),
(648,668,ls),
(625,668,o),
(607,649,o),
(607,627,cs),
(607,604,o),
(625,586,o),
(648,586,cs)
);
}
);
width = 960;
}
);
metricWidth = symbolBase;
unicode = 1024001;
}
{
color = 11;
glyphname = logoWemixdollar;
layers = (
{
layerId = "B1F27B51-9973-4381-9301-4FE46FE1CA59";
shapes = (
{
closed = 1;
nodes = (
(745,-140,o),
(960,75,o),
(960,340,cs),
(960,605,o),
(745,820,o),
(480,820,cs),
(215,820,o),
(0,605,o),
(0,340,cs),
(0,75,o),
(215,-140,o),
(480,-140,cs)
);
},
{
closed = 1;
nodes = (
(471,-73,o),
(462,-73,o),
(453,-72,c),
(453,74,l),
(378,81,o),
(323,117,o),
(288,180,c),
(372,246,l),
(394,206,o),
(438,133,o),
(459,100,c),
(502,99,o),
(541,140,o),
(540,183,cs),
(540,215,o),
(516,241,o),
(491,260,cs),
(438,300,o),
(360,332,o),
(324,390,cs),
(297,431,o),
(298,491,o),
(327,532,cs),
(353,572,o),
(404,597,o),
(453,603,c),
(453,699,l),
(267,685,o),
(120,530,o),
(120,340,cs),
(120,169,o),
(240,25,o),
(400,-11,c),
(400,-66,l),
(210,-28,o),
(67,139,o),
(67,340,cs),
(67,568,o),
(252,753,o),
(480,753,cs),
(506,753,l),
(506,607,l),
(575,605,o),
(620,583,o),
(664,535,c),
(664,534,l),
(579,467,l),
(553,507,o),
(528,545,o),
(502,580,c),
(460,581,o),
(431,555,o),
(432,514,cs),
(433,480,o),
(456,453,o),
(482,433,cs),
(536,391,o),
(617,354,o),
(652,295,cs),
(679,253,o),
(678,196,o),
(652,153,cs),
(623,105,o),
(566,79,o),
(507,74,c),
(507,-19,l),
(693,-5,o),
(840,150,o),
(840,340,cs),
(840,511,o),
(720,655,o),
(560,691,c),
(560,746,l),
(750,708,o),
(893,541,o),
(893,340,cs),
(893,112,o),
(708,-73,o),
(480,-73,cs)
);
}
);
width = 960;
},
{
layerId = "CD0E3B44-F66A-4791-B84C-A1128DC61275";
shapes = (
{
closed = 1;
nodes = (
(745,-140,o),
(960,75,o),
(960,340,cs),
(960,605,o),
(745,820,o),
(480,820,cs),
(215,820,o),
(0,605,o),
(0,340,cs),
(0,75,o),
(215,-140,o),
(480,-140,cs)
);
},
{
closed = 1;
nodes = (
(471,-73,o),
(462,-73,o),
(453,-72,c),
(453,74,l),
(378,81,o),
(323,117,o),
(288,180,c),
(372,246,l),
(394,206,o),
(438,133,o),
(459,100,c),
(502,99,o),
(541,140,o),
(540,183,cs),
(540,215,o),
(516,241,o),
(491,260,cs),
(438,300,o),
(360,332,o),
(324,390,cs),
(297,431,o),
(298,491,o),
(327,532,cs),
(353,572,o),
(404,597,o),
(453,603,c),
(453,699,l),
(267,685,o),
(120,530,o),
(120,340,cs),
(120,169,o),
(240,25,o),
(400,-11,c),
(400,-66,l),
(210,-28,o),
(67,139,o),
(67,340,cs),
(67,568,o),
(252,753,o),
(480,753,cs),
(506,753,l),
(506,607,l),
(575,605,o),
(620,583,o),
(664,535,c),
(664,534,l),
(579,467,l),
(553,507,o),
(528,545,o),
(502,580,c),
(460,581,o),
(431,555,o),
(432,514,cs),
(433,480,o),
(456,453,o),
(482,433,cs),
(536,391,o),
(617,354,o),
(652,295,cs),
(679,253,o),
(678,196,o),
(652,153,cs),
(623,105,o),
(566,79,o),
(507,74,c),
(507,-19,l),
(693,-5,o),
(840,150,o),
(840,340,cs),
(840,511,o),
(720,655,o),
(560,691,c),
(560,746,l),
(750,708,o),
(893,541,o),
(893,340,cs),
(893,112,o),
(708,-73,o),
(480,-73,cs)
);
}
);
width = 960;
},
{
layerId = "5C20EF92-B63D-42A8-8878-93C2863E0093";
shapes = (
{
closed = 1;
nodes = (
(745,-140,o),
(960,75,o),
(960,340,cs),
(960,605,o),
(745,820,o),
(480,820,cs),
(215,820,o),
(0,605,o),
(0,340,cs),
(0,75,o),
(215,-140,o),
(480,-140,cs)
);
},
{
closed = 1;
nodes = (
(471,-73,o),
(462,-73,o),
(453,-72,c),
(453,74,l),
(378,81,o),
(323,117,o),
(288,180,c),
(372,246,l),
(394,206,o),
(438,133,o),
(459,100,c),
(502,99,o),
(541,140,o),
(540,183,cs),
(540,215,o),
(516,241,o),
(491,260,cs),
(438,300,o),
(360,332,o),
(324,390,cs),
(297,431,o),
(298,491,o),
(327,532,cs),
(353,572,o),
(404,597,o),
(453,603,c),
(453,699,l),
(267,685,o),
(120,530,o),
(120,340,cs),
(120,169,o),
(240,25,o),
(400,-11,c),
(400,-66,l),
(210,-28,o),
(67,139,o),
(67,340,cs),
(67,568,o),
(252,753,o),
(480,753,cs),
(506,753,l),
(506,607,l),
(575,605,o),
(620,583,o),
(664,535,c),
(664,534,l),
(579,467,l),
(553,507,o),
(528,545,o),
(502,580,c),
(460,581,o),
(431,555,o),
(432,514,cs),
(433,480,o),
(456,453,o),
(482,433,cs),
(536,391,o),
(617,354,o),
(652,295,cs),
(679,253,o),
(678,196,o),
(652,153,cs),
(623,105,o),
(566,79,o),
(507,74,c),
(507,-19,l),
(693,-5,o),
(840,150,o),
(840,340,cs),
(840,511,o),
(720,655,o),
(560,691,c),
(560,746,l),
(750,708,o),
(893,541,o),
(893,340,cs),
(893,112,o),
(708,-73,o),
(480,-73,cs)
);
}
);
width = 960;
}
);
metricWidth = symbolBase;
unicode = 1024004;
}
{
color = 11;
glyphname = logoWemixexplorer.small;
layers = (
{
layerId = "B1F27B51-9973-4381-9301-4FE46FE1CA59";
shapes = (
{
closed = 1;
nodes = (
(853,68,o),
(870,92,o),
(884,118,c),
(720,107,o),
(522,140,o),
(265,219,c),
(264,219,l),
(191,241,o),
(104,260,o),
(25,267,c),
(29,242,o),
(35,217,o),
(43,193,c),
(118,185,o),
(200,162,o),
(270,142,cs),
(430,97,o),
(636,39,o),
(834,45,c)
);
},
{
closed = 1;
nodes = (
(498,-121,o),
(516,-120,o),
(533,-118,c),
(101,78,l),
(184,-42,o),
(323,-121,o),
(480,-121,cs)
);
},
{
closed = 1;
nodes = (
(675,-79,o),
(708,-62,o),
(738,-42,c),
(548,-4,o),
(330,98,o),
(162,147,cs),
(125,157,o),
(88,166,o),
(50,174,c),
(61,145,o),
(76,117,o),
(92,91,c),
(124,83,o),
(156,74,o),
(186,64,cs),
(311,23,o),
(471,-46,o),
(641,-92,c)
);
},
{
closed = 1;
nodes = (
(934,258,o),
(938,284,o),
(940,310,c),
(648,243,o),
(416,296,o),
(170,340,cs),
(121,349,o),
(71,355,o),
(20,359,c),
(18,341,o),
(21,302,o),
(22,286,c),
(75,282,o),
(127,275,o),
(178,265,cs),
(400,222,o),
(647,175,o),
(929,234,c)
);
},
{
closed = 1;
nodes = (
(343,355,o),
(487,355,o),
(630,369,cs),
(774,383,o),
(887,405,o),
(935,416,c),
(931,440,o),
(925,463,o),
(918,485,c),
(847,470,o),
(760,456,o),
(673,446,cs),
(516,428,o),
(357,426,o),
(199,439,cs),
(144,443,o),
(89,446,o),
(33,449,cs),
(32,449,l),
(27,425,o),
(23,402,o),
(21,378,c),
(23,377,o),
(25,377,o),
(27,377,cs),
(85,374,o),
(143,371,o),
(200,366,cs)
);
},
{
closed = 1;
nodes = (
(64,468,ls),
(346,468,o),
(621,501,o),
(884,563,c),
(871,585,o),
(857,607,o),
(841,627,c),
(591,570,o),
(332,540,o),
(65,540,c),
(54,517,o),
(44,493,o),
(37,468,c)
);
},
{
closed = 1;
nodes = (
(315,585,o),
(551,629,o),
(780,690,c),
(756,710,o),
(730,729,o),
(702,744,c),
(515,697,o),
(323,662,o),
(128,638,c),
(108,613,o),
(90,587,o),
(75,559,c)
);
},
{
closed = 1;
nodes = (
(611,782,l),
(569,794,o),
(525,801,o),
(480,801,cs),
(349,801,o),
(230,746,o),
(146,658,c)
);
}
);
width = 960;
},
{
layerId = "CD0E3B44-F66A-4791-B84C-A1128DC61275";
shapes = (
{
closed = 1;
nodes = (
(853,68,o),
(870,92,o),
(884,118,c),
(720,107,o),
(522,140,o),
(265,219,c),
(264,219,l),
(191,241,o),
(104,260,o),
(25,267,c),
(29,242,o),
(35,217,o),
(43,193,c),
(118,185,o),
(200,162,o),
(270,142,cs),
(430,97,o),
(636,39,o),
(834,45,c)
);
},
{
closed = 1;
nodes = (
(498,-121,o),
(516,-120,o),
(533,-118,c),
(101,78,l),
(184,-42,o),
(323,-121,o),
(480,-121,cs)
);
},
{
closed = 1;
nodes = (
(675,-79,o),
(708,-62,o),
(738,-42,c),
(548,-4,o),
(330,98,o),
(162,147,cs),
(125,157,o),
(88,166,o),
(50,174,c),
(61,145,o),
(76,117,o),
(92,91,c),
(124,83,o),
(156,74,o),
(186,64,cs),
(311,23,o),
(471,-46,o),
(641,-92,c)
);
},
{
closed = 1;
nodes = (
(934,258,o),
(938,284,o),
(940,310,c),
(648,243,o),
(416,296,o),
(170,340,cs),
(121,349,o),
(71,355,o),
(20,359,c),
(18,341,o),
(21,302,o),
(22,286,c),
(75,282,o),
(127,275,o),
(178,265,cs),
(400,222,o),
(647,175,o),
(929,234,c)
);
},
{
closed = 1;
nodes = (
(343,355,o),
(487,355,o),
(630,369,cs),
(774,383,o),
(887,405,o),
(935,416,c),
(931,440,o),
(925,463,o),
(918,485,c),
(847,470,o),
(760,456,o),
(673,446,cs),
(516,428,o),
(357,426,o),
(199,439,cs),
(144,443,o),
(89,446,o),
(33,449,cs),
(32,449,l),
(27,425,o),
(23,402,o),
(21,378,c),
(23,377,o),
(25,377,o),
(27,377,cs),
(85,374,o),
(143,371,o),
(200,366,cs)
);
},
{
closed = 1;
nodes = (
(64,468,ls),
(346,468,o),
(621,501,o),
(884,563,c),
(871,585,o),
(857,607,o),
(841,627,c),
(591,570,o),
(332,540,o),
(65,540,c),
(54,517,o),
(44,493,o),
(37,468,c)
);
},
{
closed = 1;
nodes = (
(315,585,o),
(551,629,o),
(780,690,c),
(756,710,o),
(730,729,o),
(702,744,c),
(515,697,o),
(323,662,o),
(128,638,c),
(108,613,o),
(90,587,o),
(75,559,c)
);
},
{
closed = 1;
nodes = (
(611,782,l),
(569,794,o),
(525,801,o),
(480,801,cs),
(349,801,o),
(230,746,o),
(146,658,c)
);
}
);
width = 960;
},
{
layerId = "5C20EF92-B63D-42A8-8878-93C2863E0093";
shapes = (
{
closed = 1;
nodes = (
(853,68,o),
(870,92,o),
(884,118,c),
(720,107,o),
(522,140,o),
(265,219,c),
(264,219,l),
(191,241,o),
(104,260,o),
(25,267,c),
(29,242,o),
(35,217,o),
(43,193,c),
(118,185,o),
(200,162,o),
(270,142,cs),
(430,97,o),
(636,39,o),
(834,45,c)
);
},
{
closed = 1;
nodes = (
(498,-121,o),
(516,-120,o),
(533,-118,c),
(101,78,l),
(184,-42,o),
(323,-121,o),
(480,-121,cs)
);
},
{
closed = 1;
nodes = (
(675,-79,o),
(708,-62,o),
(738,-42,c),
(548,-4,o),
(330,98,o),
(162,147,cs),
(125,157,o),
(88,166,o),
(50,174,c),
(61,145,o),
(76,117,o),
(92,91,c),
(124,83,o),
(156,74,o),
(186,64,cs),
(311,23,o),
(471,-46,o),
(641,-92,c)
);
},
{
closed = 1;
nodes = (
(934,258,o),
(938,284,o),
(940,310,c),
(648,243,o),
(416,296,o),
(170,340,cs),
(121,349,o),
(71,355,o),
(20,359,c),
(18,341,o),
(21,302,o),
(22,286,c),
(75,282,o),
(127,275,o),
(178,265,cs),
(400,222,o),
(647,175,o),
(929,234,c)
);
},
{
closed = 1;
nodes = (
(343,355,o),
(487,355,o),
(630,369,cs),
(774,383,o),
(887,405,o),
(935,416,c),
(931,440,o),
(925,463,o),
(918,485,c),
(847,470,o),
(760,456,o),
(673,446,cs),
(516,428,o),
(357,426,o),
(199,439,cs),
(144,443,o),
(89,446,o),
(33,449,cs),
(32,449,l),
(27,425,o),
(23,402,o),
(21,378,c),
(23,377,o),
(25,377,o),
(27,377,cs),
(85,374,o),
(143,371,o),
(200,366,cs)
);
},
{
closed = 1;
nodes = (
(64,468,ls),
(346,468,o),
(621,501,o),
(884,563,c),
(871,585,o),
(857,607,o),
(841,627,c),
(591,570,o),
(332,540,o),
(65,540,c),
(54,517,o),
(44,493,o),
(37,468,c)
);
},
{
closed = 1;
nodes = (
(315,585,o),
(551,629,o),
(780,690,c),
(756,710,o),
(730,729,o),
(702,744,c),
(515,697,o),
(323,662,o),
(128,638,c),
(108,613,o),
(90,587,o),
(75,559,c)
);
},
{
closed = 1;
nodes = (
(611,782,l),
(569,794,o),
(525,801,o),
(480,801,cs),
(349,801,o),
(230,746,o),
(146,658,c)
);
}
);
width = 960;
}
);
metricWidth = symbolBase;
unicode = 1024005;
}
{
color = 11;
glyphname = logoWemixfi;
layers = (
{
layerId = "B1F27B51-9973-4381-9301-4FE46FE1CA59";
shapes = (
{
closed = 1;
nodes = (
(590,-178,o),
(735,-81,o),
(803,61,cs),
(812,80,o),
(829,93,o),
(849,98,cs),
(913,115,o),
(960,173,o),
(960,243,cs),
(960,312,o),
(913,370,o),
(850,387,cs),
(829,393,o),
(812,408,o),
(803,427,cs),
(790,455,o),
(795,486,o),
(814,508,cs),
(847,545,o),
(866,594,o),
(866,647,cs),
(866,764,o),
(772,858,o),
(655,858,cs),
(562,858,o),
(483,798,o),
(455,714,cs),
(446,686,o),
(420,668,o),
(391,665,cs),
(172,649,o),
(0,467,o),
(0,244,cs),
(0,21,o),
(189,-178,o),
(422,-178,cs)
);
}
);
width = 960;
},
{
layerId = "CD0E3B44-F66A-4791-B84C-A1128DC61275";
shapes = (
{
closed = 1;
nodes = (
(590,-178,o),
(735,-81,o),
(803,61,cs),
(812,80,o),
(829,93,o),
(849,98,cs),
(913,115,o),
(960,173,o),
(960,243,cs),
(960,312,o),
(913,370,o),
(850,387,cs),
(829,393,o),
(812,408,o),
(803,427,cs),
(790,455,o),
(795,486,o),
(814,508,cs),
(847,545,o),
(866,594,o),
(866,647,cs),
(866,764,o),
(772,858,o),
(655,858,cs),
(562,858,o),
(483,798,o),
(455,714,cs),
(446,686,o),
(420,668,o),
(391,665,cs),
(172,649,o),
(0,467,o),
(0,244,cs),
(0,21,o),
(189,-178,o),
(422,-178,cs)
);
}
);
width = 960;
},
{
layerId = "5C20EF92-B63D-42A8-8878-93C2863E0093";
shapes = (
{
closed = 1;
nodes = (
(590,-178,o),
(735,-81,o),
(803,61,cs),
(812,80,o),
(829,93,o),
(849,98,cs),
(913,115,o),
(960,173,o),
(960,243,cs),
(960,312,o),
(913,370,o),
(850,387,cs),
(829,393,o),
(812,408,o),
(803,427,cs),
(790,455,o),
(795,486,o),
(814,508,cs),
(847,545,o),
(866,594,o),
(866,647,cs),
(866,764,o),
(772,858,o),
(655,858,cs),
(562,858,o),
(483,798,o),
(455,714,cs),
(446,686,o),
(420,668,o),
(391,665,cs),
(172,649,o),
(0,467,o),
(0,244,cs),
(0,21,o),
(189,-178,o),
(422,-178,cs)
);
}
);
width = 960;
}
);
metricWidth = symbolBase;
unicode = 1024006;
}
{
color = 11;
glyphname = logoWemixplay;
layers = (
{
layerId = "B1F27B51-9973-4381-9301-4FE46FE1CA59";
shapes = (
{
closed = 1;
nodes = (
(874,378,l),
(86,849,l),
(86,614,l),
(692,252,l)
);
},
{
closed = 1;
nodes = (
(288,431,l),
(86,551,l),
(86,-48,l),
(288,-169,l)
);
},
{
closed = 1;
nodes = (
(643,218,l),
(454,331,l),
(341,253,l),
(341,8,l)
);
}
);
width = 960;
},
{
layerId = "CD0E3B44-F66A-4791-B84C-A1128DC61275";
shapes = (
{
closed = 1;
nodes = (
(874,378,l),
(86,849,l),
(86,614,l),
(692,252,l)
);
},
{
closed = 1;
nodes = (
(288,431,l),
(86,551,l),
(86,-48,l),
(288,-169,l)
);
},
{
closed = 1;
nodes = (
(643,218,l),
(454,331,l),
(341,253,l),
(341,8,l)
);
}
);
width = 960;
},
{
layerId = "5C20EF92-B63D-42A8-8878-93C2863E0093";
shapes = (
{
closed = 1;
nodes = (
(874,378,l),
(86,849,l),
(86,614,l),
(692,252,l)
);
},
{
closed = 1;
nodes = (
(288,431,l),
(86,551,l),
(86,-48,l),
(288,-169,l)
);
},
{
closed = 1;
nodes = (
(643,218,l),
(454,331,l),
(341,253,l),
(341,8,l)
);
}
);
width = 960;
}
);
metricWidth = symbolBase;
unicode = 1024007;
}
{
color = 11;
glyphname = logoBnbFill;
layers = (
{
layerId = "B1F27B51-9973-4381-9301-4FE46FE1CA59";
shapes = (
{
closed = 1;
nodes = (
(745,-140,o),
(960,75,o),
(960,340,cs),
(960,605,o),
(745,820,o),
(480,820,cs),
(215,820,o),
(0,605,o),
(0,340,cs),
(0,75,o),
(215,-140,o),
(480,-140,cs)
);
},
{
closed = 1;
nodes = (
(201,176,l),
(201,377,l),
(264,340,l),
(264,213,l),
(372,150,l),
(372,75,l)
);
},
{
closed = 1;
nodes = (
(417,49,l),
(417,123,l),
(480,86,l),
(543,123,l),
(543,49,l),
(480,12,l)
);
},
{
closed = 1;
nodes = (
(417,176,l),
(417,303,l),
(309,366,l),
(309,441,l),
(372,478,l),
(480,414,l),
(588,478,l),
(651,441,l),
(651,366,l),
(543,303,l),
(543,176,l),
(480,139,l)
);
},
{
closed = 1;
nodes = (
(309,239,l),
(309,314,l),
(372,277,l),
(372,203,l)
);
},
{
closed = 1;
nodes = (
(201,430,l),
(201,504,l),
(264,541,l),
(327,504,l),
(264,467,l),
(264,393,l)
);
},
{
closed = 1;
nodes = (
(588,277,l),
(651,314,l),
(651,239,l),
(588,203,l)
);
},
{
closed = 1;
nodes = (
(588,150,l),
(696,213,l),
(696,340,l),
(759,377,l),
(759,176,l),
(588,75,l)
);
},
{
closed = 1;
nodes = (
(417,504,l),
(480,541,l),
(543,504,l),
(480,467,l)
);
},
{
closed = 1;
nodes = (
(309,568,l),
(480,668,l),
(651,568,l),
(588,530,l),
(480,594,l),
(372,530,l)
);
},
{
closed = 1;
nodes = (
(696,467,l),
(633,504,l),
(696,541,l),
(759,504,l),
(759,430,l),
(696,393,l)
);
}
);
width = 960;
},
{
layerId = "CD0E3B44-F66A-4791-B84C-A1128DC61275";
shapes = (
{
closed = 1;
nodes = (
(745,-140,o),
(960,75,o),
(960,340,cs),
(960,605,o),
(745,820,o),
(480,820,cs),
(215,820,o),
(0,605,o),
(0,340,cs),
(0,75,o),
(215,-140,o),
(480,-140,cs)
);
},
{
closed = 1;
nodes = (
(201,176,l),
(201,377,l),
(264,340,l),
(264,213,l),
(372,150,l),
(372,75,l)
);
},
{
closed = 1;
nodes = (
(417,49,l),
(417,123,l),
(480,86,l),
(543,123,l),
(543,49,l),
(480,12,l)
);
},
{
closed = 1;
nodes = (
(417,176,l),
(417,303,l),
(309,366,l),
(309,441,l),
(372,478,l),
(480,414,l),
(588,478,l),
(651,441,l),
(651,366,l),
(543,303,l),
(543,176,l),
(480,139,l)
);
},
{
closed = 1;
nodes = (
(309,239,l),
(309,314,l),
(372,277,l),
(372,203,l)
);
},
{
closed = 1;
nodes = (
(201,430,l),
(201,504,l),
(264,541,l),
(327,504,l),
(264,467,l),
(264,393,l)
);
},
{
closed = 1;
nodes = (
(588,277,l),
(651,314,l),
(651,239,l),
(588,203,l)
);
},
{
closed = 1;
nodes = (
(588,150,l),
(696,213,l),
(696,340,l),
(759,377,l),
(759,176,l),
(588,75,l)
);
},
{
closed = 1;
nodes = (
(417,504,l),
(480,541,l),
(543,504,l),
(480,467,l)
);
},
{
closed = 1;
nodes = (
(309,568,l),
(480,668,l),
(651,568,l),
(588,530,l),
(480,594,l),
(372,530,l)
);
},
{
closed = 1;
nodes = (
(696,467,l),
(633,504,l),
(696,541,l),
(759,504,l),
(759,430,l),
(696,393,l)
);
}
);
width = 960;
},
{
layerId = "5C20EF92-B63D-42A8-8878-93C2863E0093";
shapes = (
{
closed = 1;
nodes = (
(745,-140,o),
(960,75,o),
(960,340,cs),
(960,605,o),
(745,820,o),
(480,820,cs),
(215,820,o),
(0,605,o),
(0,340,cs),
(0,75,o),
(215,-140,o),
(480,-140,cs)
);
},
{
closed = 1;
nodes = (
(201,176,l),
(201,377,l),
(264,340,l),
(264,213,l),
(372,150,l),
(372,75,l)
);
},
{
closed = 1;
nodes = (
(417,49,l),
(417,123,l),
(480,86,l),
(543,123,l),
(543,49,l),
(480,12,l)
);
},
{
closed = 1;
nodes = (
(417,176,l),
(417,303,l),
(309,366,l),
(309,441,l),
(372,478,l),
(480,414,l),
(588,478,l),
(651,441,l),
(651,366,l),
(543,303,l),
(543,176,l),
(480,139,l)
);
},
{
closed = 1;
nodes = (
(309,239,l),
(309,314,l),
(372,277,l),
(372,203,l)
);
},
{
closed = 1;
nodes = (
(201,430,l),
(201,504,l),
(264,541,l),
(327,504,l),
(264,467,l),
(264,393,l)
);
},
{
closed = 1;
nodes = (
(588,277,l),
(651,314,l),
(651,239,l),
(588,203,l)
);
},
{
closed = 1;
nodes = (
(588,150,l),
(696,213,l),
(696,340,l),
(759,377,l),
(759,176,l),
(588,75,l)
);
},
{
closed = 1;
nodes = (
(417,504,l),
(480,541,l),
(543,504,l),
(480,467,l)
);
},
{
closed = 1;
nodes = (
(309,568,l),
(480,668,l),
(651,568,l),
(588,530,l),
(480,594,l),
(372,530,l)
);
},
{
closed = 1;
nodes = (
(696,467,l),
(633,504,l),
(696,541,l),
(759,504,l),
(759,430,l),
(696,393,l)
);
}
);
width = 960;
}
);
metricWidth = symbolBase;
unicode = 1024011;
}
{
color = 11;
glyphname = logoEth;
layers = (
{
layerId = "B1F27B51-9973-4381-9301-4FE46FE1CA59";
shapes = (
{
closed = 1;
nodes = (
(768,331,l),
(480,809,l),
(192,331,l),
(480,161,l)
);
},
{
closed = 1;
nodes = (
(768,277,l),
(480,107,l),
(192,277,l),
(480,-129,l)
);
}
);
width = 960;
},
{
layerId = "CD0E3B44-F66A-4791-B84C-A1128DC61275";
shapes = (
{
closed = 1;
nodes = (
(768,331,l),
(480,809,l),
(192,331,l),
(480,161,l)
);
},
{
closed = 1;
nodes = (
(768,277,l),
(480,107,l),
(192,277,l),
(480,-129,l)
);
}
);
width = 960;
},
{
layerId = "5C20EF92-B63D-42A8-8878-93C2863E0093";
shapes = (
{
closed = 1;
nodes = (
(768,331,l),
(480,809,l),
(192,331,l),
(480,161,l)
);
},
{
closed = 1;
nodes = (
(768,277,l),
(480,107,l),
(192,277,l),
(480,-129,l)
);
}
);
width = 960;
}
);
metricWidth = symbolBase;
unicode = 1024014;
}
{
color = 11;
glyphname = logoKleva.small;
layers = (
{
layerId = "B1F27B51-9973-4381-9301-4FE46FE1CA59";
shapes = (
{
closed = 1;
nodes = (
(855,-32,ls),
(859,-32,o),
(862,-27,o),
(860,-23,cs),
(750,165,ls),
(748,169,o),
(743,169,o),
(740,166,cs),
(624,40,ls),
(621,37,o),
(617,40,o),
(619,43,cs),
(863,459,l),
(864,462,o),
(864,466,o),
(863,469,c),
(725,703,ls),
(723,707,o),
(717,707,o),
(715,703,cs),
(432,221,ls),
(430,218,o),
(430,214,o),
(432,211,cs),
(572,-27,ls),
(574,-30,o),
(577,-32,o),
(580,-32,cs)
);
},
{
closed = 1;
nodes = (
(237,-27,o),
(243,-27,o),
(245,-23,cs),
(528,459,ls),
(530,462,o),
(530,466,o),
(528,469,cs),
(388,707,ls),
(386,710,o),
(383,712,o),
(380,712,cs),
(105,712,ls),
(101,712,o),
(98,707,o),
(100,703,cs),
(210,515,ls),
(212,511,o),
(218,511,o),
(220,514,c),
(336,641,l),
(339,643,o),
(343,640,o),
(341,637,cs),
(97,221,l),
(96,218,o),
(96,214,o),
(97,211,c),
(235,-23,ls)
);
}
);
width = 960;
},
{
layerId = "CD0E3B44-F66A-4791-B84C-A1128DC61275";
shapes = (
{
closed = 1;
nodes = (
(855,-32,ls),
(859,-32,o),
(862,-27,o),
(860,-23,cs),
(750,165,ls),
(748,169,o),
(743,169,o),
(740,166,cs),
(624,40,ls),
(621,37,o),
(617,40,o),
(619,43,cs),
(863,459,l),
(864,462,o),
(864,466,o),
(863,469,c),
(725,703,ls),
(723,707,o),
(717,707,o),
(715,703,cs),
(432,221,ls),
(430,218,o),
(430,214,o),
(432,211,cs),
(572,-27,ls),
(574,-30,o),
(577,-32,o),
(580,-32,cs)
);
},
{
closed = 1;
nodes = (
(237,-27,o),
(243,-27,o),
(245,-23,cs),
(528,459,ls),
(530,462,o),
(530,466,o),
(528,469,cs),
(388,707,ls),
(386,710,o),
(383,712,o),
(380,712,cs),
(105,712,ls),
(101,712,o),
(98,707,o),
(100,703,cs),
(210,515,ls),
(212,511,o),
(218,511,o),
(220,514,c),
(336,641,l),
(339,643,o),
(343,640,o),
(341,637,cs),
(97,221,l),
(96,218,o),
(96,214,o),
(97,211,c),
(235,-23,ls)
);
}
);
width = 960;
},
{
layerId = "5C20EF92-B63D-42A8-8878-93C2863E0093";
shapes = (
{
closed = 1;
nodes = (
(855,-32,ls),
(859,-32,o),
(862,-27,o),
(860,-23,cs),
(750,165,ls),
(748,169,o),
(743,169,o),
(740,166,cs),
(624,40,ls),
(621,37,o),
(617,40,o),
(619,43,cs),
(863,459,l),
(864,462,o),
(864,466,o),
(863,469,c),
(725,703,ls),
(723,707,o),
(717,707,o),
(715,703,cs),
(432,221,ls),
(430,218,o),
(430,214,o),
(432,211,cs),
(572,-27,ls),
(574,-30,o),
(577,-32,o),
(580,-32,cs)
);
},
{
closed = 1;
nodes = (
(237,-27,o),
(243,-27,o),
(245,-23,cs),
(528,459,ls),
(530,462,o),
(530,466,o),
(528,469,cs),
(388,707,ls),
(386,710,o),
(383,712,o),
(380,712,cs),
(105,712,ls),
(101,712,o),
(98,707,o),
(100,703,cs),
(210,515,ls),
(212,511,o),
(218,511,o),
(220,514,c),
(336,641,l),
(339,643,o),
(343,640,o),
(341,637,cs),
(97,221,l),
(96,218,o),
(96,214,o),
(97,211,c),
(235,-23,ls)
);
}
);
width = 960;
}
);
metricWidth = symbolBase;
unicode = 1024016;
}
{
color = 11;
glyphname = logoKlevaFill.small;
layers = (
{
layerId = "B1F27B51-9973-4381-9301-4FE46FE1CA59";
shapes = (
{
closed = 1;
nodes = (
(745,-140,o),
(960,75,o),
(960,340,cs),
(960,605,o),
(745,820,o),
(480,820,cs),
(215,820,o),
(0,605,o),
(0,340,cs),
(0,75,o),
(215,-140,o),
(480,-140,cs)
);
},
{
closed = 1;
nodes = (
(225,254,ls),
(224,256,o),
(224,258,o),
(225,260,cs),
(388,539,ls),
(389,541,o),
(386,543,o),
(384,542,c),
(307,457,ls),
(305,455,o),
(302,455,o),
(300,457,c),
(227,583,ls),
(225,586,o),
(227,590,o),
(231,590,cs),
(413,590,ls),
(416,590,o),
(418,588,o),
(419,586,cs),
(512,426,ls),
(513,424,o),
(513,422,o),
(512,420,cs),
(324,97,ls),
(322,94,o),
(318,94,o),
(317,97,c)
);
},
{
closed = 1;
nodes = (
(544,91,o),
(542,92,o),
(541,94,cs),
(448,254,ls),
(447,256,o),
(447,258,o),
(448,260,cs),
(636,583,ls),
(638,586,o),
(642,586,o),
(644,583,cs),
(735,426,ls),
(736,424,o),
(736,422,o),
(735,420,cs),
(572,141,ls),
(571,139,o),
(574,137,o),
(576,139,cs),
(653,224,ls),
(655,226,o),
(658,225,o),
(660,223,c),
(733,97,ls),
(735,94,o),
(733,91,o),
(730,91,cs),
(547,91,ls)
);
}
);
width = 960;
},
{
layerId = "CD0E3B44-F66A-4791-B84C-A1128DC61275";
shapes = (
{
closed = 1;
nodes = (
(745,-140,o),
(960,75,o),
(960,340,cs),
(960,605,o),
(745,820,o),
(480,820,cs),
(215,820,o),
(0,605,o),
(0,340,cs),
(0,75,o),
(215,-140,o),
(480,-140,cs)
);
},
{
closed = 1;
nodes = (
(225,254,ls),
(224,256,o),
(224,258,o),
(225,260,cs),
(388,539,ls),
(389,541,o),
(386,543,o),
(384,542,c),
(307,457,ls),
(305,455,o),
(302,455,o),
(300,457,c),
(227,583,ls),
(225,586,o),
(227,590,o),
(231,590,cs),
(413,590,ls),
(416,590,o),
(418,588,o),
(419,586,cs),
(512,426,ls),
(513,424,o),
(513,422,o),
(512,420,cs),
(324,97,ls),
(322,94,o),
(318,94,o),
(317,97,c)
);
},
{
closed = 1;
nodes = (
(544,91,o),
(542,92,o),
(541,94,cs),
(448,254,ls),
(447,256,o),
(447,258,o),
(448,260,cs),
(636,583,ls),
(638,586,o),
(642,586,o),
(644,583,cs),
(735,426,ls),
(736,424,o),
(736,422,o),
(735,420,cs),
(572,141,ls),
(571,139,o),
(574,137,o),
(576,139,cs),
(653,224,ls),
(655,226,o),
(658,225,o),
(660,223,c),
(733,97,ls),
(735,94,o),
(733,91,o),
(730,91,cs),
(547,91,ls)
);
}
);
width = 960;
},
{
layerId = "5C20EF92-B63D-42A8-8878-93C2863E0093";
shapes = (
{
closed = 1;
nodes = (
(745,-140,o),
(960,75,o),
(960,340,cs),
(960,605,o),
(745,820,o),
(480,820,cs),
(215,820,o),
(0,605,o),
(0,340,cs),
(0,75,o),
(215,-140,o),
(480,-140,cs)
);
},
{
closed = 1;
nodes = (
(225,254,ls),
(224,256,o),
(224,258,o),
(225,260,cs),
(388,539,ls),
(389,541,o),
(386,543,o),
(384,542,c),
(307,457,ls),
(305,455,o),
(302,455,o),
(300,457,c),
(227,583,ls),
(225,586,o),
(227,590,o),
(231,590,cs),
(413,590,ls),
(416,590,o),
(418,588,o),
(419,586,cs),
(512,426,ls),
(513,424,o),
(513,422,o),
(512,420,cs),
(324,97,ls),
(322,94,o),
(318,94,o),
(317,97,c)
);
},
{
closed = 1;
nodes = (
(544,91,o),
(542,92,o),
(541,94,cs),
(448,254,ls),
(447,256,o),
(447,258,o),
(448,260,cs),
(636,583,ls),
(638,586,o),
(642,586,o),
(644,583,cs),
(735,426,ls),
(736,424,o),
(736,422,o),
(735,420,cs),
(572,141,ls),
(571,139,o),
(574,137,o),
(576,139,cs),
(653,224,ls),
(655,226,o),
(658,225,o),
(660,223,c),
(733,97,ls),
(735,94,o),
(733,91,o),
(730,91,cs),
(547,91,ls)
);
}
);
width = 960;
}
);
metricWidth = symbolBase;
unicode = 1024017;
}
{
color = 11;
glyphname = logoUsdc.small;
layers = (
{
layerId = "B1F27B51-9973-4381-9301-4FE46FE1CA59";
shapes = (
{
closed = 1;
nodes = (
(746,-140,o),
(960,74,o),
(960,340,cs),
(960,606,o),
(746,820,o),
(480,820,cs),
(214,820,o),
(0,606,o),
(0,340,cs),
(0,74,o),
(214,-140,o),
(480,-140,cs)
);
},
{
closed = 1;
nodes = (
(258,28,o),
(172,114,o),
(136,226,cs),
(76,416,o),
(180,618,o),
(370,678,cs),
(373,679,o),
(376,680,o),
(378,680,cs),
(386,680,o),
(390,672,o),
(390,664,cs),
(390,636,ls),
(390,626,o),
(386,619,o),
(378,616,cs),
(296,586,o),
(230,522,o),
(200,438,cs),
(142,284,o),
(221,106,o),
(378,54,cs),
(386,51,o),
(390,45,o),
(390,36,cs),
(390,8,ls),
(390,-4,o),
(381,-12,o),
(370,-8,cs)
);
},
{
closed = 1;
nodes = (
(456,94,o),
(450,102,o),
(450,110,cs),
(450,158,l),
(384,168,o),
(352,204,o),
(344,254,cs),
(344,256,ls),
(344,264,o),
(350,270,o),
(358,270,cs),
(392,270,ls),
(398,270,o),
(404,266,o),
(406,258,cs),
(412,228,o),
(430,206,o),
(482,206,cs),
(520,206,o),
(548,228,o),
(548,260,cs),
(548,292,o),
(530,304,o),
(474,314,c),
(390,324,o),
(350,350,o),
(350,416,cs),
(350,466,o),
(388,506,o),
(448,514,c),
(448,560,ls),
(448,570,o),
(456,576,o),
(464,576,cs),
(494,576,ls),
(504,576,o),
(510,568,o),
(510,560,cs),
(510,512,l),
(556,508,o),
(592,474,o),
(600,430,cs),
(600,428,ls),
(600,420,o),
(594,414,o),
(586,414,cs),
(554,414,ls),
(548,414,o),
(542,418,o),
(540,424,cs),
(530,454,o),
(510,466,o),
(474,466,cs),
(434,466,o),
(414,448,o),
(414,420,cs),
(414,392,o),
(426,376,o),
(486,368,cs),
(570,358,o),
(612,334,o),
(612,264,cs),
(612,210,o),
(572,168,o),
(512,158,c),
(512,110,ls),
(512,100,o),
(504,94,o),
(496,94,cs),
(466,94,ls)
);
},
{
closed = 1;
nodes = (
(579,-12,o),
(570,-4,o),
(570,8,cs),
(570,36,ls),
(570,45,o),
(574,51,o),
(582,54,cs),
(739,106,o),
(818,284,o),
(760,438,cs),
(730,522,o),
(664,586,o),
(582,616,cs),
(574,619,o),
(570,626,o),
(570,636,cs),
(570,664,ls),
(570,672,o),
(574,680,o),
(582,680,cs),
(584,680,o),
(587,679,o),
(590,678,cs),
(780,618,o),
(884,416,o),
(824,226,cs),
(788,114,o),
(702,28,o),
(590,-8,cs)
);
}
);
width = 960;
},
{
layerId = "CD0E3B44-F66A-4791-B84C-A1128DC61275";
shapes = (
{
closed = 1;
nodes = (
(746,-140,o),
(960,74,o),
(960,340,cs),
(960,606,o),
(746,820,o),
(480,820,cs),
(214,820,o),
(0,606,o),
(0,340,cs),
(0,74,o),
(214,-140,o),
(480,-140,cs)
);
},
{
closed = 1;
nodes = (
(258,28,o),
(172,114,o),
(136,226,cs),
(76,416,o),
(180,618,o),
(370,678,cs),
(373,679,o),
(376,680,o),
(378,680,cs),
(386,680,o),
(390,672,o),
(390,664,cs),
(390,636,ls),
(390,626,o),
(386,619,o),
(378,616,cs),
(296,586,o),
(230,522,o),
(200,438,cs),
(142,284,o),
(221,106,o),
(378,54,cs),
(386,51,o),
(390,45,o),
(390,36,cs),
(390,8,ls),
(390,-4,o),
(381,-12,o),
(370,-8,cs)
);
},
{
closed = 1;
nodes = (
(456,94,o),
(450,102,o),
(450,110,cs),
(450,158,l),
(384,168,o),
(352,204,o),
(344,254,cs),
(344,256,ls),
(344,264,o),
(350,270,o),
(358,270,cs),
(392,270,ls),
(398,270,o),
(404,266,o),
(406,258,cs),
(412,228,o),
(430,206,o),
(482,206,cs),
(520,206,o),
(548,228,o),
(548,260,cs),
(548,292,o),
(530,304,o),
(474,314,c),
(390,324,o),
(350,350,o),
(350,416,cs),
(350,466,o),
(388,506,o),
(448,514,c),
(448,560,ls),
(448,570,o),
(456,576,o),
(464,576,cs),
(494,576,ls),
(504,576,o),
(510,568,o),
(510,560,cs),
(510,512,l),
(556,508,o),
(592,474,o),
(600,430,cs),
(600,428,ls),
(600,420,o),
(594,414,o),
(586,414,cs),
(554,414,ls),
(548,414,o),
(542,418,o),
(540,424,cs),
(530,454,o),
(510,466,o),
(474,466,cs),
(434,466,o),
(414,448,o),
(414,420,cs),
(414,392,o),
(426,376,o),
(486,368,cs),
(570,358,o),
(612,334,o),
(612,264,cs),
(612,210,o),
(572,168,o),
(512,158,c),
(512,110,ls),
(512,100,o),
(504,94,o),
(496,94,cs),
(466,94,ls)
);
},
{
closed = 1;
nodes = (
(579,-12,o),
(570,-4,o),
(570,8,cs),
(570,36,ls),
(570,45,o),
(574,51,o),
(582,54,cs),
(739,106,o),
(818,284,o),
(760,438,cs),
(730,522,o),
(664,586,o),
(582,616,cs),
(574,619,o),
(570,626,o),
(570,636,cs),
(570,664,ls),
(570,672,o),
(574,680,o),
(582,680,cs),
(584,680,o),
(587,679,o),
(590,678,cs),
(780,618,o),
(884,416,o),
(824,226,cs),
(788,114,o),
(702,28,o),
(590,-8,cs)
);
}
);
width = 960;
},
{
layerId = "5C20EF92-B63D-42A8-8878-93C2863E0093";
shapes = (
{
closed = 1;
nodes = (
(746,-140,o),
(960,74,o),
(960,340,cs),
(960,606,o),
(746,820,o),
(480,820,cs),
(214,820,o),
(0,606,o),
(0,340,cs),
(0,74,o),
(214,-140,o),
(480,-140,cs)
);
},
{
closed = 1;
nodes = (
(258,28,o),
(172,114,o),
(136,226,cs),
(76,416,o),
(180,618,o),
(370,678,cs),
(373,679,o),
(376,680,o),
(378,680,cs),
(386,680,o),
(390,672,o),
(390,664,cs),
(390,636,ls),
(390,626,o),
(386,619,o),
(378,616,cs),
(296,586,o),
(230,522,o),
(200,438,cs),
(142,284,o),
(221,106,o),
(378,54,cs),
(386,51,o),
(390,45,o),
(390,36,cs),
(390,8,ls),
(390,-4,o),
(381,-12,o),
(370,-8,cs)
);
},
{
closed = 1;
nodes = (
(456,94,o),
(450,102,o),
(450,110,cs),
(450,158,l),
(384,168,o),
(352,204,o),
(344,254,cs),
(344,256,ls),
(344,264,o),
(350,270,o),
(358,270,cs),
(392,270,ls),
(398,270,o),
(404,266,o),
(406,258,cs),
(412,228,o),
(430,206,o),
(482,206,cs),
(520,206,o),
(548,228,o),
(548,260,cs),
(548,292,o),
(530,304,o),
(474,314,c),
(390,324,o),
(350,350,o),
(350,416,cs),
(350,466,o),
(388,506,o),
(448,514,c),
(448,560,ls),
(448,570,o),
(456,576,o),
(464,576,cs),
(494,576,ls),
(504,576,o),
(510,568,o),
(510,560,cs),
(510,512,l),
(556,508,o),
(592,474,o),
(600,430,cs),
(600,428,ls),
(600,420,o),
(594,414,o),
(586,414,cs),
(554,414,ls),
(548,414,o),
(542,418,o),
(540,424,cs),
(530,454,o),
(510,466,o),
(474,466,cs),
(434,466,o),
(414,448,o),
(414,420,cs),
(414,392,o),
(426,376,o),
(486,368,cs),
(570,358,o),
(612,334,o),
(612,264,cs),
(612,210,o),
(572,168,o),
(512,158,c),
(512,110,ls),
(512,100,o),
(504,94,o),
(496,94,cs),
(466,94,ls)
);
},
{
closed = 1;
nodes = (
(579,-12,o),
(570,-4,o),
(570,8,cs),
(570,36,ls),
(570,45,o),
(574,51,o),
(582,54,cs),
(739,106,o),
(818,284,o),
(760,438,cs),
(730,522,o),
(664,586,o),
(582,616,cs),
(574,619,o),
(570,626,o),
(570,636,cs),
(570,664,ls),
(570,672,o),
(574,680,o),
(582,680,cs),
(584,680,o),
(587,679,o),
(590,678,cs),
(780,618,o),
(884,416,o),
(824,226,cs),
(788,114,o),
(702,28,o),
(590,-8,cs)
);
}
);
width = 960;
}
);
metricWidth = symbolBase;
unicode = 1024019;
}
{
color = 11;
glyphname = logoUsdtFill;
layers = (
{
layerId = "B1F27B51-9973-4381-9301-4FE46FE1CA59";
shapes = (
{
closed = 1;
nodes = (
(745,-140,o),
(960,75,o),
(960,340,cs),
(960,605,o),
(745,820,o),
(480,820,cs),
(215,820,o),
(0,605,o),
(0,340,cs),
(0,75,o),
(215,-140,o),
(480,-140,cs)
);
},
{
closed = 1;
nodes = (
(479,-31,o),
(477,-30,o),
(476,-29,cs),
(111,314,ls),
(110,315,o),
(109,316,o),
(109,317,cs),
(109,318,o),
(109,319,o),
(110,320,c),
(245,599,l),
(245,600,o),
(246,600,o),
(247,601,cs),
(248,602,o),
(249,602,o),
(250,602,cs),
(710,602,ls),
(711,602,o),
(712,602,o),
(713,601,cs),
(714,600,o),
(715,600,o),
(715,599,c),
(850,320,l),
(851,319,o),
(851,318,o),
(851,317,cs),
(851,316,o),
(850,315,o),
(849,314,cs),
(484,-29,ls),
(483,-30,o),
(481,-31,o),
(480,-31,cs)
);
},
{
closed = 1;
nodes = (
(527,99,l),
(527,276,l),
(632,281,o),
(711,302,o),
(711,326,cs),
(711,351,o),
(632,371,o),
(527,376,c),
(527,431,l),
(656,431,l),
(656,516,l),
(304,516,l),
(304,431,l),
(433,431,l),
(433,376,l),
(328,371,o),
(249,351,o),
(249,326,cs),
(249,302,o),
(328,281,o),
(433,276,c),
(433,99,l)
);
},
{
closed = 1;
nodes = (
(457,291,o),
(439,291,o),
(433,292,c),
(341,296,o),
(271,311,o),
(271,330,cs),
(271,349,o),
(341,365,o),
(433,369,c),
(433,307,l),
(440,307,o),
(457,306,o),
(481,306,cs),
(510,306,o),
(524,307,o),
(527,307,c),
(527,369,l),
(620,365,o),
(689,349,o),
(689,330,cs),
(689,311,o),
(620,296,o),
(527,292,c),
(524,291,o),
(511,291,o),
(481,291,cs)
);
}
);
width = 960;
},
{
layerId = "CD0E3B44-F66A-4791-B84C-A1128DC61275";
shapes = (
{
closed = 1;
nodes = (
(745,-140,o),
(960,75,o),
(960,340,cs),
(960,605,o),
(745,820,o),
(480,820,cs),
(215,820,o),
(0,605,o),
(0,340,cs),
(0,75,o),
(215,-140,o),
(480,-140,cs)
);
},
{
closed = 1;
nodes = (
(479,-31,o),
(477,-30,o),
(476,-29,cs),
(111,314,ls),
(110,315,o),
(109,316,o),
(109,317,cs),
(109,318,o),
(109,319,o),
(110,320,c),
(245,599,l),
(245,600,o),
(246,600,o),
(247,601,cs),
(248,602,o),
(249,602,o),
(250,602,cs),
(710,602,ls),
(711,602,o),
(712,602,o),
(713,601,cs),
(714,600,o),
(715,600,o),
(715,599,c),
(850,320,l),
(851,319,o),
(851,318,o),
(851,317,cs),
(851,316,o),
(850,315,o),
(849,314,cs),
(484,-29,ls),
(483,-30,o),
(481,-31,o),
(480,-31,cs)
);
},
{
closed = 1;
nodes = (
(527,99,l),
(527,276,l),
(632,281,o),
(711,302,o),
(711,326,cs),
(711,351,o),
(632,371,o),
(527,376,c),
(527,431,l),
(656,431,l),
(656,516,l),
(304,516,l),
(304,431,l),
(433,431,l),
(433,376,l),
(328,371,o),
(249,351,o),
(249,326,cs),
(249,302,o),
(328,281,o),
(433,276,c),
(433,99,l)
);
},
{
closed = 1;
nodes = (
(457,291,o),
(439,291,o),
(433,292,c),
(341,296,o),
(271,311,o),
(271,330,cs),
(271,349,o),
(341,365,o),
(433,369,c),
(433,307,l),
(440,307,o),
(457,306,o),
(481,306,cs),
(510,306,o),
(524,307,o),
(527,307,c),
(527,369,l),
(620,365,o),
(689,349,o),
(689,330,cs),
(689,311,o),
(620,296,o),
(527,292,c),
(524,291,o),
(511,291,o),
(481,291,cs)
);
}
);
width = 960;
},
{
layerId = "5C20EF92-B63D-42A8-8878-93C2863E0093";
shapes = (
{
closed = 1;
nodes = (
(745,-140,o),
(960,75,o),
(960,340,cs),
(960,605,o),
(745,820,o),
(480,820,cs),
(215,820,o),
(0,605,o),
(0,340,cs),
(0,75,o),
(215,-140,o),
(480,-140,cs)
);
},
{
closed = 1;
nodes = (
(479,-31,o),
(477,-30,o),
(476,-29,cs),
(111,314,ls),
(110,315,o),
(109,316,o),
(109,317,cs),
(109,318,o),
(109,319,o),
(110,320,c),
(245,599,l),
(245,600,o),
(246,600,o),
(247,601,cs),
(248,602,o),
(249,602,o),
(250,602,cs),
(710,602,ls),
(711,602,o),
(712,602,o),
(713,601,cs),
(714,600,o),
(715,600,o),
(715,599,c),
(850,320,l),
(851,319,o),
(851,318,o),
(851,317,cs),
(851,316,o),
(850,315,o),
(849,314,cs),
(484,-29,ls),
(483,-30,o),
(481,-31,o),
(480,-31,cs)
);
},
{
closed = 1;
nodes = (
(527,99,l),
(527,276,l),
(632,281,o),
(711,302,o),
(711,326,cs),
(711,351,o),
(632,371,o),
(527,376,c),
(527,431,l),
(656,431,l),
(656,516,l),
(304,516,l),
(304,431,l),
(433,431,l),
(433,376,l),
(328,371,o),
(249,351,o),
(249,326,cs),
(249,302,o),
(328,281,o),
(433,276,c),
(433,99,l)
);
},
{
closed = 1;
nodes = (
(457,291,o),
(439,291,o),
(433,292,c),
(341,296,o),
(271,311,o),
(271,330,cs),
(271,349,o),
(341,365,o),
(433,369,c),
(433,307,l),
(440,307,o),
(457,306,o),
(481,306,cs),
(510,306,o),
(524,307,o),
(527,307,c),
(527,369,l),
(620,365,o),
(689,349,o),
(689,330,cs),
(689,311,o),
(620,296,o),
(527,292,c),
(524,291,o),
(511,291,o),
(481,291,cs)
);
}
);
width = 960;
}
);
metricWidth = symbolBase;
unicode = 1024021;
}
{
color = 11;
glyphname = logoWcd.small;
layers = (
{
layerId = "B1F27B51-9973-4381-9301-4FE46FE1CA59";
shapes = (
{
closed = 1;
nodes = (
(522,1,l),
(960,583,l),
(785,583,l),
(347,1,l)
);
},
{
closed = 1;
nodes = (
(259,350,l),
(171,466,l),
(259,583,l),
(84,583,l),
(-4,466,l),
(84,350,l)
);
},
{
closed = 1;
nodes = (
(434,118,l),
(347,234,l),
(609,583,l),
(434,583,l),
(171,234,l),
(259,118,l)
);
}
);
width = 960;
},
{
layerId = "CD0E3B44-F66A-4791-B84C-A1128DC61275";
shapes = (
{
closed = 1;
nodes = (
(522,1,l),
(960,583,l),
(785,583,l),
(347,1,l)
);
},
{
closed = 1;
nodes = (
(259,350,l),
(171,466,l),
(259,583,l),
(84,583,l),
(-4,466,l),
(84,350,l)
);
},
{
closed = 1;
nodes = (
(434,118,l),
(347,234,l),
(609,583,l),
(434,583,l),
(171,234,l),
(259,118,l)
);
}
);
width = 960;
},
{
layerId = "5C20EF92-B63D-42A8-8878-93C2863E0093";
shapes = (
{
closed = 1;
nodes = (
(522,1,l),
(960,583,l),
(785,583,l),
(347,1,l)
);
},
{
closed = 1;
nodes = (
(259,350,l),
(171,466,l),
(259,583,l),
(84,583,l),
(-4,466,l),
(84,350,l)
);
},
{
closed = 1;
nodes = (
(434,118,l),
(347,234,l),
(609,583,l),
(434,583,l),
(171,234,l),
(259,118,l)
);
}
);
width = 960;
}
);
metricWidth = symbolBase;
unicode = 1024022;
}
{
color = 11;
glyphname = iconArrowClockwise.medium;
layers = (
{
layerId = "B1F27B51-9973-4381-9301-4FE46FE1CA59";
metricWidth = "=symbolBase.medium";
shapes = (
{
closed = 1;
nodes = (
(730,-134,o),
(854,-82,o),
(943,11,cs),
(963,32,o),
(987,62,o),
(1003,88,cs),
(1010,99,o),
(1006,113,o),
(995,120,cs),
(982,128,o),
(968,122,o),
(962,112,cs),
(947,87,o),
(929,65,o),
(909,44,cs),
(833,-34,o),
(726,-86,o),
(603,-86,cs),
(367,-86,o),
(176,104,o),
(176,340,cs),
(176,576,o),
(367,766,o),
(603,766,cs),
(717,766,o),
(820,720,o),
(895,650,cs),
(937,611,o),
(973,561,o),
(994,508,cs),
(1000,493,o),
(1013,487,o),
(1026,491,cs),
(1038,495,o),
(1045,509,o),
(1039,522,cs),
(1012,584,o),
(973,643,o),
(919,692,cs),
(836,767,o),
(725,814,o),
(603,814,cs),
(341,814,o),
(129,602,o),
(129,340,cs),
(129,78,o),
(341,-134,o),
(603,-134,cs)
);
},
{
closed = 1;
nodes = (
(1075,466,ls),
(1088,466,o),
(1099,477,o),
(1099,490,cs),
(1099,640,ls),
(1099,653,o),
(1088,664,o),
(1075,664,cs),
(1063,664,o),
(1052,653,o),
(1052,640,cs),
(1052,514,l),
(925,514,ls),
(912,514,o),
(902,503,o),
(902,490,cs),
(902,477,o),
(912,466,o),
(925,466,cs)
);
}
);
userData = {
RMXScaler = {
height = 125;
verticalShift = -85;
width = 125;
};
};
width = 1200;
},
{
layerId = "CD0E3B44-F66A-4791-B84C-A1128DC61275";
metricWidth = "=symbolBase.medium";
shapes = (
{
closed = 1;
nodes = (
(746,-153,o),
(870,-92,o),
(958,-1,cs),
(983,25,o),
(999,47,o),
(1018,75,cs),
(1032,96,o),
(1026,124,o),
(1005,137,cs),
(983,151,o),
(957,141,o),
(945,122,cs),
(931,99,o),
(912,76,o),
(894,57,cs),
(817,-23,o),
(711,-67,o),
(602,-67,cs),
(378,-67,o),
(196,115,o),
(196,340,cs),
(196,565,o),
(378,747,o),
(602,747,cs),
(709,747,o),
(807,705,o),
(880,637,cs),
(924,596,o),
(956,546,o),
(977,497,cs),
(986,476,o),
(1010,464,o),
(1033,473,cs),
(1057,482,o),
(1066,508,o),
(1057,530,cs),
(1029,598,o),
(986,657,o),
(937,702,cs),
(850,782,o),
(733,833,o),
(602,833,cs),
(330,833,o),
(109,612,o),
(109,340,cs),
(109,68,o),
(330,-153,o),
(602,-153,cs)
);
},
{
closed = 1;
nodes = (
(1075,447,ls),
(1099,447,o),
(1118,466,o),
(1118,490,cs),
(1118,640,ls),
(1118,664,o),
(1098,683,o),
(1075,683,cs),
(1052,683,o),
(1032,664,o),
(1032,640,cs),
(1032,533,l),
(925,533,ls),
(901,533,o),
(882,514,o),
(882,490,cs),
(882,466,o),
(901,447,o),
(925,447,cs)
);
}
);
userData = {
RMXScaler = {
height = 125;
verticalShift = -85;
width = 125;
};
};
width = 1200;
},
{
layerId = "5C20EF92-B63D-42A8-8878-93C2863E0093";
metricWidth = "=symbolBase.medium";
shapes = (
{
closed = 1;
nodes = (
(743,-176,o),
(877,-119,o),
(975,-17,cs),
(999,8,o),
(1022,37,o),
(1040,66,cs),
(1059,97,o),
(1048,137,o),
(1018,156,cs),
(988,175,o),
(947,167,o),
(927,135,cs),
(912,111,o),
(897,93,o),
(879,74,cs),
(809,1,o),
(711,-44,o),
(603,-44,cs),
(391,-44,o),
(219,128,o),
(219,340,cs),
(219,552,o),
(391,724,o),
(603,724,cs),
(703,724,o),
(796,685,o),
(865,620,cs),
(902,585,o),
(935,541,o),
(957,488,cs),
(972,452,o),
(1012,439,o),
(1043,452,cs),
(1079,467,o),
(1092,506,o),
(1079,538,cs),
(1051,607,o),
(1006,669,o),
(956,716,cs),
(860,806,o),
(734,856,o),
(603,856,cs),
(318,856,o),
(87,625,o),
(87,340,cs),
(87,55,o),
(318,-176,o),
(603,-176,cs)
);
},
{
closed = 1;
nodes = (
(1076,424,ls),
(1112,424,o),
(1142,454,o),
(1142,490,cs),
(1142,640,ls),
(1142,676,o),
(1112,706,o),
(1076,706,cs),
(1039,706,o),
(1010,676,o),
(1010,640,cs),
(1010,556,l),
(926,556,ls),
(889,556,o),
(860,526,o),
(860,490,cs),
(860,454,o),
(889,424,o),
(926,424,cs)
);
}
);
userData = {
RMXScaler = {
height = 125;
verticalShift = -85;
width = 125;
};
};
width = 1200;
}
);
unicode = 1024024;
userData = {
RMXScaler = {
source = iconArrowClockwise.small;
};
};
}
{
color = 11;
glyphname = iconArrowDown;
layers = (
{
layerId = "B1F27B51-9973-4381-9301-4FE46FE1CA59";
shapes = (
{
closed = 1;
nodes = (
(474,58,o),
(486,58,o),
(494,66,cs),
(777,349,ls),
(785,357,o),
(785,369,o),
(777,377,cs),
(769,385,o),
(757,385,o),
(749,377,cs),
(500,128,l),
(500,600,ls),
(500,611,o),
(491,620,o),
(480,620,cs),
(469,620,o),
(460,611,o),
(460,600,cs),
(460,128,l),
(211,377,ls),
(204,385,o),
(191,385,o),
(183,377,cs),
(175,369,o),
(175,357,o),
(183,349,cs),
(466,66,ls)
);
}
);
width = 960;
},
{
layerId = "CD0E3B44-F66A-4791-B84C-A1128DC61275";
shapes = (
{
closed = 1;
nodes = (
(467,36,o),
(493,36,o),
(508,52,cs),
(791,335,ls),
(807,350,o),
(807,376,o),
(791,391,cs),
(776,407,o),
(750,407,o),
(735,391,cs),
(520,177,l),
(520,600,ls),
(520,622,o),
(502,640,o),
(480,640,cs),
(458,640,o),
(440,622,o),
(440,600,cs),
(440,177,l),
(225,391,ls),
(210,407,o),
(185,407,o),
(169,391,cs),
(153,376,o),
(153,350,o),
(169,335,cs),
(452,52,ls)
);
}
);
width = 960;
},
{
layerId = "5C20EF92-B63D-42A8-8878-93C2863E0093";
shapes = (
{
closed = 1;
nodes = (
(461,14,o),
(499,14,o),
(522,38,cs),
(805,320,ls),
(829,344,o),
(829,382,o),
(805,405,cs),
(782,429,o),
(744,429,o),
(720,405,cs),
(540,225,l),
(540,600,ls),
(540,633,o),
(513,660,o),
(480,660,cs),
(447,660,o),
(420,633,o),
(420,600,cs),
(420,225,l),
(240,405,ls),
(216,429,o),
(178,429,o),
(155,405,cs),
(131,382,o),
(131,344,o),
(155,320,cs),
(438,38,ls)
);
}
);
width = 960;
}
);
metricWidth = symbolBase;
unicode = 1024026;
}
{
color = 11;
glyphname = iconArrowDown.medium;
layers = (
{
layerId = "B1F27B51-9973-4381-9301-4FE46FE1CA59";
shapes = (
{
closed = 1;
nodes = (
(594,-11,o),
(608,-10,o),
(617,-1,cs),
(970,352,ls),
(979,361,o),
(981,375,o),
(971,385,cs),
(962,394,o),
(948,395,o),
(938,385,cs),
(624,71,l),
(624,665,ls),
(624,678,o),
(613,689,o),
(600,689,cs),
(588,689,o),
(577,678,o),
(577,665,cs),
(577,71,l),
(263,385,ls),
(254,394,o),
(239,394,o),
(230,385,cs),
(221,376,o),
(220,362,o),
(230,352,cs),
(584,-1,ls)
);
}
);
userData = {
RMXScaler = {
height = 125;
verticalShift = -85;
width = 125;
};
};
width = 1200;
},
{
layerId = "CD0E3B44-F66A-4791-B84C-A1128DC61275";
shapes = (
{
closed = 1;
nodes = (
(587,-32,o),
(613,-32,o),
(630,-15,cs),
(984,338,ls),
(1000,354,o),
(1002,381,o),
(985,399,cs),
(967,418,o),
(938,414,o),
(923,399,cs),
(643,120,l),
(643,665,ls),
(643,689,o),
(623,708,o),
(600,708,cs),
(577,708,o),
(557,689,o),
(557,665,cs),
(557,120,l),
(277,399,ls),
(260,416,o),
(233,416,o),
(216,399,cs),
(197,381,o),
(201,353,o),
(216,338,cs),
(570,-15,ls)
);
}
);
userData = {
RMXScaler = {
height = 125;
verticalShift = -85;
width = 125;
};
};
width = 1200;
},
{
layerId = "5C20EF92-B63D-42A8-8878-93C2863E0093";
shapes = (
{
closed = 1;
nodes = (
(582,-59,o),
(623,-54,o),
(646,-31,cs),
(1000,322,ls),
(1026,348,o),
(1026,389,o),
(1000,415,cs),
(972,443,o),
(930,438,o),
(907,415,cs),
(666,175,l),
(666,665,ls),
(666,701,o),
(636,731,o),
(600,731,cs),
(564,731,o),
(534,701,o),
(534,665,cs),
(534,175,l),
(293,415,ls),
(267,441,o),
(226,441,o),
(200,415,cs),
(175,390,o),
(173,349,o),
(200,322,cs),
(554,-31,ls)
);
}
);
userData = {
RMXScaler = {
height = 125;
verticalShift = -85;
width = 125;
};
};
width = 1200;
}
);
unicode = 1024026;
userData = {
RMXScaler = {
source = iconArrowDown.small;
};
};
}
{
color = 11;
glyphname = iconArrowLeft.medium;
layers = (
{
layerId = "B1F27B51-9973-4381-9301-4FE46FE1CA59";
metricWidth = "=baseSymbol.medium";
shapes = (
{
closed = 1;
nodes = (
(623,-40,o),
(637,-39,o),
(646,-30,cs),
(656,-20,o),
(655,-6,o),
(646,3,cs),
(332,316,l),
(925,316,ls),
(938,316,o),
(949,327,o),
(949,340,cs),
(949,353,o),
(938,364,o),
(925,364,cs),
(332,364,l),
(646,677,ls),
(655,686,o),
(656,700,o),
(646,710,cs),
(637,719,o),
(623,720,o),
(613,710,cs),
(259,356,ls),
(250,347,o),
(250,333,o),
(259,324,cs),
(613,-30,ls)
);
}
);
userData = {
RMXScaler = {
height = 125;
verticalShift = -85;
width = 125;
};
};
width = 1200;
},
{
layerId = "CD0E3B44-F66A-4791-B84C-A1128DC61275";
metricWidth = "=baseSymbol.medium";
shapes = (
{
closed = 1;
nodes = (
(615,-60,o),
(643,-62,o),
(660,-44,cs),
(677,-27,o),
(675,1,o),
(659,17,cs),
(380,297,l),
(925,297,ls),
(949,297,o),
(969,316,o),
(969,340,cs),
(969,364,o),
(949,383,o),
(925,383,cs),
(380,383,l),
(659,663,ls),
(675,679,o),
(677,706,o),
(660,724,cs),
(644,740,o),
(617,742,o),
(599,724,cs),
(245,370,ls),
(228,353,o),
(229,326,o),
(245,310,cs),
(599,-44,ls)
);
}
);
userData = {
RMXScaler = {
height = 125;
verticalShift = -85;
width = 125;
};
};
width = 1200;
},
{
layerId = "5C20EF92-B63D-42A8-8878-93C2863E0093";
metricWidth = "=baseSymbol.medium";
shapes = (
{
closed = 1;
nodes = (
(609,-87,o),
(651,-85,o),
(676,-60,cs),
(703,-32,o),
(699,9,o),
(675,33,cs),
(435,274,l),
(925,274,ls),
(962,274,o),
(991,304,o),
(991,340,cs),
(991,376,o),
(962,406,o),
(925,406,cs),
(435,406,l),
(675,647,ls),
(700,672,o),
(702,714,o),
(676,740,cs),
(648,769,o),
(605,763,o),
(582,740,cs),
(229,386,ls),
(203,360,o),
(204,319,o),
(229,294,cs),
(582,-60,ls)
);
}
);
userData = {
RMXScaler = {
height = 125;
verticalShift = -85;
width = 125;
};
};
width = 1200;
}
);
unicode = 1024027;
userData = {
RMXScaler = {
source = iconArrowLeft.small;
};
};
}
{
color = 11;
glyphname = iconArrowLongDown.medium;
layers = (
{
layerId = "B1F27B51-9973-4381-9301-4FE46FE1CA59";
metricWidth = "=symbolBase.medium";
shapes = (
{
closed = 1;
nodes = (
(605,-91,o),
(611,-89,o),
(616,-84,cs),
(899,199,ls),
(908,208,o),
(908,222,o),
(899,232,cs),
(891,240,o),
(876,241,o),
(866,231,cs),
(623,-11,l),
(623,748,ls),
(623,760,o),
(613,771,o),
(600,771,cs),
(587,771,o),
(576,760,o),
(576,748,cs),
(576,-11,l),
(334,231,ls),
(324,241,o),
(309,240,o),
(301,232,cs),
(292,223,o),
(292,208,o),
(301,199,cs),
(583,-84,ls),
(588,-89,o),
(594,-91,o),
(600,-91,cs)
);
}
);
userData = {
RMXScaler = {
height = 125;
verticalShift = -85;
width = 125;
};
};
width = 1200;
},
{
layerId = "CD0E3B44-F66A-4791-B84C-A1128DC61275";
metricWidth = "=symbolBase.medium";
shapes = (
{
closed = 1;
nodes = (
(611,-111,o),
(622,-107,o),
(630,-99,cs),
(914,185,ls),
(930,201,o),
(930,229,o),
(914,245,cs),
(895,265,o),
(867,260,o),
(852,245,cs),
(643,37,l),
(643,748,ls),
(643,771,o),
(624,791,o),
(600,791,cs),
(576,791,o),
(556,771,o),
(556,748,cs),
(556,37,l),
(348,245,ls),
(330,263,o),
(303,262,o),
(286,245,cs),
(270,229,o),
(270,201,o),
(286,185,cs),
(569,-99,ls),
(577,-107,o),
(588,-111,o),
(600,-111,cs)
);
}
);
userData = {
RMXScaler = {
height = 125;
verticalShift = -85;
width = 125;
};
};
width = 1200;
},
{
layerId = "5C20EF92-B63D-42A8-8878-93C2863E0093";
metricWidth = "=symbolBase.medium";
shapes = (
{
closed = 1;
nodes = (
(619,-134,o),
(635,-126,o),
(646,-115,cs),
(930,169,ls),
(955,194,o),
(955,236,o),
(930,261,cs),
(904,287,o),
(863,288,o),
(836,261,cs),
(666,91,l),
(666,748,ls),
(666,784,o),
(636,814,o),
(600,814,cs),
(564,814,o),
(534,784,o),
(534,748,cs),
(534,92,l),
(364,261,ls),
(337,288,o),
(295,286,o),
(270,261,cs),
(245,236,o),
(245,194,o),
(270,169,cs),
(554,-115,ls),
(565,-126,o),
(581,-134,o),
(600,-134,cs)
);
}
);
userData = {
RMXScaler = {
height = 125;
verticalShift = -85;
width = 125;
};
};
width = 1200;
}
);
unicode = 1024028;
userData = {
RMXScaler = {
source = iconArrowLongDown.small;
};
};
}
{
color = 11;
glyphname = iconArrowLongLeft.medium;
layers = (
{
layerId = "B1F27B51-9973-4381-9301-4FE46FE1CA59";
metricWidth = "=baseSymbol.medium";
shapes = (
{
closed = 1;
nodes = (
(489,299,l),
(606,659,l),
(722,299,l),
(816,299,l),
(986,815,l),
(867,815,l),
(767,479,l),
(651,815,l),
(559,815,l),
(445,479,l),
(345,815,l),
(225,815,l),
(396,299,l)
);
},
{
closed = 1;
nodes = (
(524,91,l),
(524,195,l),
(76,195,l),
(76,91,l)
);
},
{
closed = 1;
nodes = (
(545,-111,l),
(631,11,o),
(773,91,o),
(936,91,cs),
(1135,91,l),
(1135,195,l),
(936,195,ls),
(754,195,o),
(617,114,o),
(532,28,c),
(532,-111,l)
);
}
);
userData = {
RMXScaler = {
height = 125;
verticalShift = -85;
width = 125;
};
};
width = 1200;
},
{
layerId = "CD0E3B44-F66A-4791-B84C-A1128DC61275";
metricWidth = "=baseSymbol.medium";
shapes = (
{
closed = 1;
nodes = (
(489,299,l),
(606,659,l),
(722,299,l),
(816,299,l),
(986,815,l),
(867,815,l),
(767,479,l),
(651,815,l),
(559,815,l),
(445,479,l),
(345,815,l),
(225,815,l),
(396,299,l)
);
},
{
closed = 1;
nodes = (
(524,91,l),
(524,195,l),
(76,195,l),
(76,91,l)
);
},
{
closed = 1;
nodes = (
(545,-111,l),
(631,11,o),
(773,91,o),
(936,91,cs),
(1135,91,l),
(1135,195,l),
(936,195,ls),
(751,195,o),
(614,111,o),
(532,28,c),
(532,-111,l)
);
}
);
userData = {
RMXScaler = {
height = 125;
verticalShift = -85;
width = 125;
};
};
width = 1200;
},
{
layerId = "5C20EF92-B63D-42A8-8878-93C2863E0093";
metricWidth = "=baseSymbol.medium";
shapes = (
{
closed = 1;
nodes = (
(489,299,l),
(606,659,l),
(722,299,l),
(816,299,l),
(986,815,l),
(867,815,l),
(767,479,l),
(651,815,l),
(559,815,l),
(445,479,l),
(345,815,l),
(225,815,l),
(396,299,l)
);
},
{
closed = 1;
nodes = (
(524,91,l),
(524,195,l),
(76,195,l),
(76,91,l)
);
},
{
closed = 1;
nodes = (
(545,-111,l),
(631,11,o),
(773,91,o),
(936,91,cs),
(1135,91,l),
(1135,195,l),
(936,195,ls),
(751,195,o),
(614,111,o),
(532,28,c),
(532,-111,l)
);
}
);
userData = {
RMXScaler = {
height = 125;
verticalShift = -85;
width = 125;
};
};
width = 1200;
}
);
unicode = 1024029;
userData = {
RMXScaler = {
source = logoWepublic.small;
};
};
}
{
color = 11;
glyphname = iconArrowLongUp.medium;
layers = (
{
layerId = "B1F27B51-9973-4381-9301-4FE46FE1CA59";
metricWidth = "=symbolBase.medium";
shapes = (
{
closed = 1;
nodes = (
(613,-91,o),
(623,-80,o),
(623,-68,cs),
(623,691,l),
(866,449,ls),
(876,439,o),
(891,440,o),
(899,448,cs),
(910,460,o),
(906,474,o),
(899,481,cs),
(616,764,ls),
(611,769,o),
(605,771,o),
(600,771,cs),
(594,771,o),
(588,769,o),
(583,764,cs),
(301,481,ls),
(292,472,o),
(291,458,o),
(301,448,cs),
(309,440,o),
(324,439,o),
(334,449,cs),
(576,691,l),
(576,-68,ls),
(576,-80,o),
(587,-91,o),
(600,-91,cs)
);
}
);
userData = {
RMXScaler = {
height = 125;
verticalShift = -85;
width = 125;
};
};
width = 1200;
},
{
layerId = "CD0E3B44-F66A-4791-B84C-A1128DC61275";
metricWidth = "=symbolBase.medium";
shapes = (
{
closed = 1;
nodes = (
(624,-111,o),
(643,-91,o),
(643,-68,cs),
(643,644,l),
(852,435,ls),
(870,417,o),
(897,418,o),
(914,435,cs),
(930,452,o),
(930,479,o),
(914,495,cs),
(630,779,ls),
(622,787,o),
(611,791,o),
(600,791,cs),
(588,791,o),
(577,787,o),
(569,779,cs),
(286,495,ls),
(268,477,o),
(272,449,o),
(286,435,cs),
(303,418,o),
(330,417,o),
(348,435,cs),
(556,644,l),
(556,-68,ls),
(556,-91,o),
(576,-111,o),
(600,-111,cs)
);
}
);
userData = {
RMXScaler = {
height = 125;
verticalShift = -85;
width = 125;
};
};
width = 1200;
},
{
layerId = "5C20EF92-B63D-42A8-8878-93C2863E0093";
metricWidth = "=symbolBase.medium";
shapes = (
{
closed = 1;
nodes = (
(636,-134,o),
(666,-104,o),
(666,-68,cs),
(666,589,l),
(836,419,ls),
(861,394,o),
(903,392,o),
(930,419,cs),
(955,444,o),
(955,486,o),
(930,511,cs),
(646,795,ls),
(635,806,o),
(619,814,o),
(600,814,cs),
(581,814,o),
(565,806,o),
(554,795,cs),
(270,511,ls),
(245,486,o),
(245,444,o),
(270,419,cs),
(299,390,o),
(341,396,o),
(364,419,cs),
(534,588,l),
(534,-68,ls),
(534,-104,o),
(564,-134,o),
(600,-134,cs)
);
}
);
userData = {
RMXScaler = {
height = 125;
verticalShift = -85;
width = 125;
};
};
width = 1200;
}
);
unicode = 1024031;
userData = {
RMXScaler = {
source = iconArrowLongUp.small;
};
};
}
{
color = 11;
glyphname = iconArrowRight.medium;
layers = (
{
layerId = "B1F27B51-9973-4381-9301-4FE46FE1CA59";
shapes = (
{
closed = 1;
nodes = (
(563,-39,o),
(577,-40,o),
(587,-30,cs),
(941,324,ls),
(950,333,o),
(950,347,o),
(941,356,cs),
(587,710,ls),
(577,720,o),
(563,719,o),
(554,710,cs),
(544,700,o),
(545,686,o),
(554,677,cs),
(868,364,l),
(275,364,ls),
(262,364,o),
(251,353,o),
(251,340,cs),
(251,327,o),
(262,316,o),
(275,316,cs),
(868,316,l),
(554,3,ls),
(545,-6,o),
(544,-20,o),
(554,-30,cs)
);
}
);
userData = {
RMXScaler = {
height = 125;
verticalShift = -85;
width = 125;
};
};
width = 1200;
},
{
layerId = "CD0E3B44-F66A-4791-B84C-A1128DC61275";
shapes = (
{
closed = 1;
nodes = (
(557,-60,o),
(584,-62,o),
(602,-44,cs),
(956,310,ls),
(973,327,o),
(972,354,o),
(956,370,cs),
(602,724,ls),
(585,741,o),
(558,741,o),
(541,724,cs),
(524,707,o),
(524,680,o),
(541,663,cs),
(820,383,l),
(275,383,ls),
(252,383,o),
(232,364,o),
(232,340,cs),
(232,316,o),
(252,297,o),
(275,297,cs),
(820,297,l),
(541,17,ls),
(524,0,o),
(524,-27,o),
(541,-44,cs)
);
}
);
userData = {
RMXScaler = {
height = 125;
verticalShift = -85;
width = 125;
};
};
width = 1201;
},
{
layerId = "5C20EF92-B63D-42A8-8878-93C2863E0093";
shapes = (
{
closed = 1;
nodes = (
(550,-85,o),
(591,-87,o),
(618,-60,cs),
(971,294,ls),
(999,322,o),
(994,363,o),
(971,386,cs),
(618,740,ls),
(592,766,o),
(551,766,o),
(525,740,cs),
(497,712,o),
(502,670,o),
(525,647,cs),
(765,406,l),
(275,406,ls),
(239,406,o),
(209,376,o),
(209,340,cs),
(209,304,o),
(239,274,o),
(275,274,cs),
(765,274,l),
(525,33,ls),
(499,7,o),
(500,-35,o),
(525,-60,cs)
);
}
);
userData = {
RMXScaler = {
height = 125;
verticalShift = -85;
width = 125;
};
};
width = 1200;
}
);
unicode = 1024032;
userData = {
RMXScaler = {
source = iconArrowRight.small;
};
};
}
{
color = 11;
glyphname = iconArrowRight.small;
layers = (
{
layerId = "B1F27B51-9973-4381-9301-4FE46FE1CA59";
shapes = (
{
closed = 1;
nodes = (
(451,35,o),
(463,35,o),
(471,43,cs),
(754,326,ls),
(762,334,o),
(762,346,o),
(754,354,cs),
(471,637,ls),
(463,645,o),
(451,645,o),
(443,637,cs),
(435,629,o),
(435,617,o),
(443,609,cs),
(692,360,l),
(220,360,ls),
(209,360,o),
(200,351,o),
(200,340,cs),
(200,329,o),
(209,320,o),
(220,320,cs),
(692,320,l),
(443,71,ls),
(435,63,o),
(435,51,o),
(443,43,cs)
);
}
);
width = 960;
},
{
layerId = "CD0E3B44-F66A-4791-B84C-A1128DC61275";
shapes = (
{
closed = 1;
nodes = (
(444,13,o),
(470,13,o),
(485,29,cs),
(768,312,ls),
(784,327,o),
(784,353,o),
(768,368,cs),
(485,651,ls),
(470,667,o),
(444,667,o),
(429,651,cs),
(413,636,o),
(413,610,o),
(429,595,cs),
(643,380,l),
(220,380,ls),
(198,380,o),
(180,362,o),
(180,340,cs),
(180,318,o),
(198,300,o),
(220,300,cs),
(643,300,l),
(429,85,ls),
(413,70,o),
(413,44,o),
(429,29,cs)
);
}
);
width = 960;
},
{
layerId = "5C20EF92-B63D-42A8-8878-93C2863E0093";
shapes = (
{
closed = 1;
nodes = (
(438,-9,o),
(476,-9,o),
(500,15,cs),
(782,298,ls),
(806,321,o),
(806,359,o),
(782,382,cs),
(500,665,ls),
(476,689,o),
(438,689,o),
(415,665,cs),
(391,642,o),
(391,604,o),
(415,580,cs),
(595,400,l),
(220,400,ls),
(187,400,o),
(160,373,o),
(160,340,cs),
(160,307,o),
(187,280,o),
(220,280,cs),
(595,280,l),
(415,100,ls),
(391,76,o),
(391,38,o),
(415,15,cs)
);
}
);
width = 960;
}
);
metricWidth = symbolBase;
unicode = 1024032;
}
{
color = 11;
glyphname = iconArrowUp.medium;
layers = (
{
layerId = "B1F27B51-9973-4381-9301-4FE46FE1CA59";
shapes = (
{
closed = 1;
nodes = (
(613,-9,o),
(624,2,o),
(624,15,cs),
(624,609,l),
(938,295,ls),
(948,285,o),
(962,286,o),
(971,295,cs),
(981,305,o),
(979,319,o),
(970,328,cs),
(617,681,ls),
(607,691,o),
(593,690,o),
(584,681,cs),
(230,328,ls),
(220,318,o),
(221,304,o),
(230,295,cs),
(239,286,o),
(254,286,o),
(263,295,cs),
(577,609,l),
(577,15,ls),
(577,2,o),
(588,-9,o),
(600,-9,cs)
);
}
);
userData = {
RMXScaler = {
height = 125;
verticalShift = -85;
width = 125;
};
};
width = 1200;
},
{
layerId = "CD0E3B44-F66A-4791-B84C-A1128DC61275";
shapes = (
{
closed = 1;
nodes = (
(623,-28,o),
(643,-9,o),
(643,15,cs),
(643,560,l),
(923,281,ls),
(941,263,o),
(969,265,o),
(985,281,cs),
(1003,300,o),
(999,327,o),
(984,342,cs),
(630,695,ls),
(613,712,o),
(587,712,o),
(570,695,cs),
(216,342,ls),
(200,326,o),
(198,298,o),
(216,281,cs),
(236,262,o),
(262,266,o),
(277,281,cs),
(557,560,l),
(557,15,ls),
(557,-9,o),
(577,-28,o),
(600,-28,cs)
);
}
);
userData = {
RMXScaler = {
height = 125;
verticalShift = -85;
width = 125;
};
};
width = 1200;
},
{
layerId = "5C20EF92-B63D-42A8-8878-93C2863E0093";
shapes = (
{
closed = 1;
nodes = (
(636,-51,o),
(666,-21,o),
(666,15,cs),
(666,505,l),
(907,265,ls),
(933,239,o),
(975,240,o),
(1000,265,cs),
(1025,290,o),
(1027,331,o),
(1000,358,cs),
(646,711,ls),
(618,739,o),
(577,734,o),
(554,711,cs),
(200,358,ls),
(174,332,o),
(174,291,o),
(200,265,cs),
(226,239,o),
(267,239,o),
(293,265,cs),
(534,505,l),
(534,15,ls),
(534,-21,o),
(564,-51,o),
(600,-51,cs)
);
}
);
userData = {
RMXScaler = {
height = 125;
verticalShift = -85;
width = 125;
};
};
width = 1200;
}
);
unicode = 1024033;
userData = {
RMXScaler = {
source = iconArrowUp.small;
};
};
}
{
color = 11;
glyphname = iconCheck.medium;
layers = (
{
layerId = "B1F27B51-9973-4381-9301-4FE46FE1CA59";
metricWidth = "=symbolBase.medium";
shapes = (
{
closed = 1;
nodes = (
(484,25,o),
(489,28,o),
(493,32,cs),
(993,573,ls),
(1002,583,o),
(1002,599,o),
(991,608,cs),
(980,617,o),
(966,616,o),
(958,607,cs),
(474,83,l),
(242,315,ls),
(232,325,o),
(218,324,o),
(209,315,cs),
(200,306,o),
(200,291,o),
(209,282,cs),
(459,32,ls),
(464,27,o),
(470,25,o),
(475,25,cs)
);
}
);
userData = {
RMXScaler = {
height = 125;
verticalShift = -85;
width = 125;
};
};
width = 1200;
},
{
layerId = "CD0E3B44-F66A-4791-B84C-A1128DC61275";
metricWidth = "=symbolBase.medium";
shapes = (
{
closed = 1;
nodes = (
(486,5,o),
(498,9,o),
(507,19,cs),
(1007,561,ls),
(1023,578,o),
(1022,606,o),
(1004,622,cs),
(984,640,o),
(958,634,o),
(944,619,cs),
(474,111,l),
(256,329,ls),
(239,346,o),
(212,346,o),
(195,329,cs),
(178,312,o),
(177,285,o),
(195,267,cs),
(445,17,ls),
(453,9,o),
(465,5,o),
(476,5,cs)
);
}
);
userData = {
RMXScaler = {
height = 125;
verticalShift = -85;
width = 125;
};
};
width = 1200;
},
{
layerId = "5C20EF92-B63D-42A8-8878-93C2863E0093";
metricWidth = "=symbolBase.medium";
shapes = (
{
closed = 1;
nodes = (
(495,-17,o),
(511,-9,o),
(523,4,cs),
(1023,545,ls),
(1050,574,o),
(1045,617,o),
(1018,640,cs),
(991,663,o),
(951,661,o),
(927,635,cs),
(473,143,l),
(271,345,ls),
(245,371,o),
(204,370,o),
(179,345,cs),
(153,319,o),
(152,278,o),
(179,251,cs),
(429,1,ls),
(441,-11,o),
(459,-17,o),
(476,-17,cs)
);
}
);
userData = {
RMXScaler = {
height = 125;
verticalShift = -85;
width = 125;
};
};
width = 1200;
}
);
unicode = 1024034;
userData = {
RMXScaler = {
source = iconCheck.small;
};
};
}
{
color = 11;
glyphname = iconCheck.small;
layers = (
{
layerId = "B1F27B51-9973-4381-9301-4FE46FE1CA59";
shapes = (
{
closed = 1;
nodes = (
(386,87,o),
(391,89,o),
(395,93,cs),
(795,526,ls),
(803,534,o),
(802,547,o),
(794,555,cs),
(785,562,o),
(773,562,o),
(765,554,cs),
(379,136,l),
(194,321,ls),
(186,329,o),
(174,329,o),
(166,321,cs),
(158,313,o),
(158,300,o),
(166,293,cs),
(366,93,ls),
(370,89,o),
(375,87,o),
(380,87,cs)
);
}
);
width = 960;
},
{
layerId = "CD0E3B44-F66A-4791-B84C-A1128DC61275";
shapes = (
{
closed = 1;
nodes = (
(392,67,o),
(402,72,o),
(409,80,cs),
(809,513,ls),
(824,529,o),
(823,554,o),
(807,569,cs),
(791,584,o),
(766,583,o),
(751,567,cs),
(379,164,l),
(208,335,ls),
(193,351,o),
(167,351,o),
(152,335,cs),
(136,319,o),
(136,294,o),
(152,278,cs),
(352,78,ls),
(359,71,o),
(370,66,o),
(381,67,cs)
);
}
);
width = 960;
},
{
layerId = "5C20EF92-B63D-42A8-8878-93C2863E0093";
shapes = (
{
closed = 1;
nodes = (
(398,47,o),
(413,54,o),
(424,66,cs),
(824,499,ls),
(847,524,o),
(845,562,o),
(821,584,cs),
(796,607,o),
(758,605,o),
(736,581,cs),
(378,193,l),
(222,349,ls),
(199,373,o),
(161,373,o),
(138,349,cs),
(114,326,o),
(114,288,o),
(138,264,cs),
(338,64,ls),
(349,53,o),
(365,46,o),
(381,47,cs)
);
}
);
width = 960;
}
);
metricWidth = symbolBase;
unicode = 1024034;
}
{
color = 11;
glyphname = iconChevronDown.medium;
layers = (
{
layerId = "B1F27B51-9973-4381-9301-4FE46FE1CA59";
metricWidth = "=baseSymbol.medium";
shapes = (
{
closed = 1;
nodes = (
(594,114,o),
(608,115,o),
(617,124,cs),
(970,477,ls),
(979,486,o),
(981,500,o),
(971,510,cs),
(962,519,o),
(947,520,o),
(937,510,cs),
(600,173,l),
(263,510,ls),
(253,520,o),
(239,519,o),
(230,510,cs),
(220,500,o),
(221,486,o),
(230,477,cs),
(584,124,ls)
);
}
);
userData = {
RMXScaler = {
height = 125;
verticalShift = -85;
width = 125;
};
};
width = 1200;
},
{
layerId = "CD0E3B44-F66A-4791-B84C-A1128DC61275";
metricWidth = "=baseSymbol.medium";
shapes = (
{
closed = 1;
nodes = (
(587,93,o),
(613,93,o),
(630,110,cs),
(984,463,ls),
(1001,480,o),
(1001,507,o),
(984,524,cs),
(964,543,o),
(938,539,o),
(923,524,cs),
(600,202,l),
(277,524,ls),
(260,541,o),
(233,541,o),
(216,524,cs),
(199,507,o),
(199,480,o),
(216,463,cs),
(570,110,ls)
);
}
);
userData = {
RMXScaler = {
height = 125;
verticalShift = -85;
width = 125;
};
};
width = 1200;
},
{
layerId = "5C20EF92-B63D-42A8-8878-93C2863E0093";
metricWidth = "=baseSymbol.medium";
shapes = (
{
closed = 1;
nodes = (
(582,66,o),
(623,71,o),
(646,94,cs),
(1000,447,ls),
(1026,473,o),
(1026,514,o),
(1000,540,cs),
(974,566,o),
(933,566,o),
(907,540,cs),
(600,234,l),
(293,540,ls),
(265,568,o),
(223,563,o),
(200,540,cs),
(175,515,o),
(173,474,o),
(200,447,cs),
(554,94,ls)
);
}
);
userData = {
RMXScaler = {
height = 125;
verticalShift = -85;
width = 125;
};
};
width = 1200;
}
);
unicode = 1024035;
userData = {
RMXScaler = {
source = iconChevronDown.small;
};
};
}
{
color = 11;
glyphname = iconChevronLeft.medium;
layers = (
{
layerId = "B1F27B51-9973-4381-9301-4FE46FE1CA59";
metricWidth = "=symbolBase.medium";
shapes = (
{
closed = 1;
nodes = (
(698,-40,o),
(712,-39,o),
(721,-30,cs),
(731,-20,o),
(730,-6,o),
(721,3,cs),
(383,340,l),
(721,677,ls),
(730,686,o),
(730,701,o),
(721,710,cs),
(712,719,o),
(698,720,o),
(688,710,cs),
(334,356,ls),
(325,347,o),
(325,333,o),
(334,324,cs),
(688,-30,ls)
);
}
);
userData = {
RMXScaler = {
height = 125;
verticalShift = -85;
width = 125;
};
};
width = 1200;
},
{
layerId = "CD0E3B44-F66A-4791-B84C-A1128DC61275";
metricWidth = "=symbolBase.medium";
shapes = (
{
closed = 1;
nodes = (
(690,-60,o),
(718,-62,o),
(735,-44,cs),
(752,-27,o),
(750,1,o),
(734,17,cs),
(412,340,l),
(734,663,ls),
(750,679,o),
(752,706,o),
(735,724,cs),
(717,743,o),
(689,739,o),
(674,724,cs),
(320,370,ls),
(303,353,o),
(304,326,o),
(320,310,cs),
(674,-44,ls)
);
}
);
userData = {
RMXScaler = {
height = 125;
verticalShift = -85;
width = 125;
};
};
width = 1200;
},
{
layerId = "5C20EF92-B63D-42A8-8878-93C2863E0093";
metricWidth = "=symbolBase.medium";
shapes = (
{
closed = 1;
nodes = (
(684,-87,o),
(726,-85,o),
(751,-60,cs),
(778,-32,o),
(774,9,o),
(750,33,cs),
(444,340,l),
(750,647,ls),
(776,673,o),
(776,714,o),
(750,740,cs),
(725,765,o),
(684,767,o),
(657,740,cs),
(304,386,ls),
(278,360,o),
(279,319,o),
(304,294,cs),
(657,-60,ls)
);
}
);
userData = {
RMXScaler = {
height = 125;
verticalShift = -85;
width = 125;
};
};
width = 1200;
}
);
unicode = 1024036;
userData = {
RMXScaler = {
source = iconChevronLeft.small;
};
};
}
{
color = 11;
glyphname = iconChevronUp.medium;
layers = (
{
layerId = "B1F27B51-9973-4381-9301-4FE46FE1CA59";
metricWidth = "=baseSymbol.medium";
shapes = (
{
closed = 1;
nodes = (
(239,161,o),
(254,161,o),
(263,170,cs),
(600,507,l),
(938,170,ls),
(948,160,o),
(962,161,o),
(971,170,cs),
(981,180,o),
(979,194,o),
(970,203,cs),
(617,556,ls),
(607,566,o),
(593,565,o),
(584,556,cs),
(230,203,ls),
(220,193,o),
(221,179,o),
(230,170,cs)
);
}
);
userData = {
RMXScaler = {
height = 125;
verticalShift = -85;
width = 125;
};
};
width = 1200;
},
{
layerId = "CD0E3B44-F66A-4791-B84C-A1128DC61275";
metricWidth = "=baseSymbol.medium";
shapes = (
{
closed = 1;
nodes = (
(236,137,o),
(262,141,o),
(277,156,cs),
(600,478,l),
(923,156,ls),
(941,138,o),
(969,140,o),
(985,156,cs),
(1003,175,o),
(999,202,o),
(984,217,cs),
(630,570,ls),
(613,587,o),
(587,587,o),
(570,570,cs),
(216,217,ls),
(200,201,o),
(198,173,o),
(216,156,cs)
);
}
);
userData = {
RMXScaler = {
height = 125;
verticalShift = -85;
width = 125;
};
};
width = 1200;
},
{
layerId = "5C20EF92-B63D-42A8-8878-93C2863E0093";
metricWidth = "=baseSymbol.medium";
shapes = (
{
closed = 1;
nodes = (
(226,114,o),
(267,114,o),
(293,140,cs),
(600,446,l),
(907,140,ls),
(933,114,o),
(975,115,o),
(1000,140,cs),
(1025,165,o),
(1027,206,o),
(1000,233,cs),
(646,586,ls),
(618,614,o),
(577,609,o),
(554,586,cs),
(200,233,ls),
(174,207,o),
(174,166,o),
(200,140,cs)
);
}
);
userData = {
RMXScaler = {
height = 125;
verticalShift = -85;
width = 125;
};
};
width = 1200;
}
);
unicode = 1024038;
userData = {
RMXScaler = {
source = iconChevronUp.small;
};
};
}
{
color = 11;
glyphname = iconCircleCheck.medium;
layers = (
{
layerId = "B1F27B51-9973-4381-9301-4FE46FE1CA59";
metricWidth = "=baseSymbol.medium";
shapes = (
{
closed = 1;
nodes = (
(876,-160,o),
(1100,64,o),
(1100,340,cs),
(1100,616,o),
(876,840,o),
(600,840,cs),
(324,840,o),
(100,616,o),
(100,340,cs),
(100,64,o),
(324,-160,o),
(600,-160,cs)
);
},
{
closed = 1;
nodes = (
(350,-113,o),
(147,90,o),
(147,340,cs),
(147,590,o),
(350,793,o),
(600,793,cs),
(850,793,o),
(1053,590,o),
(1053,340,cs),
(1053,90,o),
(850,-113,o),
(600,-113,cs)
);
},
{
closed = 1;
nodes = (
(517,139,o),
(531,138,o),
(541,148,cs),
(842,449,ls),
(851,458,o),
(852,472,o),
(842,482,cs),
(833,491,o),
(819,492,o),
(809,482,cs),
(525,198,l),
(391,331,ls),
(381,341,o),
(367,340,o),
(358,331,cs),
(348,321,o),
(349,307,o),
(358,298,cs),
(508,148,ls)
);
}
);
userData = {
RMXScaler = {
height = 125;
verticalShift = -85;
width = 125;
};
};
width = 1200;
},
{
layerId = "CD0E3B44-F66A-4791-B84C-A1128DC61275";
metricWidth = "=baseSymbol.medium";
shapes = (
{
closed = 1;
nodes = (
(876,-160,o),
(1100,64,o),
(1100,340,cs),
(1100,616,o),
(876,840,o),
(600,840,cs),
(324,840,o),
(100,616,o),
(100,340,cs),
(100,64,o),
(324,-160,o),
(600,-160,cs)
);
},
{
closed = 1;
nodes = (
(372,-73,o),
(187,112,o),
(187,340,cs),
(187,568,o),
(372,753,o),
(600,753,cs),
(828,753,o),
(1013,568,o),
(1013,340,cs),
(1013,112,o),
(828,-73,o),
(600,-73,cs)
);
},
{
closed = 1;
nodes = (
(512,118,o),
(538,118,o),
(555,135,cs),
(855,435,ls),
(871,451,o),
(873,478,o),
(856,495,cs),
(838,514,o),
(810,510,o),
(795,495,cs),
(525,227,l),
(405,345,ls),
(389,361,o),
(361,363,o),
(344,345,cs),
(326,326,o),
(331,299,o),
(345,285,cs),
(495,135,ls)
);
}
);
userData = {
RMXScaler = {
height = 125;
verticalShift = -85;
width = 125;
};
};
width = 1200;
},
{
layerId = "5C20EF92-B63D-42A8-8878-93C2863E0093";
metricWidth = "=baseSymbol.medium";
shapes = (
{
closed = 1;
nodes = (
(876,-160,o),
(1100,64,o),
(1100,340,cs),
(1100,616,o),
(876,840,o),
(600,840,cs),
(324,840,o),
(100,616,o),
(100,340,cs),
(100,64,o),
(324,-160,o),
(600,-160,cs)
);
},
{
closed = 1;
nodes = (
(396,-28,o),
(232,136,o),
(232,340,cs),
(232,544,o),
(396,708,o),
(600,708,cs),
(804,708,o),
(968,544,o),
(968,340,cs),
(968,136,o),
(804,-28,o),
(600,-28,cs)
);
},
{
closed = 1;
nodes = (
(520,110,o),
(560,108,o),
(587,135,cs),
(855,403,ls),
(880,428,o),
(881,469,o),
(856,495,cs),
(829,523,o),
(786,518,o),
(763,495,cs),
(541,275,l),
(437,377,ls),
(408,405,o),
(367,400,o),
(344,377,cs),
(318,351,o),
(321,309,o),
(345,285,cs),
(495,135,ls)
);
}
);
userData = {
RMXScaler = {
height = 125;
verticalShift = -85;
width = 125;
};
};
width = 1200;
}
);
unicode = 1024039;
userData = {
RMXScaler = {
source = iconCircleCheck.small;
};
};
}
{
color = 11;
glyphname = iconCircleCheck.small;
layers = (
{
layerId = "B1F27B51-9973-4381-9301-4FE46FE1CA59";
shapes = (
{
closed = 1;
nodes = (
(701,-60,o),
(880,119,o),
(880,340,cs),
(880,561,o),
(701,740,o),
(480,740,cs),
(259,740,o),
(80,561,o),
(80,340,cs),
(80,119,o),
(259,-60,o),
(480,-60,cs)
);
},
{
closed = 1;
nodes = (
(281,-20,o),
(120,141,o),
(120,340,cs),
(120,539,o),
(281,700,o),
(480,700,cs),
(679,700,o),
(840,539,o),
(840,340,cs),
(840,141,o),
(679,-20,o),
(480,-20,cs)
);
},
{
closed = 1;
nodes = (
(414,178,o),
(426,178,o),
(434,186,cs),
(674,426,ls),
(682,434,o),
(682,446,o),
(674,454,cs),
(666,462,o),
(654,462,o),
(646,454,cs),
(420,228,l),
(314,334,ls),
(306,342,o),
(294,342,o),
(286,334,cs),
(278,326,o),
(278,314,o),
(286,306,cs),
(406,186,ls)
);
}
);
width = 960;
},
{
layerId = "CD0E3B44-F66A-4791-B84C-A1128DC61275";
shapes = (
{
closed = 1;
nodes = (
(701,-60,o),
(880,119,o),
(880,340,cs),
(880,561,o),
(701,740,o),
(480,740,cs),
(259,740,o),
(80,561,o),
(80,340,cs),
(80,119,o),
(259,-60,o),
(480,-60,cs)
);
},
{
closed = 1;
nodes = (
(303,20,o),
(160,163,o),
(160,340,cs),
(160,517,o),
(303,660,o),
(480,660,cs),
(657,660,o),
(800,517,o),
(800,340,cs),
(800,163,o),
(657,20,o),
(480,20,cs)
);
},
{
closed = 1;
nodes = (
(407,156,o),
(433,156,o),
(448,172,cs),
(688,412,ls),
(704,427,o),
(704,453,o),
(688,468,cs),
(673,484,o),
(647,484,o),
(632,468,cs),
(420,257,l),
(328,348,ls),
(313,364,o),
(287,364,o),
(272,348,cs),
(256,333,o),
(256,307,o),
(272,292,cs),
(392,172,ls)
);
}
);
width = 960;
},
{
layerId = "5C20EF92-B63D-42A8-8878-93C2863E0093";
shapes = (
{
closed = 1;
nodes = (
(701,-60,o),
(880,119,o),
(880,340,cs),
(880,561,o),
(701,740,o),
(480,740,cs),
(259,740,o),
(80,561,o),
(80,340,cs),
(80,119,o),
(259,-60,o),
(480,-60,cs)
);
},
{
closed = 1;
nodes = (
(325,60,o),
(200,185,o),
(200,340,cs),
(200,495,o),
(325,620,o),
(480,620,cs),
(635,620,o),
(760,495,o),
(760,340,cs),
(760,185,o),
(635,60,o),
(480,60,cs)
);
},
{
closed = 1;
nodes = (
(421,154,o),
(459,154,o),
(482,178,cs),
(682,378,ls),
(706,401,o),
(706,439,o),
(682,462,cs),
(659,486,o),
(621,486,o),
(598,462,cs),
(440,305,l),
(362,382,ls),
(339,406,o),
(301,406,o),
(278,382,cs),
(254,359,o),
(254,321,o),
(278,298,cs),
(398,178,ls)
);
}
);
width = 960;
}
);
metricWidth = symbolBase;
unicode = 1024039;
}
{
color = 11;
glyphname = iconCircleCheckFill.small;
layers = (
{
layerId = "B1F27B51-9973-4381-9301-4FE46FE1CA59";
shapes = (
{
closed = 1;
nodes = (
(701,-60,o),
(880,119,o),
(880,340,cs),
(880,561,o),
(701,740,o),
(480,740,cs),
(259,740,o),
(80,561,o),
(80,340,cs),
(80,119,o),
(259,-60,o),
(480,-60,cs)
);
},
{
closed = 1;
nodes = (
(286,306,ls),
(278,314,o),
(278,326,o),
(286,334,cs),
(294,342,o),
(306,342,o),
(314,334,cs),
(420,228,l),
(646,454,ls),
(654,462,o),
(666,462,o),
(674,454,cs),
(682,446,o),
(682,434,o),
(674,426,cs),
(434,186,ls),
(426,178,o),
(414,178,o),
(406,186,cs)
);
}
);
width = 960;
},
{
layerId = "CD0E3B44-F66A-4791-B84C-A1128DC61275";
shapes = (
{
closed = 1;
nodes = (
(701,-60,o),
(880,119,o),
(880,340,cs),
(880,561,o),
(701,740,o),
(480,740,cs),
(259,740,o),
(80,561,o),
(80,340,cs),
(80,119,o),
(259,-60,o),
(480,-60,cs)
);
},
{
closed = 1;
nodes = (
(272,292,ls),
(256,307,o),
(256,333,o),
(272,348,cs),
(287,364,o),
(313,364,o),
(328,348,cs),
(420,257,l),
(632,468,ls),
(647,484,o),
(673,484,o),
(688,468,cs),
(704,453,o),
(704,427,o),
(688,412,cs),
(448,172,ls),
(433,156,o),
(407,156,o),
(392,172,cs)
);
}
);
width = 960;
},
{
layerId = "5C20EF92-B63D-42A8-8878-93C2863E0093";
shapes = (
{
closed = 1;
nodes = (
(701,-60,o),
(880,119,o),
(880,340,cs),
(880,561,o),
(701,740,o),
(480,740,cs),
(259,740,o),
(80,561,o),
(80,340,cs),
(80,119,o),
(259,-60,o),
(480,-60,cs)
);
},
{
closed = 1;
nodes = (
(258,278,ls),
(234,301,o),
(234,339,o),
(258,362,cs),
(281,386,o),
(319,386,o),
(342,362,cs),
(420,285,l),
(618,482,ls),
(641,506,o),
(679,506,o),
(702,482,cs),
(726,459,o),
(726,421,o),
(702,398,cs),
(462,158,ls),
(439,134,o),
(401,134,o),
(378,158,cs)
);
}
);
width = 960;
}
);
metricWidth = symbolBase;
unicode = 1024040;
}
{
color = 11;
glyphname = iconClose.medium;
layers = (
{
layerId = "B1F27B51-9973-4381-9301-4FE46FE1CA59";
metricWidth = "=symbolBase.medium";
shapes = (
{
closed = 1;
nodes = (
(268,-10,o),
(282,-11,o),
(292,-1,cs),
(600,307,l),
(909,-1,ls),
(919,-11,o),
(933,-10,o),
(942,-1,cs),
(951,8,o),
(951,22,o),
(942,31,cs),
(633,340,l),
(942,649,ls),
(951,658,o),
(951,672,o),
(942,681,cs),
(933,690,o),
(919,691,o),
(909,681,cs),
(600,373,l),
(292,681,ls),
(282,691,o),
(268,690,o),
(259,681,cs),
(250,672,o),
(250,658,o),
(259,649,cs),
(568,340,l),
(259,31,ls),
(250,22,o),
(250,8,o),
(259,-1,cs)
);
}
);
userData = {
RMXScaler = {
height = 125;
verticalShift = -85;
width = 125;
};
};
width = 1200;
},
{
layerId = "CD0E3B44-F66A-4791-B84C-A1128DC61275";
metricWidth = "=symbolBase.medium";
shapes = (
{
closed = 1;
nodes = (
(262,-33,o),
(290,-31,o),
(306,-15,cs),
(600,278,l),
(895,-15,ls),
(911,-31,o),
(939,-33,o),
(956,-15,cs),
(973,2,o),
(972,29,o),
(956,45,cs),
(662,340,l),
(956,635,ls),
(972,651,o),
(973,678,o),
(956,695,cs),
(940,711,o),
(913,713,o),
(895,695,cs),
(600,402,l),
(306,695,ls),
(290,711,o),
(263,713,o),
(245,696,cs),
(229,680,o),
(227,653,o),
(245,635,cs),
(539,340,l),
(245,45,ls),
(229,29,o),
(228,1,o),
(245,-16,cs)
);
}
);
userData = {
RMXScaler = {
height = 125;
verticalShift = -85;
width = 125;
};
};
width = 1200;
},
{
layerId = "5C20EF92-B63D-42A8-8878-93C2863E0093";
metricWidth = "=symbolBase.medium";
shapes = (
{
closed = 1;
nodes = (
(254,-56,o),
(295,-57,o),
(321,-31,cs),
(600,246,l),
(879,-31,ls),
(904,-56,o),
(946,-58,o),
(972,-31,cs),
(999,-3,o),
(994,38,o),
(971,61,cs),
(694,340,l),
(971,619,ls),
(996,644,o),
(997,685,o),
(972,711,cs),
(948,735,o),
(907,739,o),
(879,711,cs),
(600,434,l),
(321,711,ls),
(295,737,o),
(254,736,o),
(229,711,cs),
(204,686,o),
(203,645,o),
(229,619,cs),
(507,340,l),
(229,61,ls),
(203,35,o),
(204,-6,o),
(229,-31,cs)
);
}
);
userData = {
RMXScaler = {
height = 125;
verticalShift = -85;
width = 125;
};
};
width = 1200;
}
);
unicode = 1024041;
userData = {
RMXScaler = {
source = iconClose.small;
};
};
}
{
color = 11;
glyphname = iconCopy.medium;
layers = (
{
layerId = "B1F27B51-9973-4381-9301-4FE46FE1CA59";
metricWidth = "=symbolBase.medium";
shapes = (
{
closed = 1;
nodes = (
(888,-96,ls),
(901,-96,o),
(912,-85,o),
(912,-73,cs),
(912,628,ls),
(912,641,o),
(901,652,o),
(888,652,cs),
(188,652,ls),
(175,652,o),
(164,641,o),
(164,628,cs),
(164,-73,ls),
(164,-85,o),
(175,-96,o),
(188,-96,cs)
);
},
{
closed = 1;
nodes = (
(211,605,l),
(865,605,l),
(865,-49,l),
(211,-49,l)
);
},
{
closed = 1;
nodes = (
(1050,154,o),
(1061,164,o),
(1061,178,cs),
(1061,778,ls),
(1061,790,o),
(1050,801,o),
(1038,801,cs),
(438,801,ls),
(425,801,o),
(414,791,o),
(414,778,cs),
(414,764,o),
(425,754,o),
(438,754,cs),
(1014,754,l),
(1014,178,ls),
(1014,164,o),
(1025,154,o),
(1038,154,cs)
);
}
);
userData = {
RMXScaler = {
height = 125;
verticalShift = -85;
width = 125;
};
};
width = 1200;
},
{
layerId = "CD0E3B44-F66A-4791-B84C-A1128DC61275";
metricWidth = "=symbolBase.medium";
shapes = (
{
closed = 1;
nodes = (
(887,-116,ls),
(911,-116,o),
(931,-96,o),
(931,-73,cs),
(931,628,ls),
(931,651,o),
(911,671,o),
(887,671,cs),
(187,671,ls),
(164,671,o),
(144,651,o),
(144,628,cs),
(144,-73,ls),
(144,-96,o),
(164,-116,o),
(187,-116,cs)
);
},
{
closed = 1;
nodes = (
(231,584,l),
(844,584,l),
(844,-29,l),
(231,-29,l)
);
},
{
closed = 1;
nodes = (
(1061,134,o),
(1081,154,o),
(1081,178,cs),
(1081,778,ls),
(1081,801,o),
(1061,821,o),
(1037,821,cs),
(437,821,ls),
(413,821,o),
(394,801,o),
(394,778,cs),
(394,754,o),
(413,734,o),
(437,734,cs),
(994,734,l),
(994,178,ls),
(994,154,o),
(1013,134,o),
(1037,134,cs)
);
}
);
userData = {
RMXScaler = {
height = 125;
verticalShift = -85;
width = 125;
};
};
width = 1200;
},
{
layerId = "5C20EF92-B63D-42A8-8878-93C2863E0093";
metricWidth = "=symbolBase.medium";
shapes = (
{
closed = 1;
nodes = (
(856,-139,ls),
(892,-139,o),
(922,-109,o),
(922,-73,cs),
(922,596,ls),
(922,632,o),
(892,662,o),
(856,662,cs),
(188,662,ls),
(152,662,o),
(122,632,o),
(122,596,cs),
(122,-73,ls),
(122,-109,o),
(152,-139,o),
(188,-139,cs)
);
},
{
closed = 1;
nodes = (
(254,530,l),
(790,530,l),
(790,-7,l),
(254,-7,l)
);
},
{
closed = 1;
nodes = (
(1074,112,o),
(1104,141,o),
(1104,178,cs),
(1104,778,ls),
(1104,814,o),
(1074,844,o),
(1038,844,cs),
(438,844,ls),
(402,844,o),
(372,814,o),
(372,778,cs),
(372,741,o),
(402,712,o),
(438,712,cs),
(972,712,l),
(972,178,ls),
(972,141,o),
(1002,112,o),
(1038,112,cs)
);
}
);
userData = {
RMXScaler = {
height = 125;
verticalShift = -85;
width = 125;
};
};
width = 1200;
}
);
unicode = 1024042;
userData = {
RMXScaler = {
source = iconCopy.small;
};
};
}
{
color = 11;
glyphname = iconDivider;
layers = (
{
layerId = "B1F27B51-9973-4381-9301-4FE46FE1CA59";
shapes = (
{
closed = 1;
nodes = (
(486,10,o),
(490,14,o),
(490,20,cs),
(490,660,ls),
(490,666,o),
(486,670,o),
(480,670,cs),
(474,670,o),
(470,666,o),
(470,660,cs),
(470,20,ls),
(470,14,o),
(474,10,o),
(480,10,cs)
);
}
);
width = 960;
},
{
layerId = "CD0E3B44-F66A-4791-B84C-A1128DC61275";
shapes = (
{
closed = 1;
nodes = (
(491,0,o),
(500,9,o),
(500,20,cs),
(500,660,ls),
(500,671,o),
(491,680,o),
(480,680,cs),
(469,680,o),
(460,671,o),
(460,660,cs),
(460,20,ls),
(460,9,o),
(469,0,o),
(480,0,cs)
);
}
);
width = 960;
},
{
layerId = "5C20EF92-B63D-42A8-8878-93C2863E0093";
shapes = (
{
closed = 1;
nodes = (
(502,-20,o),
(520,-2,o),
(520,20,cs),
(520,660,ls),
(520,682,o),
(502,700,o),
(480,700,cs),
(458,700,o),
(440,682,o),
(440,660,cs),
(440,20,ls),
(440,-2,o),
(458,-20,o),
(480,-20,cs)
);
}
);
width = 960;
}
);
metricWidth = symbolBase;
unicode = 1024043;
}
{
color = 11;
glyphname = iconDivider.medium;
layers = (
{
layerId = "B1F27B51-9973-4381-9301-4FE46FE1CA59";
metricWidth = "=symbolBase.medium";
shapes = (
{
closed = 1;
nodes = (
(606,-72,o),
(611,-67,o),
(611,-60,cs),
(611,740,ls),
(611,747,o),
(606,752,o),
(600,752,cs),
(593,752,o),
(588,747,o),
(588,740,cs),
(588,-60,ls),
(588,-67,o),
(593,-72,o),
(600,-72,cs)
);
}
);
userData = {
RMXScaler = {
height = 125;
verticalShift = -85;
width = 125;
};
};
width = 1200;
},
{
layerId = "CD0E3B44-F66A-4791-B84C-A1128DC61275";
metricWidth = "=symbolBase.medium";
shapes = (
{
closed = 1;
nodes = (
(611,-82,o),
(621,-72,o),
(621,-60,cs),
(621,740,ls),
(621,752,o),
(611,762,o),
(600,762,cs),
(588,762,o),
(578,752,o),
(578,740,cs),
(578,-60,ls),
(578,-72,o),
(588,-82,o),
(600,-82,cs)
);
}
);
userData = {
RMXScaler = {
height = 125;
verticalShift = -85;
width = 125;
};
};
width = 1200;
},
{
layerId = "5C20EF92-B63D-42A8-8878-93C2863E0093";
metricWidth = "=symbolBase.medium";
shapes = (
{
closed = 1;
nodes = (
(623,-101,o),
(641,-83,o),
(641,-60,cs),
(641,740,ls),
(641,763,o),
(623,781,o),
(600,781,cs),
(577,781,o),
(559,763,o),
(559,740,cs),
(559,-60,ls),
(559,-83,o),
(577,-101,o),
(600,-101,cs)
);
}
);
userData = {
RMXScaler = {
height = 125;
verticalShift = -85;
width = 125;
};
};
width = 1200;
}
);
unicode = 1024043;
userData = {
RMXScaler = {
source = iconDivider.small;
};
};
}
{
color = 11;
glyphname = iconDot2.medium;
layers = (
{
layerId = "B1F27B51-9973-4381-9301-4FE46FE1CA59";
metricWidth = "=baseSymbol.medium";
shapes = (
{
closed = 1;
nodes = (
(710,140,o),
(800,230,o),
(800,340,cs),
(800,450,o),
(710,540,o),
(600,540,cs),
(490,540,o),
(400,450,o),
(400,340,cs),
(400,230,o),
(490,140,o),
(600,140,cs)
);
}
);
userData = {
RMXScaler = {
height = 125;
verticalShift = -85;
width = 125;
};
};
width = 1200;
},
{
layerId = "CD0E3B44-F66A-4791-B84C-A1128DC61275";
metricWidth = "=baseSymbol.medium";
shapes = (
{
closed = 1;
nodes = (
(710,140,o),
(800,230,o),
(800,340,cs),
(800,450,o),
(710,540,o),
(600,540,cs),
(490,540,o),
(400,450,o),
(400,340,cs),
(400,230,o),
(490,140,o),
(600,140,cs)
);
}
);
userData = {
RMXScaler = {
height = 125;
verticalShift = -85;
width = 125;
};
};
width = 1200;
},
{
layerId = "5C20EF92-B63D-42A8-8878-93C2863E0093";
metricWidth = "=baseSymbol.medium";
shapes = (
{
closed = 1;
nodes = (
(710,140,o),
(800,230,o),
(800,340,cs),
(800,450,o),
(710,540,o),
(600,540,cs),
(490,540,o),
(400,450,o),
(400,340,cs),
(400,230,o),
(490,140,o),
(600,140,cs)
);
}
);
userData = {
RMXScaler = {
height = 125;
verticalShift = -85;
width = 125;
};
};
width = 1200;
}
);
unicode = 1024044;
userData = {
RMXScaler = {
source = iconDot2.small;
};
};
}
{
color = 11;
glyphname = iconExchangeRate;
layers = (
{
layerId = "B1F27B51-9973-4381-9301-4FE46FE1CA59";
shapes = (
{
closed = 1;
nodes = (
(701,-60,o),
(880,119,o),
(880,340,cs),
(880,561,o),
(701,740,o),
(480,740,cs),
(259,740,o),
(80,561,o),
(80,340,cs),
(80,119,o),
(259,-60,o),
(480,-60,cs)
);
},
{
closed = 1;
nodes = (
(281,-20,o),
(120,141,o),
(120,340,cs),
(120,539,o),
(281,700,o),
(480,700,cs),
(679,700,o),
(840,539,o),
(840,340,cs),
(840,141,o),
(679,-20,o),
(480,-20,cs)
);
},
{
closed = 1;
nodes = (
(394,118,o),
(406,118,o),
(414,126,cs),
(422,134,o),
(422,146,o),
(414,154,cs),
(328,240,l),
(414,326,ls),
(422,334,o),
(422,346,o),
(414,354,cs),
(406,362,o),
(394,362,o),
(386,354,cs),
(286,254,ls),
(278,246,o),
(278,234,o),
(286,226,cs),
(386,126,ls)
);
},
{
closed = 1;
nodes = (
(640,220,ls),
(651,220,o),
(660,229,o),
(660,240,cs),
(660,251,o),
(651,260,o),
(640,260,cs),
(330,260,ls),
(319,260,o),
(310,251,o),
(310,240,cs),
(310,229,o),
(319,220,o),
(330,220,cs)
);
},
{
closed = 1;
nodes = (
(610,420,ls),
(621,420,o),
(630,429,o),
(630,440,cs),
(630,451,o),
(621,460,o),
(610,460,cs),
(300,460,ls),
(289,460,o),
(280,451,o),
(280,440,cs),
(280,429,o),
(289,420,o),
(300,420,cs)
);
},
{
closed = 1;
nodes = (
(534,318,o),
(546,318,o),
(554,326,cs),
(654,426,ls),
(662,434,o),
(662,446,o),
(654,454,cs),
(554,554,ls),
(546,562,o),
(534,562,o),
(526,554,cs),
(518,546,o),
(518,534,o),
(526,526,cs),
(612,440,l),
(526,354,ls),
(518,346,o),
(518,334,o),
(526,326,cs)
);
}
);
width = 960;
},
{
layerId = "CD0E3B44-F66A-4791-B84C-A1128DC61275";
shapes = (
{
closed = 1;
nodes = (
(701,-60,o),
(880,119,o),
(880,340,cs),
(880,561,o),
(701,740,o),
(480,740,cs),
(259,740,o),
(80,561,o),
(80,340,cs),
(80,119,o),
(259,-60,o),
(480,-60,cs)
);
},
{
closed = 1;
nodes = (
(303,20,o),
(160,163,o),
(160,340,cs),
(160,517,o),
(303,660,o),
(480,660,cs),
(657,660,o),
(800,517,o),
(800,340,cs),
(800,163,o),
(657,20,o),
(480,20,cs)
);
},
{
closed = 1;
nodes = (
(401,117,o),
(419,117,o),
(431,129,cs),
(443,141,o),
(443,159,o),
(431,171,cs),
(362,240,l),
(431,309,ls),
(443,321,o),
(443,339,o),
(431,351,cs),
(419,363,o),
(401,363,o),
(389,351,cs),
(299,261,ls),
(287,249,o),
(287,231,o),
(299,219,cs),
(389,129,ls)
);
},
{
closed = 1;
nodes = (
(640,210,ls),
(657,210,o),
(670,223,o),
(670,240,cs),
(670,257,o),
(657,270,o),
(640,270,cs),
(350,270,ls),
(333,270,o),
(320,257,o),
(320,240,cs),
(320,223,o),
(333,210,o),
(350,210,cs)
);
},
{
closed = 1;
nodes = (
(610,410,ls),
(627,410,o),
(640,423,o),
(640,440,cs),
(640,457,o),
(627,470,o),
(610,470,cs),
(320,470,ls),
(303,470,o),
(290,457,o),
(290,440,cs),
(290,423,o),
(303,410,o),
(320,410,cs)
);
},
{
closed = 1;
nodes = (
(541,317,o),
(559,317,o),
(571,329,cs),
(661,419,ls),
(673,431,o),
(673,449,o),
(661,461,cs),
(571,551,ls),
(559,563,o),
(541,563,o),
(529,551,cs),
(517,539,o),
(517,521,o),
(529,509,cs),
(598,440,l),
(529,371,ls),
(517,359,o),
(517,341,o),
(529,329,cs)
);
}
);
width = 960;
},
{
layerId = "5C20EF92-B63D-42A8-8878-93C2863E0093";
shapes = (
{
closed = 1;
nodes = (
(701,-60,o),
(880,119,o),
(880,340,cs),
(880,561,o),
(701,740,o),
(480,740,cs),
(259,740,o),
(80,561,o),
(80,340,cs),
(80,119,o),
(259,-60,o),
(480,-60,cs)
);
},
{
closed = 1;
nodes = (
(325,60,o),
(200,185,o),
(200,340,cs),
(200,495,o),
(325,620,o),
(480,620,cs),
(635,620,o),
(760,495,o),
(760,340,cs),
(760,185,o),
(635,60,o),
(480,60,cs)
);
},
{
closed = 1;
nodes = (
(387,116,o),
(413,116,o),
(428,132,cs),
(444,147,o),
(444,173,o),
(428,188,cs),
(377,240,l),
(428,292,ls),
(444,307,o),
(444,333,o),
(428,348,cs),
(413,364,o),
(387,364,o),
(372,348,cs),
(292,268,ls),
(276,253,o),
(276,227,o),
(292,212,cs),
(372,132,ls)
);
},
{
closed = 1;
nodes = (
(620,200,ls),
(642,200,o),
(660,218,o),
(660,240,cs),
(660,262,o),
(642,280,o),
(620,280,cs),
(350,280,ls),
(328,280,o),
(310,262,o),
(310,240,cs),
(310,218,o),
(328,200,o),
(350,200,cs)
);
},
{
closed = 1;
nodes = (
(610,400,ls),
(632,400,o),
(650,418,o),
(650,440,cs),
(650,462,o),
(632,480,o),
(610,480,cs),
(320,480,ls),
(298,480,o),
(280,462,o),
(280,440,cs),
(280,418,o),
(298,400,o),
(320,400,cs)
);
},
{
closed = 1;
nodes = (
(547,316,o),
(573,316,o),
(588,332,cs),
(668,412,ls),
(684,427,o),
(684,453,o),
(668,468,cs),
(588,548,ls),
(573,564,o),
(547,564,o),
(532,548,cs),
(516,533,o),
(516,507,o),
(532,492,cs),
(583,440,l),
(532,388,ls),
(516,373,o),
(516,347,o),
(532,332,cs)
);
}
);
width = 960;
}
);
metricWidth = symbolBase;
unicode = 1024045;
}
{
color = 11;
glyphname = iconExchangeRate.medium;
layers = (
{
layerId = "B1F27B51-9973-4381-9301-4FE46FE1CA59";
shapes = (
{
closed = 1;
nodes = (
(876,-160,o),
(1100,64,o),
(1100,340,cs),
(1100,616,o),
(876,840,o),
(600,840,cs),
(324,840,o),
(100,616,o),
(100,340,cs),
(100,64,o),
(324,-160,o),
(600,-160,cs)
);
},
{
closed = 1;
nodes = (
(350,-113,o),
(147,90,o),
(147,340,cs),
(147,590,o),
(350,793,o),
(600,793,cs),
(850,793,o),
(1053,590,o),
(1053,340,cs),
(1053,90,o),
(850,-113,o),
(600,-113,cs)
);
},
{
closed = 1;
nodes = (
(505,62,o),
(519,62,o),
(529,72,cs),
(538,81,o),
(540,95,o),
(529,106,cs),
(421,215,l),
(529,324,ls),
(540,335,o),
(537,350,o),
(529,358,cs),
(519,368,o),
(504,367,o),
(495,358,cs),
(370,232,ls),
(360,222,o),
(360,208,o),
(370,198,cs),
(495,72,ls)
);
},
{
closed = 1;
nodes = (
(813,191,ls),
(827,191,o),
(837,202,o),
(837,215,cs),
(837,228,o),
(827,239,o),
(813,239,cs),
(424,239,ls),
(411,239,o),
(400,228,o),
(400,215,cs),
(400,202,o),
(411,191,o),
(424,191,cs)
);
},
{
closed = 1;
nodes = (
(776,441,ls),
(789,441,o),
(800,452,o),
(800,465,cs),
(800,478,o),
(789,489,o),
(776,489,cs),
(387,489,ls),
(373,489,o),
(363,478,o),
(363,465,cs),
(363,452,o),
(373,441,o),
(387,441,cs)
);
},
{
closed = 1;
nodes = (
(681,312,o),
(696,313,o),
(705,322,cs),
(830,448,ls),
(840,458,o),
(840,472,o),
(830,482,cs),
(705,608,ls),
(695,618,o),
(681,618,o),
(671,608,cs),
(662,599,o),
(660,585,o),
(671,574,cs),
(779,465,l),
(671,356,ls),
(660,345,o),
(663,330,o),
(671,322,cs)
);
}
);
userData = {
RMXScaler = {
height = 125;
verticalShift = -85;
width = 125;
};
};
width = 1200;
},
{
layerId = "CD0E3B44-F66A-4791-B84C-A1128DC61275";
shapes = (
{
closed = 1;
nodes = (
(876,-160,o),
(1100,64,o),
(1100,340,cs),
(1100,616,o),
(876,840,o),
(600,840,cs),
(324,840,o),
(100,616,o),
(100,340,cs),
(100,64,o),
(324,-160,o),
(600,-160,cs)
);
},
{
closed = 1;
nodes = (
(372,-73,o),
(187,112,o),
(187,340,cs),
(187,568,o),
(372,753,o),
(600,753,cs),
(828,753,o),
(1013,568,o),
(1013,340,cs),
(1013,112,o),
(828,-73,o),
(600,-73,cs)
);
},
{
closed = 1;
nodes = (
(502,62,o),
(522,61,o),
(536,75,cs),
(549,88,o),
(551,108,o),
(536,123,cs),
(445,215,l),
(536,307,ls),
(549,320,o),
(551,341,o),
(536,355,cs),
(523,368,o),
(502,368,o),
(489,355,cs),
(373,239,ls),
(359,225,o),
(359,205,o),
(373,191,cs),
(489,75,ls)
);
},
{
closed = 1;
nodes = (
(803,181,ls),
(823,181,o),
(838,196,o),
(838,215,cs),
(838,234,o),
(823,249,o),
(803,249,cs),
(434,249,ls),
(415,249,o),
(400,234,o),
(400,215,cs),
(400,196,o),
(415,181,o),
(434,181,cs)
);
},
{
closed = 1;
nodes = (
(766,431,ls),
(785,431,o),
(800,446,o),
(800,465,cs),
(800,484,o),
(785,499,o),
(766,499,cs),
(397,499,ls),
(377,499,o),
(363,484,o),
(363,465,cs),
(363,446,o),
(377,431,o),
(397,431,cs)
);
},
{
closed = 1;
nodes = (
(677,312,o),
(698,312,o),
(711,325,cs),
(827,441,ls),
(841,455,o),
(841,475,o),
(827,489,cs),
(711,605,ls),
(698,618,o),
(678,619,o),
(664,605,cs),
(651,592,o),
(649,572,o),
(664,557,cs),
(756,465,l),
(664,373,ls),
(651,360,o),
(649,339,o),
(664,325,cs)
);
}
);
userData = {
RMXScaler = {
height = 125;
verticalShift = -85;
width = 125;
};
};
width = 1200;
},
{
layerId = "5C20EF92-B63D-42A8-8878-93C2863E0093";
shapes = (
{
closed = 1;
nodes = (
(876,-160,o),
(1100,64,o),
(1100,340,cs),
(1100,616,o),
(876,840,o),
(600,840,cs),
(324,840,o),
(100,616,o),
(100,340,cs),
(100,64,o),
(324,-160,o),
(600,-160,cs)
);
},
{
closed = 1;
nodes = (
(396,-28,o),
(232,136,o),
(232,340,cs),
(232,544,o),
(396,708,o),
(600,708,cs),
(804,708,o),
(968,544,o),
(968,340,cs),
(968,136,o),
(804,-28,o),
(600,-28,cs)
);
},
{
closed = 1;
nodes = (
(500,61,o),
(528,61,o),
(546,79,cs),
(565,99,o),
(562,126,o),
(546,142,cs),
(474,215,l),
(546,288,ls),
(563,305,o),
(563,333,o),
(546,351,cs),
(529,368,o),
(501,370,o),
(482,351,cs),
(378,247,ls),
(360,229,o),
(360,201,o),
(378,183,cs),
(482,79,ls)
);
},
{
closed = 1;
nodes = (
(794,170,ls),
(819,170,o),
(839,190,o),
(839,215,cs),
(839,241,o),
(819,261,o),
(794,261,cs),
(447,261,ls),
(422,261,o),
(402,241,o),
(402,215,cs),
(402,190,o),
(422,170,o),
(447,170,cs)
);
},
{
closed = 1;
nodes = (
(753,420,ls),
(778,420,o),
(798,440,o),
(798,465,cs),
(798,491,o),
(778,511,o),
(753,511,cs),
(406,511,ls),
(381,511,o),
(361,491,o),
(361,465,cs),
(361,440,o),
(381,420,o),
(406,420,cs)
);
},
{
closed = 1;
nodes = (
(671,312,o),
(699,310,o),
(718,329,cs),
(822,433,ls),
(840,451,o),
(840,479,o),
(822,497,cs),
(718,601,ls),
(700,619,o),
(672,619,o),
(654,601,cs),
(635,581,o),
(638,554,o),
(654,538,cs),
(726,465,l),
(654,392,ls),
(637,375,o),
(637,347,o),
(654,329,cs)
);
}
);
userData = {
RMXScaler = {
height = 125;
verticalShift = -85;
width = 125;
};
};
width = 1200;
}
);
unicode = 1024045;
userData = {
RMXScaler = {
source = iconExchangeRate.small;
};
};
}
{
color = 11;
glyphname = iconExclammark;
layers = (
{
layerId = "B1F27B51-9973-4381-9301-4FE46FE1CA59";
shapes = (
{
closed = 1;
nodes = (
(500,180,l),
(500,660,l),
(460,660,l),
(460,180,l)
);
},
{
closed = 1;
nodes = (
(499,20,o),
(515,36,o),
(515,55,cs),
(515,74,o),
(499,90,o),
(480,90,cs),
(461,90,o),
(445,74,o),
(445,55,cs),
(445,36,o),
(461,20,o),
(480,20,cs)
);
}
);
width = 960;
},
{
layerId = "CD0E3B44-F66A-4791-B84C-A1128DC61275";
shapes = (
{
closed = 1;
nodes = (
(540,240,l),
(540,660,l),
(420,660,l),
(420,240,l)
);
},
{
closed = 1;
nodes = (
(521,20,o),
(555,54,o),
(555,95,cs),
(555,136,o),
(521,170,o),
(480,170,cs),
(439,170,o),
(405,136,o),
(405,95,cs),
(405,54,o),
(439,20,o),
(480,20,cs)
);
}
);
width = 960;
},
{
layerId = "5C20EF92-B63D-42A8-8878-93C2863E0093";
shapes = (
{
closed = 1;
nodes = (
(540,290,l),
(540,600,l),
(420,600,l),
(420,290,l)
);
},
{
closed = 1;
nodes = (
(521,85,o),
(555,119,o),
(555,160,cs),
(555,201,o),
(521,235,o),
(480,235,cs),
(439,235,o),
(405,201,o),
(405,160,cs),
(405,119,o),
(439,85,o),
(480,85,cs)
);
}
);
width = 960;
}
);
metricWidth = symbolBase;
unicode = 1024046;
}
{
color = 11;
glyphname = iconExclammark.medium;
layers = (
{
layerId = "B1F27B51-9973-4381-9301-4FE46FE1CA59";
metricWidth = "=baseSymbol.medium";
shapes = (
{
closed = 1;
nodes = (
(624,138,l),
(624,740,l),
(577,740,l),
(577,138,l)
);
},
{
closed = 1;
nodes = (
(623,-60,o),
(643,-41,o),
(643,-18,cs),
(643,5,o),
(624,25,o),
(600,25,cs),
(577,25,o),
(558,5,o),
(558,-18,cs),
(558,-40,o),
(577,-60,o),
(600,-60,cs)
);
}
);
userData = {
RMXScaler = {
height = 125;
verticalShift = -85;
width = 125;
};
};
width = 1200;
},
{
layerId = "CD0E3B44-F66A-4791-B84C-A1128DC61275";
metricWidth = "=baseSymbol.medium";
shapes = (
{
closed = 1;
nodes = (
(643,168,l),
(643,740,l),
(557,740,l),
(557,168,l)
);
},
{
closed = 1;
nodes = (
(634,-60,o),
(662,-31,o),
(662,2,cs),
(662,35,o),
(634,64,o),
(600,64,cs),
(567,64,o),
(538,36,o),
(538,2,cs),
(538,-31,o),
(566,-60,o),
(600,-60,cs)
);
}
);
userData = {
RMXScaler = {
height = 125;
verticalShift = -85;
width = 125;
};
};
width = 1200;
},
{
layerId = "5C20EF92-B63D-42A8-8878-93C2863E0093";
metricWidth = "=baseSymbol.medium";
shapes = (
{
closed = 1;
nodes = (
(666,202,l),
(666,740,l),
(534,740,l),
(534,202,l)
);
},
{
closed = 1;
nodes = (
(646,-60,o),
(685,-22,o),
(685,25,cs),
(685,71,o),
(646,110,o),
(600,110,cs),
(553,110,o),
(515,71,o),
(515,25,cs),
(515,-22,o),
(554,-60,o),
(600,-60,cs)
);
}
);
userData = {
RMXScaler = {
height = 125;
verticalShift = -85;
width = 125;
};
};
width = 1200;
}
);
unicode = 1024046;
userData = {
RMXScaler = {
source = iconExclammark.small;
};
};
}
{
color = 11;
glyphname = iconExclamFill.medium;
layers = (
{
layerId = "B1F27B51-9973-4381-9301-4FE46FE1CA59";
shapes = (
{
closed = 1;
nodes = (
(876,-160,o),
(1100,64,o),
(1100,340,cs),
(1100,616,o),
(876,840,o),
(600,840,cs),
(324,840,o),
(100,616,o),
(100,340,cs),
(100,64,o),
(324,-160,o),
(600,-160,cs)
);
},
{
closed = 1;
nodes = (
(577,66,o),
(558,86,o),
(558,109,cs),
(558,131,o),
(577,151,o),
(600,151,cs),
(623,151,o),
(642,131,o),
(642,109,cs),
(642,86,o),
(623,66,o),
(600,66,cs)
);
},
{
closed = 1;
nodes = (
(576,640,l),
(624,640,l),
(624,240,l),
(576,240,l)
);
}
);
userData = {
RMXScaler = {
height = 125;
verticalShift = -85;
width = 125;
};
};
width = 1200;
},
{
layerId = "CD0E3B44-F66A-4791-B84C-A1128DC61275";
shapes = (
{
closed = 1;
nodes = (
(876,-160,o),
(1100,64,o),
(1100,340,cs),
(1100,616,o),
(876,840,o),
(600,840,cs),
(324,840,o),
(100,616,o),
(100,340,cs),
(100,64,o),
(324,-160,o),
(600,-160,cs)
);
},
{
closed = 1;
nodes = (
(567,47,o),
(538,75,o),
(538,109,cs),
(538,142,o),
(566,171,o),
(600,171,cs),
(634,171,o),
(662,142,o),
(662,109,cs),
(662,75,o),
(633,47,o),
(600,47,cs)
);
},
{
closed = 1;
nodes = (
(557,640,l),
(643,640,l),
(643,240,l),
(557,240,l)
);
}
);
userData = {
RMXScaler = {
height = 125;
verticalShift = -85;
width = 125;
};
};
width = 1200;
},
{
layerId = "5C20EF92-B63D-42A8-8878-93C2863E0093";
shapes = (
{
closed = 1;
nodes = (
(876,-160,o),
(1100,64,o),
(1100,340,cs),
(1100,616,o),
(876,840,o),
(600,840,cs),
(324,840,o),
(100,616,o),
(100,340,cs),
(100,64,o),
(324,-160,o),
(600,-160,cs)
);
},
{
closed = 1;
nodes = (
(554,24,o),
(515,62,o),
(515,109,cs),
(515,155,o),
(553,194,o),
(600,194,cs),
(647,194,o),
(685,155,o),
(685,109,cs),
(685,62,o),
(646,24,o),
(600,24,cs)
);
},
{
closed = 1;
nodes = (
(534,656,l),
(666,656,l),
(666,264,l),
(534,264,l)
);
}
);
userData = {
RMXScaler = {
height = 125;
verticalShift = -85;
width = 125;
};
};
width = 1200;
}
);
unicode = 1024047;
userData = {
RMXScaler = {
source = iconExclamFill.small;
};
};
}
{
color = 11;
glyphname = iconExternal;
layers = (
{
layerId = "B1F27B51-9973-4381-9301-4FE46FE1CA59";
shapes = (
{
closed = 1;
nodes = (
(736,-40,ls),
(760,-40,o),
(780,-20,o),
(780,4,cs),
(780,374,ls),
(780,385,o),
(771,394,o),
(760,394,cs),
(749,394,o),
(740,385,o),
(740,374,cs),
(740,4,ls),
(740,2,o),
(738,0,o),
(736,0,cs),
(144,0,ls),
(142,0,o),
(140,2,o),
(140,4,cs),
(140,596,ls),
(140,598,o),
(142,600,o),
(144,600,cs),
(514,600,ls),
(525,600,o),
(534,609,o),
(534,620,cs),
(534,631,o),
(525,640,o),
(514,640,cs),
(144,640,ls),
(120,640,o),
(100,620,o),
(100,596,cs),
(100,4,ls),
(100,-20,o),
(120,-40,o),
(144,-40,cs)
);
},
{
closed = 1;
nodes = (
(430,278,o),
(443,278,o),
(450,286,cs),
(804,640,l),
(804,472,ls),
(804,461,o),
(813,452,o),
(824,452,cs),
(835,452,o),
(844,461,o),
(844,472,cs),
(844,688,ls),
(844,693,o),
(842,698,o),
(838,702,cs),
(835,706,o),
(829,708,o),
(824,708,cs),
(608,708,ls),
(597,708,o),
(588,699,o),
(588,688,cs),
(588,677,o),
(597,668,o),
(608,668,cs),
(776,668,l),
(422,314,ls),
(414,306,o),
(414,294,o),
(422,286,cs)
);
}
);
width = 960;
},
{
background = {
shapes = (
{
closed = 1;
nodes = (
);
}
);
};
layerId = "CD0E3B44-F66A-4791-B84C-A1128DC61275";
shapes = (
{
closed = 1;
nodes = (
(736,-60,ls),
(771,-60,o),
(800,-31,o),
(800,4,cs),
(800,334,ls),
(800,356,o),
(782,374,o),
(760,374,cs),
(738,374,o),
(720,356,o),
(720,334,cs),
(720,20,ls),
(720,20,o),
(720,20,o),
(720,20,cs),
(160,20,ls),
(160,20,o),
(160,20,o),
(160,20,cs),
(160,580,ls),
(160,580,o),
(160,580,o),
(160,580,cs),
(474,580,ls),
(496,580,o),
(514,598,o),
(514,620,cs),
(514,642,o),
(496,660,o),
(474,660,cs),
(144,660,ls),
(109,660,o),
(80,631,o),
(80,596,cs),
(80,4,ls),
(80,-31,o),
(109,-60,o),
(144,-60,cs)
);
},
{
closed = 1;
nodes = (
(424,256,o),
(449,256,o),
(465,272,cs),
(784,591,l),
(784,472,ls),
(784,450,o),
(802,432,o),
(824,432,cs),
(846,432,o),
(864,450,o),
(864,472,cs),
(864,688,ls),
(864,698,o),
(860,709,o),
(852,716,cs),
(845,724,o),
(835,728,o),
(824,728,cs),
(608,728,ls),
(586,728,o),
(568,710,o),
(568,688,cs),
(568,666,o),
(586,648,o),
(608,648,cs),
(728,648,l),
(408,328,ls),
(392,313,o),
(392,287,o),
(408,272,cs)
);
}
);
width = 960;
},
{
layerId = "5C20EF92-B63D-42A8-8878-93C2863E0093";
shapes = (
{
closed = 1;
nodes = (
(736,-80,ls),
(782,-80,o),
(820,-42,o),
(820,4,cs),
(820,334,ls),
(820,367,o),
(793,394,o),
(760,394,cs),
(727,394,o),
(700,367,o),
(700,334,cs),
(700,40,ls),
(700,40,o),
(700,40,o),
(700,40,cs),
(180,40,ls),
(180,40,o),
(180,40,o),
(180,40,cs),
(180,560,ls),
(180,560,o),
(180,560,o),
(180,560,cs),
(474,560,ls),
(507,560,o),
(534,587,o),
(534,620,cs),
(534,653,o),
(507,680,o),
(474,680,cs),
(144,680,ls),
(98,680,o),
(60,642,o),
(60,596,cs),
(60,4,ls),
(60,-42,o),
(98,-80,o),
(144,-80,cs)
);
},
{
closed = 1;
nodes = (
(417,234,o),
(455,234,o),
(479,258,cs),
(764,543,l),
(764,472,ls),
(764,439,o),
(791,412,o),
(824,412,cs),
(857,412,o),
(884,439,o),
(884,472,cs),
(884,688,ls),
(884,704,o),
(878,719,o),
(867,730,cs),
(855,742,o),
(840,748,o),
(824,748,cs),
(608,748,ls),
(575,748,o),
(548,721,o),
(548,688,cs),
(548,655,o),
(575,628,o),
(608,628,cs),
(679,628,l),
(394,342,ls),
(370,319,o),
(370,281,o),
(394,258,cs)
);
}
);
width = 960;
}
);
metricWidth = symbolBase;
unicode = 1024048;
}
{
color = 11;
glyphname = iconEye.small;
layers = (
{
layerId = "B1F27B51-9973-4381-9301-4FE46FE1CA59";
shapes = (
{
closed = 1;
nodes = (
(597,80,o),
(700,120,o),
(780,206,cs),
(837,269,o),
(858,331,o),
(859,334,cs),
(860,338,o),
(860,342,o),
(859,346,cs),
(858,349,o),
(837,411,o),
(780,474,cs),
(700,560,o),
(597,600,o),
(480,600,cs),
(363,600,o),
(260,560,o),
(180,474,cs),
(123,411,o),
(102,349,o),
(101,346,cs),
(100,342,o),
(100,338,o),
(101,334,cs),
(102,331,o),
(123,269,o),
(180,206,cs),
(260,120,o),
(363,80,o),
(480,80,cs)
);
},
{
closed = 1;
nodes = (
(375,120,o),
(282,155,o),
(211,232,cs),
(169,278,o),
(148,324,o),
(141,340,c),
(148,356,o),
(169,402,o),
(211,448,cs),
(282,525,o),
(375,560,o),
(480,560,cs),
(585,560,o),
(678,525,o),
(749,448,cs),
(791,402,o),
(812,356,o),
(819,340,c),
(812,324,o),
(791,278,o),
(749,232,cs),
(678,155,o),
(585,120,o),
(480,120,cs)
);
},
{
closed = 1;
nodes = (
(557,200,o),
(620,263,o),
(620,340,cs),
(620,417,o),
(557,480,o),
(480,480,cs),
(403,480,o),
(340,417,o),
(340,340,cs),
(340,263,o),
(403,200,o),
(480,200,cs)
);
},
{
closed = 1;
nodes = (
(425,240,o),
(380,285,o),
(380,340,cs),
(380,395,o),
(425,440,o),
(480,440,cs),
(535,440,o),
(580,395,o),
(580,340,cs),
(580,285,o),
(535,240,o),
(480,240,cs)
);
}
);
width = 960;
},
{
layerId = "CD0E3B44-F66A-4791-B84C-A1128DC61275";
shapes = (
{
closed = 1;
nodes = (
(603,60,o),
(711,102,o),
(794,193,cs),
(855,259,o),
(877,325,o),
(878,327,cs),
(881,336,o),
(881,344,o),
(878,353,cs),
(877,355,o),
(855,421,o),
(794,487,cs),
(711,578,o),
(603,620,o),
(480,620,cs),
(357,620,o),
(249,578,o),
(166,487,cs),
(105,421,o),
(83,355,o),
(82,353,cs),
(79,344,o),
(79,336,o),
(82,327,cs),
(83,325,o),
(105,259,o),
(166,193,cs),
(249,102,o),
(357,60,o),
(480,60,cs)
);
},
{
closed = 1;
nodes = (
(382,140,o),
(293,174,o),
(227,245,cs),
(191,282,o),
(172,321,o),
(163,340,c),
(172,359,o),
(191,398,o),
(227,435,cs),
(293,506,o),
(382,540,o),
(480,540,cs),
(578,540,o),
(667,506,o),
(733,435,cs),
(769,398,o),
(788,359,o),
(797,340,c),
(788,321,o),
(769,282,o),
(733,245,cs),
(667,174,o),
(578,140,o),
(480,140,cs)
);
},
{
closed = 1;
nodes = (
(568,180,o),
(640,252,o),
(640,340,cs),
(640,428,o),
(568,500,o),
(480,500,cs),
(392,500,o),
(320,428,o),
(320,340,cs),
(320,252,o),
(392,180,o),
(480,180,cs)
);
},
{
closed = 1;
nodes = (
(436,260,o),
(400,296,o),
(400,340,cs),
(400,384,o),
(436,420,o),
(480,420,cs),
(524,420,o),
(560,384,o),
(560,340,cs),
(560,296,o),
(524,260,o),
(480,260,cs)
);
}
);
width = 960;
},
{
layerId = "5C20EF92-B63D-42A8-8878-93C2863E0093";
shapes = (
{
closed = 1;
nodes = (
(646,40,o),
(751,116,o),
(809,179,cs),
(871,247,o),
(894,314,o),
(897,321,cs),
(901,333,o),
(901,347,o),
(897,359,cs),
(894,366,o),
(871,433,o),
(809,501,cs),
(751,564,o),
(646,640,o),
(480,640,cs),
(314,640,o),
(209,564,o),
(151,501,cs),
(89,433,o),
(66,366,o),
(63,359,cs),
(59,347,o),
(59,333,o),
(63,321,cs),
(66,314,o),
(89,247,o),
(151,179,cs),
(209,116,o),
(314,40,o),
(480,40,cs)
);
},
{
closed = 1;
nodes = (
(383,160,o),
(303,193,o),
(242,257,cs),
(213,289,o),
(195,320,o),
(185,340,c),
(194,359,o),
(211,389,o),
(239,419,cs),
(300,486,o),
(381,520,o),
(480,520,cs),
(577,520,o),
(657,487,o),
(718,423,cs),
(747,391,o),
(765,360,o),
(775,340,c),
(766,321,o),
(749,291,o),
(721,261,cs),
(660,194,o),
(579,160,o),
(480,160,cs)
);
},
{
closed = 1;
nodes = (
(568,180,o),
(640,252,o),
(640,340,cs),
(640,428,o),
(568,500,o),
(480,500,cs),
(392,500,o),
(320,428,o),
(320,340,cs),
(320,252,o),
(392,180,o),
(480,180,cs)
);
},
{
closed = 1;
nodes = (
(458,300,o),
(440,318,o),
(440,340,cs),
(440,362,o),
(458,380,o),
(480,380,cs),
(502,380,o),
(520,362,o),
(520,340,cs),
(520,318,o),
(502,300,o),
(480,300,cs)
);
}
);
width = 960;
}
);
metricWidth = symbolBase;
unicode = 1024049;
}
{
color = 11;
glyphname = iconHeart;
layers = (
{
layerId = "B1F27B51-9973-4381-9301-4FE46FE1CA59";
shapes = (
{
closed = 1;
nodes = (
(485,13,o),
(491,15,o),
(494,19,c),
(678,207,ls),
(770,299,o),
(824,368,o),
(824,461,cs),
(824,576,o),
(743,653,o),
(640,653,cs),
(568,653,o),
(509,616,o),
(480,558,c),
(451,616,o),
(392,653,o),
(320,653,cs),
(217,653,o),
(136,576,o),
(136,461,cs),
(136,368,o),
(190,299,o),
(282,207,cs),
(466,19,l),
(469,15,o),
(475,13,o),
(480,13,cs)
);
},
{
closed = 1;
nodes = (
(310,235,ls),
(218,327,o),
(176,386,o),
(176,461,cs),
(176,554,o),
(239,613,o),
(320,613,cs),
(401,613,o),
(460,554,o),
(460,473,cs),
(460,462,o),
(469,453,o),
(480,453,cs),
(491,453,o),
(500,462,o),
(500,473,cs),
(500,554,o),
(559,613,o),
(640,613,cs),
(721,613,o),
(784,554,o),
(784,461,cs),
(784,386,o),
(742,327,o),
(650,235,cs),
(480,62,l)
);
}
);
width = 960;
},
{
layerId = "CD0E3B44-F66A-4791-B84C-A1128DC61275";
shapes = (
{
closed = 1;
nodes = (
(491,0,o),
(501,4,o),
(509,12,cs),
(692,200,ls),
(784,291,o),
(844,366,o),
(844,468,cs),
(844,593,o),
(755,680,o),
(640,680,cs),
(573,680,o),
(516,650,o),
(480,603,c),
(444,650,o),
(387,680,o),
(320,680,cs),
(205,680,o),
(116,593,o),
(116,468,cs),
(116,366,o),
(176,291,o),
(268,200,cs),
(451,12,ls),
(459,4,o),
(469,0,o),
(480,0,cs)
);
},
{
closed = 1;
nodes = (
(324,256,ls),
(232,349,o),
(196,402,o),
(196,468,cs),
(196,551,o),
(251,600,o),
(320,600,cs),
(390,600,o),
(440,550,o),
(440,480,cs),
(440,458,o),
(458,440,o),
(480,440,cs),
(502,440,o),
(520,458,o),
(520,480,cs),
(520,550,o),
(570,600,o),
(640,600,cs),
(709,600,o),
(764,551,o),
(764,468,cs),
(764,402,o),
(728,350,o),
(636,256,cs),
(480,97,l)
);
}
);
width = 960;
},
{
layerId = "5C20EF92-B63D-42A8-8878-93C2863E0093";
shapes = (
{
closed = 1;
nodes = (
(496,-20,o),
(512,-13,o),
(523,-2,cs),
(707,186,ls),
(798,277,o),
(864,357,o),
(864,468,cs),
(864,604,o),
(766,700,o),
(640,700,cs),
(576,700,o),
(520,675,o),
(480,634,c),
(440,675,o),
(384,700,o),
(320,700,cs),
(194,700,o),
(96,604,o),
(96,468,cs),
(96,357,o),
(162,277,o),
(253,186,cs),
(437,-2,ls),
(448,-13,o),
(464,-20,o),
(480,-20,cs)
);
},
{
closed = 1;
nodes = (
(339,270,ls),
(246,363,o),
(216,411,o),
(216,468,cs),
(216,540,o),
(262,580,o),
(320,580,cs),
(379,580,o),
(420,539,o),
(420,480,cs),
(420,447,o),
(447,420,o),
(480,420,cs),
(513,420,o),
(540,447,o),
(540,480,cs),
(540,539,o),
(581,580,o),
(640,580,cs),
(698,580,o),
(744,540,o),
(744,468,cs),
(744,411,o),
(714,363,o),
(621,270,cs),
(480,126,l)
);
}
);
width = 960;
}
);
metricWidth = symbolBase;
unicode = 1024050;
}
{
color = 11;
glyphname = iconHeart.medium;
layers = (
{
layerId = "B1F27B51-9973-4381-9301-4FE46FE1CA59";
shapes = (
{
closed = 1;
nodes = (
(605,-68,o),
(612,-66,o),
(616,-61,c),
(846,174,ls),
(964,295,o),
(1028,378,o),
(1028,491,cs),
(1028,634,o),
(927,729,o),
(800,729,cs),
(710,729,o),
(636,683,o),
(600,609,c),
(563,685,o),
(487,729,o),
(400,729,cs),
(272,729,o),
(171,634,o),
(171,491,cs),
(171,378,o),
(235,295,o),
(353,174,cs),
(583,-61,l),
(587,-66,o),
(594,-68,o),
(600,-68,cs)
);
},
{
closed = 1;
nodes = (
(386,207,ls),
(268,327,o),
(218,399,o),
(218,491,cs),
(218,608,o),
(298,682,o),
(400,682,cs),
(501,682,o),
(576,608,o),
(576,506,cs),
(576,493,o),
(587,482,o),
(600,482,cs),
(612,482,o),
(623,493,o),
(623,506,cs),
(623,608,o),
(698,682,o),
(800,682,cs),
(901,682,o),
(981,608,o),
(981,491,cs),
(981,396,o),
(925,321,o),
(813,207,cs),
(600,-10,l)
);
}
);
userData = {
RMXScaler = {
height = 125;
verticalShift = -85;
width = 125;
};
};
width = 1199;
},
{
layerId = "CD0E3B44-F66A-4791-B84C-A1128DC61275";
shapes = (
{
closed = 1;
nodes = (
(613,-81,o),
(624,-76,o),
(632,-68,cs),
(861,167,ls),
(974,283,o),
(1049,374,o),
(1049,498,cs),
(1049,651,o),
(940,756,o),
(800,756,cs),
(713,756,o),
(642,715,o),
(600,654,c),
(557,717,o),
(485,756,o),
(400,756,cs),
(261,756,o),
(152,651,o),
(152,498,cs),
(152,375,o),
(226,284,o),
(340,167,cs),
(569,-68,ls),
(577,-76,o),
(588,-81,o),
(600,-81,cs)
);
},
{
closed = 1;
nodes = (
(401,228,ls),
(288,343,o),
(239,412,o),
(239,498,cs),
(239,604,o),
(310,669,o),
(400,669,cs),
(491,669,o),
(557,604,o),
(557,513,cs),
(557,489,o),
(576,469,o),
(600,469,cs),
(624,469,o),
(644,489,o),
(644,513,cs),
(644,603,o),
(709,669,o),
(800,669,cs),
(891,669,o),
(962,604,o),
(962,498,cs),
(962,413,o),
(917,347,o),
(800,228,cs),
(600,25,l)
);
}
);
userData = {
RMXScaler = {
height = 125;
verticalShift = -85;
width = 125;
};
};
width = 1201;
},
{
layerId = "5C20EF92-B63D-42A8-8878-93C2863E0093";
shapes = (
{
closed = 1;
nodes = (
(618,-101,o),
(635,-93,o),
(647,-81,cs),
(877,153,ls),
(991,269,o),
(1071,366,o),
(1071,500,cs),
(1071,665,o),
(953,781,o),
(800,781,cs),
(722,781,o),
(650,750,o),
(600,694,c),
(550,750,o),
(478,781,o),
(400,781,cs),
(247,781,o),
(129,665,o),
(129,500,cs),
(129,366,o),
(209,269,o),
(323,153,cs),
(553,-81,ls),
(565,-93,o),
(582,-101,o),
(600,-101,cs)
);
},
{
closed = 1;
nodes = (
(417,246,ls),
(300,366,o),
(261,426,o),
(261,500,cs),
(261,595,o),
(323,649,o),
(400,649,cs),
(479,649,o),
(534,594,o),
(534,515,cs),
(534,479,o),
(564,449,o),
(600,449,cs),
(636,449,o),
(666,479,o),
(666,515,cs),
(666,594,o),
(721,649,o),
(800,649,cs),
(877,649,o),
(939,595,o),
(939,500,cs),
(939,426,o),
(901,367,o),
(783,246,cs),
(600,59,l)
);
}
);
userData = {
RMXScaler = {
height = 125;
verticalShift = -85;
width = 125;
};
};
width = 1200;
}
);
unicode = 1024050;
userData = {
RMXScaler = {
source = iconHeart.small;
};
};
}
{
color = 11;
glyphname = iconMessage.medium;
layers = (
{
layerId = "B1F27B51-9973-4381-9301-4FE46FE1CA59";
shapes = (
{
closed = 1;
nodes = (
(595,-86,o),
(609,-84,o),
(617,-75,cs),
(784,116,l),
(1050,116,ls),
(1062,116,o),
(1073,127,o),
(1073,140,cs),
(1073,740,ls),
(1073,753,o),
(1062,764,o),
(1050,764,cs),
(150,764,ls),
(137,764,o),
(126,753,o),
(126,740,cs),
(126,140,ls),
(126,127,o),
(137,116,o),
(150,116,cs),
(496,116,ls),
(509,116,o),
(519,127,o),
(519,140,cs),
(519,153,o),
(509,164,o),
(496,164,cs),
(173,164,l),
(173,716,l),
(1026,716,l),
(1026,164,l),
(772,164,ls),
(767,164,o),
(759,161,o),
(754,155,cs),
(582,-45,ls),
(574,-54,o),
(575,-70,o),
(585,-78,cs)
);
},
{
closed = 1;
nodes = (
(443,390,o),
(466,412,o),
(466,440,cs),
(466,468,o),
(443,490,o),
(416,490,cs),
(388,490,o),
(366,467,o),
(366,440,cs),
(366,413,o),
(388,390,o),
(416,390,cs)
);
},
{
closed = 1;
nodes = (
(627,390,o),
(650,412,o),
(650,440,cs),
(650,468,o),
(627,490,o),
(600,490,cs),
(572,490,o),
(550,467,o),
(550,440,cs),
(550,413,o),
(572,390,o),
(600,390,cs)
);
},
{
closed = 1;
nodes = (
(811,390,o),
(833,413,o),
(833,440,cs),
(833,467,o),
(811,490,o),
(783,490,cs),
(756,490,o),
(733,468,o),
(733,440,cs),
(733,412,o),
(756,390,o),
(783,390,cs)
);
}
);
userData = {
RMXScaler = {
height = 125;
verticalShift = -85;
width = 125;
};
};
width = 1199;
},
{
layerId = "CD0E3B44-F66A-4791-B84C-A1128DC61275";
shapes = (
{
closed = 1;
nodes = (
(595,-110,o),
(620,-103,o),
(633,-88,cs),
(794,97,l),
(1050,97,ls),
(1074,97,o),
(1094,116,o),
(1094,140,cs),
(1094,740,ls),
(1094,764,o),
(1074,783,o),
(1050,783,cs),
(150,783,ls),
(127,783,o),
(107,764,o),
(107,740,cs),
(107,140,ls),
(107,116,o),
(127,97,o),
(150,97,cs),
(497,97,ls),
(520,97,o),
(540,116,o),
(540,140,cs),
(540,164,o),
(520,183,o),
(497,183,cs),
(194,183,l),
(194,697,l),
(1007,697,l),
(1007,183,l),
(773,183,ls),
(759,183,o),
(748,177,o),
(740,168,cs),
(568,-32,ls),
(550,-53,o),
(557,-81,o),
(574,-94,cs)
);
},
{
closed = 1;
nodes = (
(444,390,o),
(467,412,o),
(467,440,cs),
(467,468,o),
(444,490,o),
(417,490,cs),
(389,490,o),
(367,467,o),
(367,440,cs),
(367,413,o),
(389,390,o),
(417,390,cs)
);
},
{
closed = 1;
nodes = (
(628,390,o),
(650,413,o),
(650,440,cs),
(650,467,o),
(628,490,o),
(600,490,cs),
(573,490,o),
(550,468,o),
(550,440,cs),
(550,412,o),
(573,390,o),
(600,390,cs)
);
},
{
closed = 1;
nodes = (
(812,390,o),
(834,413,o),
(834,440,cs),
(834,467,o),
(812,490,o),
(784,490,cs),
(757,490,o),
(734,468,o),
(734,440,cs),
(734,412,o),
(757,390,o),
(784,390,cs)
);
}
);
userData = {
RMXScaler = {
height = 125;
verticalShift = -85;
width = 125;
};
};
width = 1201;
},
{
layerId = "5C20EF92-B63D-42A8-8878-93C2863E0093";
shapes = (
{
closed = 1;
nodes = (
(583,-133,o),
(625,-132,o),
(650,-103,cs),
(803,74,l),
(1050,74,ls),
(1086,74,o),
(1116,104,o),
(1116,140,cs),
(1116,740,ls),
(1116,776,o),
(1086,806,o),
(1050,806,cs),
(150,806,ls),
(114,806,o),
(84,776,o),
(84,740,cs),
(84,140,ls),
(84,104,o),
(114,74,o),
(150,74,cs),
(496,74,ls),
(533,74,o),
(562,104,o),
(562,140,cs),
(562,176,o),
(533,206,o),
(496,206,cs),
(216,206,l),
(216,674,l),
(984,674,l),
(984,206,l),
(773,206,ls),
(754,206,o),
(736,198,o),
(723,183,cs),
(550,-17,ls),
(526,-45,o),
(530,-86,o),
(556,-109,cs)
);
},
{
closed = 1;
nodes = (
(444,390,o),
(466,413,o),
(466,440,cs),
(466,467,o),
(444,490,o),
(416,490,cs),
(389,490,o),
(366,468,o),
(366,440,cs),
(366,412,o),
(389,390,o),
(416,390,cs)
);
},
{
closed = 1;
nodes = (
(628,390,o),
(650,413,o),
(650,440,cs),
(650,468,o),
(628,490,o),
(600,490,cs),
(573,490,o),
(550,468,o),
(550,440,cs),
(550,413,o),
(573,390,o),
(600,390,cs)
);
},
{
closed = 1;
nodes = (
(811,390,o),
(834,412,o),
(834,440,cs),
(834,468,o),
(811,490,o),
(784,490,cs),
(756,490,o),
(734,467,o),
(734,440,cs),
(734,413,o),
(756,390,o),
(784,390,cs)
);
}
);
userData = {
RMXScaler = {
height = 125;
verticalShift = -85;
width = 125;
};
};
width = 1200;
}
);
unicode = 1024051;
userData = {
RMXScaler = {
source = iconMessage.small;
};
};
}
{
color = 11;
glyphname = iconNeithStation.medium;
layers = (
{
layerId = "B1F27B51-9973-4381-9301-4FE46FE1CA59";
metricWidth = "=baseSymbol.medium";
shapes = (
{
closed = 1;
nodes = (
(931,-260,o),
(1200,9,o),
(1200,340,cs),
(1200,671,o),
(931,940,o),
(600,940,cs),
(269,940,o),
(0,671,o),
(0,340,cs),
(0,9,o),
(269,-260,o),
(600,-260,cs)
);
},
{
closed = 1;
nodes = (
(310,-146,o),
(203,-62,o),
(134,49,c),
(275,95,l),
(316,40,o),
(373,-5,o),
(438,-33,c),
(438,-185,l)
);
},
{
closed = 1;
nodes = (
(403,63,o),
(372,88,o),
(344,118,c),
(438,149,l),
(438,44,l)
);
},
{
closed = 1;
nodes = (
(635,-64,l),
(754,-54,o),
(858,6,o),
(925,95,c),
(1066,49,l),
(975,-98,o),
(817,-198,o),
(635,-209,c)
);
},
{
closed = 1;
nodes = (
(635,150,l),
(758,150,l),
(855,118,l),
(800,55,o),
(722,14,o),
(635,5,c)
);
},
{
closed = 1;
nodes = (
(555,-210,o),
(508,-204,o),
(465,-194,c),
(465,249,l),
(438,249,l),
(438,175,l),
(268,124,l),
(396,566,ls),
(420,649,o),
(508,705,o),
(606,705,cs),
(699,705,o),
(775,653,o),
(808,583,c),
(814,583,o),
(819,584,o),
(824,589,cs),
(832,597,o),
(832,610,o),
(823,618,cs),
(788,649,ls),
(763,671,o),
(760,709,o),
(782,735,cs),
(807,764,o),
(847,761,o),
(870,740,cs),
(881,730,ls),
(891,721,o),
(890,707,o),
(883,700,cs),
(873,690,o),
(861,693,o),
(854,699,cs),
(842,709,ls),
(832,717,o),
(821,715,o),
(814,708,cs),
(806,700,o),
(807,687,o),
(815,680,cs),
(850,649,ls),
(876,626,o),
(879,586,o),
(855,561,cs),
(844,549,o),
(830,541,o),
(808,541,cs),
(609,541,l),
(609,-210,l),
(600,-210,ls)
);
},
{
closed = 1;
nodes = (
(635,439,l),
(668,440,l),
(677,434,o),
(698,425,o),
(716,425,cs),
(735,425,o),
(755,436,o),
(766,444,c),
(785,443,l),
(779,468,l),
(773,469,o),
(762,473,o),
(748,474,c),
(749,470,o),
(750,466,o),
(750,463,cs),
(750,450,o),
(740,441,o),
(729,441,cs),
(716,441,o),
(706,450,o),
(706,463,cs),
(706,465,o),
(708,471,o),
(709,474,c),
(685,470,o),
(667,465,o),
(641,456,c),
(635,456,l),
(635,515,l),
(799,515,l),
(800,505,o),
(801,493,o),
(801,484,cs),
(801,473,l),
(853,380,l),
(803,361,l),
(803,256,l),
(731,256,l),
(731,178,l),
(635,178,l)
);
}
);
userData = {
RMXScaler = {
height = 125;
verticalShift = -85;
width = 125;
};
};
width = 1200;
},
{
layerId = "CD0E3B44-F66A-4791-B84C-A1128DC61275";
metricWidth = "=baseSymbol.medium";
shapes = (
{
closed = 1;
nodes = (
(931,-260,o),
(1200,9,o),
(1200,340,cs),
(1200,671,o),
(931,940,o),
(600,940,cs),
(269,940,o),
(0,671,o),
(0,340,cs),
(0,9,o),
(269,-260,o),
(600,-260,cs)
);
},
{
closed = 1;
nodes = (
(310,-146,o),
(203,-62,o),
(134,49,c),
(275,95,l),
(316,40,o),
(373,-5,o),
(438,-33,c),
(438,-185,l)
);
},
{
closed = 1;
nodes = (
(403,63,o),
(372,88,o),
(344,118,c),
(438,149,l),
(438,44,l)
);
},
{
closed = 1;
nodes = (
(635,-64,l),
(754,-54,o),
(858,6,o),
(925,95,c),
(1066,49,l),
(975,-98,o),
(817,-198,o),
(635,-209,c)
);
},
{
closed = 1;
nodes = (
(635,150,l),
(758,150,l),
(855,118,l),
(800,55,o),
(723,14,o),
(635,5,c)
);
},
{
closed = 1;
nodes = (
(555,-210,o),
(508,-204,o),
(465,-194,c),
(465,249,l),
(438,249,l),
(438,175,l),
(268,124,l),
(396,566,ls),
(420,649,o),
(508,705,o),
(606,705,cs),
(699,705,o),
(775,653,o),
(808,583,c),
(814,583,o),
(819,584,o),
(824,589,cs),
(832,597,o),
(832,610,o),
(823,618,cs),
(788,649,ls),
(763,671,o),
(760,709,o),
(782,735,cs),
(807,764,o),
(847,761,o),
(870,740,cs),
(881,730,ls),
(891,721,o),
(890,707,o),
(883,700,cs),
(873,690,o),
(861,693,o),
(854,699,cs),
(842,709,ls),
(832,717,o),
(821,715,o),
(814,708,cs),
(807,701,o),
(806,688,o),
(815,680,cs),
(850,649,ls),
(876,626,o),
(879,586,o),
(855,561,cs),
(844,549,o),
(830,541,o),
(808,541,cs),
(609,541,l),
(609,-210,l),
(600,-210,ls)
);
},
{
closed = 1;
nodes = (
(635,439,l),
(668,440,l),
(677,434,o),
(698,425,o),
(716,425,cs),
(735,425,o),
(755,436,o),
(766,444,c),
(785,443,l),
(779,468,l),
(773,469,o),
(762,473,o),
(748,474,c),
(749,470,o),
(750,466,o),
(750,463,cs),
(750,450,o),
(740,441,o),
(729,441,cs),
(716,441,o),
(706,450,o),
(706,463,cs),
(706,465,o),
(708,471,o),
(709,474,c),
(685,470,o),
(667,465,o),
(641,456,c),
(635,456,l),
(635,515,l),
(799,515,l),
(800,505,o),
(801,493,o),
(801,484,cs),
(801,473,l),
(853,380,l),
(803,361,l),
(803,256,l),
(731,256,l),
(731,178,l),
(635,178,l)
);
}
);
userData = {
RMXScaler = {
height = 125;
verticalShift = -85;
width = 125;
};
};
width = 1200;
},
{
layerId = "5C20EF92-B63D-42A8-8878-93C2863E0093";
metricWidth = "=baseSymbol.medium";
shapes = (
{
closed = 1;
nodes = (
(931,-260,o),
(1200,9,o),
(1200,340,cs),
(1200,671,o),
(931,940,o),
(600,940,cs),
(269,940,o),
(0,671,o),
(0,340,cs),
(0,9,o),
(269,-260,o),
(600,-260,cs)
);
},
{
closed = 1;
nodes = (
(310,-146,o),
(203,-62,o),
(134,49,c),
(275,95,l),
(316,40,o),
(373,-5,o),
(438,-33,c),
(438,-185,l)
);
},
{
closed = 1;
nodes = (
(403,63,o),
(372,88,o),
(344,118,c),
(438,149,l),
(438,44,l)
);
},
{
closed = 1;
nodes = (
(635,-64,l),
(754,-54,o),
(858,6,o),
(925,95,c),
(1066,49,l),
(975,-98,o),
(817,-198,o),
(635,-209,c)
);
},
{
closed = 1;
nodes = (
(635,150,l),
(758,150,l),
(855,118,l),
(800,55,o),
(723,14,o),
(635,5,c)
);
},
{
closed = 1;
nodes = (
(555,-210,o),
(508,-204,o),
(465,-194,c),
(465,249,l),
(438,249,l),
(438,175,l),
(268,124,l),
(396,566,ls),
(420,649,o),
(508,705,o),
(606,705,cs),
(699,705,o),
(775,653,o),
(808,583,c),
(814,583,o),
(819,584,o),
(824,589,cs),
(832,597,o),
(832,610,o),
(823,618,cs),
(788,649,ls),
(763,671,o),
(760,709,o),
(782,735,cs),
(807,764,o),
(847,761,o),
(870,740,cs),
(881,730,ls),
(891,721,o),
(890,707,o),
(883,700,cs),
(873,690,o),
(861,693,o),
(854,699,cs),
(842,709,ls),
(832,717,o),
(821,715,o),
(814,708,cs),
(807,701,o),
(806,688,o),
(815,680,cs),
(850,649,ls),
(876,626,o),
(879,586,o),
(855,561,cs),
(844,549,o),
(830,541,o),
(808,541,cs),
(609,541,l),
(609,-210,l),
(600,-210,ls)
);
},
{
closed = 1;
nodes = (
(635,439,l),
(668,440,l),
(677,434,o),
(698,425,o),
(716,425,cs),
(735,425,o),
(755,436,o),
(766,444,c),
(785,443,l),
(779,468,l),
(773,469,o),
(762,473,o),
(748,474,c),
(749,470,o),
(750,466,o),
(750,463,cs),
(750,450,o),
(740,441,o),
(729,441,cs),
(716,441,o),
(706,450,o),
(706,463,cs),
(706,465,o),
(708,471,o),
(709,474,c),
(685,470,o),
(667,465,o),
(641,456,c),
(635,456,l),
(635,515,l),
(799,515,l),
(800,505,o),
(801,493,o),
(801,484,cs),
(801,473,l),
(853,380,l),
(803,361,l),
(803,256,l),
(731,256,l),
(731,178,l),
(635,178,l)
);
}
);
userData = {
RMXScaler = {
height = 125;
verticalShift = -85;
width = 125;
};
};
width = 1200;
}
);
unicode = 1024052;
userData = {
RMXScaler = {
source = iconNeithStation.small;
};
};
}
{
color = 11;
glyphname = iconPen.medium;
layers = (
{
layerId = "B1F27B51-9973-4381-9301-4FE46FE1CA59";
metricWidth = "=baseSymbol.medium";
shapes = (
{
closed = 1;
nodes = (
(405,-84,ls),
(411,-84,o),
(416,-82,o),
(421,-77,cs),
(980,482,ls),
(990,492,o),
(995,498,o),
(1004,507,cs),
(1032,536,o),
(1026,582,o),
(1004,605,cs),
(991,618,o),
(995,615,o),
(980,630,cs),
(890,720,ls),
(880,730,o),
(876,733,o),
(865,744,cs),
(837,771,o),
(791,768,o),
(767,744,cs),
(756,733,o),
(752,729,o),
(742,720,cs),
(183,162,l),
(179,159,o),
(176,153,o),
(176,145,cs),
(176,-60,ls),
(176,-73,o),
(187,-84,o),
(200,-84,cs)
);
},
{
closed = 1;
nodes = (
(223,136,l),
(774,686,ls),
(785,697,o),
(789,700,o),
(798,709,cs),
(810,720,o),
(825,718,o),
(834,709,cs),
(843,699,o),
(846,697,o),
(857,686,cs),
(945,597,ls),
(956,586,o),
(959,584,o),
(969,574,cs),
(980,563,o),
(978,548,o),
(969,538,cs),
(963,532,o),
(963,531,o),
(946,514,cs),
(395,-36,l),
(223,-36,l)
);
}
);
userData = {
RMXScaler = {
height = 125;
verticalShift = -85;
width = 125;
};
};
width = 1200;
},
{
layerId = "CD0E3B44-F66A-4791-B84C-A1128DC61275";
metricWidth = "=baseSymbol.medium";
shapes = (
{
closed = 1;
nodes = (
(405,-101,ls),
(414,-101,o),
(425,-98,o),
(434,-89,cs),
(993,470,ls),
(1002,479,o),
(1005,483,o),
(1017,495,cs),
(1045,523,o),
(1054,579,o),
(1018,616,cs),
(1011,624,o),
(1002,633,o),
(993,642,cs),
(902,733,ls),
(892,743,o),
(888,746,o),
(876,758,cs),
(838,795,o),
(780,783,o),
(755,758,cs),
(744,748,o),
(739,742,o),
(730,733,cs),
(170,174,ls),
(162,166,o),
(159,155,o),
(159,145,cs),
(159,-60,ls),
(159,-84,o),
(176,-101,o),
(200,-101,cs)
);
},
{
closed = 1;
nodes = (
(241,129,l),
(786,674,ls),
(796,684,o),
(801,688,o),
(809,696,cs),
(814,701,o),
(819,699,o),
(822,696,cs),
(826,692,o),
(839,679,o),
(840,678,cs),
(938,580,ls),
(946,572,o),
(950,568,o),
(955,563,cs),
(959,559,o),
(959,553,o),
(955,549,cs),
(944,538,o),
(949,542,o),
(934,527,cs),
(388,-19,l),
(241,-19,l)
);
}
);
userData = {
RMXScaler = {
height = 125;
verticalShift = -85;
width = 125;
};
};
width = 1200;
},
{
layerId = "5C20EF92-B63D-42A8-8878-93C2863E0093";
metricWidth = "=baseSymbol.medium";
shapes = (
{
closed = 1;
nodes = (
(405,-125,ls),
(421,-125,o),
(438,-119,o),
(451,-106,cs),
(1010,453,ls),
(1019,462,o),
(1029,473,o),
(1036,480,cs),
(1071,519,o),
(1079,585,o),
(1036,632,cs),
(1029,639,o),
(1019,649,o),
(1010,658,cs),
(918,750,ls),
(907,761,o),
(900,769,o),
(892,776,cs),
(848,816,o),
(783,813,o),
(742,778,cs),
(735,772,o),
(727,764,o),
(713,750,cs),
(154,192,ls),
(142,180,o),
(135,164,o),
(135,145,cs),
(135,-60,ls),
(135,-96,o),
(164,-125,o),
(200,-125,cs)
);
},
{
closed = 1;
nodes = (
(265,118,l),
(803,656,ls),
(807,660,o),
(812,665,o),
(813,666,cs),
(815,668,o),
(817,668,o),
(818,667,cs),
(819,666,o),
(824,661,o),
(827,658,cs),
(918,567,ls),
(921,564,o),
(923,562,o),
(926,559,cs),
(928,557,o),
(927,554,o),
(926,553,cs),
(923,550,o),
(917,544,o),
(916,543,cs),
(378,5,l),
(265,5,l)
);
}
);
userData = {
RMXScaler = {
height = 125;
verticalShift = -85;
width = 125;
};
};
width = 1200;
}
);
unicode = 1024053;
userData = {
RMXScaler = {
source = iconPen.small;
};
};
}
{
color = 11;
glyphname = iconPerson.medium;
layers = (
{
layerId = "B1F27B51-9973-4381-9301-4FE46FE1CA59";
metricWidth = "=symbolBase.medium";
shapes = (
{
closed = 1;
nodes = (
(190,-166,o),
(201,-156,o),
(203,-144,cs),
(231,25,o),
(380,166,o),
(600,166,cs),
(819,166,o),
(968,26,o),
(996,-143,cs),
(998,-155,o),
(1009,-166,o),
(1022,-164,cs),
(1038,-162,o),
(1045,-147,o),
(1043,-135,cs),
(1008,62,o),
(836,214,o),
(600,214,cs),
(357,214,o),
(189,56,o),
(156,-136,cs),
(154,-148,o),
(162,-162,o),
(177,-164,cs)
);
},
{
closed = 1;
nodes = (
(748,280,o),
(870,401,o),
(870,550,cs),
(870,699,o),
(748,820,o),
(600,820,cs),
(451,820,o),
(330,698,o),
(330,550,cs),
(330,402,o),
(451,280,o),
(600,280,cs)
);
},
{
closed = 1;
nodes = (
(477,327,o),
(377,427,o),
(377,550,cs),
(377,673,o),
(477,773,o),
(600,773,cs),
(722,773,o),
(823,673,o),
(823,550,cs),
(823,427,o),
(722,327,o),
(600,327,cs)
);
}
);
userData = {
RMXScaler = {
height = 125;
verticalShift = -85;
width = 125;
};
};
width = 1200;
},
{
layerId = "CD0E3B44-F66A-4791-B84C-A1128DC61275";
metricWidth = "=symbolBase.medium";
shapes = (
{
closed = 1;
nodes = (
(202,-186,o),
(220,-166,o),
(223,-147,cs),
(249,10,o),
(387,147,o),
(600,147,cs),
(814,147,o),
(952,9,o),
(978,-148,cs),
(982,-172,o),
(1005,-185,o),
(1025,-183,cs),
(1045,-181,o),
(1068,-162,o),
(1063,-133,cs),
(1030,66,o),
(855,233,o),
(600,233,cs),
(347,233,o),
(172,68,o),
(138,-132,cs),
(134,-155,o),
(149,-180,o),
(175,-183,cs)
);
},
{
closed = 1;
nodes = (
(749,280,o),
(870,402,o),
(870,550,cs),
(870,698,o),
(749,820,o),
(600,820,cs),
(452,820,o),
(330,699,o),
(330,550,cs),
(330,401,o),
(452,280,o),
(600,280,cs)
);
},
{
closed = 1;
nodes = (
(500,367,o),
(417,449,o),
(417,550,cs),
(417,651,o),
(500,733,o),
(600,733,cs),
(701,733,o),
(784,651,o),
(784,550,cs),
(784,449,o),
(701,367,o),
(600,367,cs)
);
}
);
userData = {
RMXScaler = {
height = 125;
verticalShift = -85;
width = 125;
};
};
width = 1200;
},
{
layerId = "5C20EF92-B63D-42A8-8878-93C2863E0093";
metricWidth = "=symbolBase.medium";
shapes = (
{
closed = 1;
nodes = (
(206,-211,o),
(239,-186,o),
(245,-150,cs),
(269,-4,o),
(399,124,o),
(600,124,cs),
(802,124,o),
(931,-6,o),
(955,-152,cs),
(961,-188,o),
(995,-211,o),
(1031,-205,cs),
(1068,-199,o),
(1091,-163,o),
(1084,-125,cs),
(1045,87,o),
(860,256,o),
(600,256,cs),
(334,256,o),
(151,82,o),
(115,-128,cs),
(109,-163,o),
(131,-199,o),
(169,-205,cs)
);
},
{
closed = 1;
nodes = (
(748,280,o),
(870,401,o),
(870,550,cs),
(870,699,o),
(748,820,o),
(600,820,cs),
(451,820,o),
(330,698,o),
(330,550,cs),
(330,402,o),
(451,280,o),
(600,280,cs)
);
},
{
closed = 1;
nodes = (
(524,412,o),
(462,474,o),
(462,550,cs),
(462,626,o),
(524,688,o),
(600,688,cs),
(676,688,o),
(738,626,o),
(738,550,cs),
(738,474,o),
(676,412,o),
(600,412,cs)
);
}
);
userData = {
RMXScaler = {
height = 125;
verticalShift = -85;
width = 125;
};
};
width = 1200;
}
);
unicode = 1024054;
userData = {
RMXScaler = {
source = iconPerson.small;
};
};
}
{
color = 11;
glyphname = iconPersons;
layers = (
{
layerId = "B1F27B51-9973-4381-9301-4FE46FE1CA59";
shapes = (
{
closed = 1;
nodes = (
(131,-40,o),
(140,-31,o),
(140,-20,cs),
(140,140,ls),
(140,158,o),
(145,176,o),
(155,191,cs),
(159,197,ls),
(176,222,o),
(204,237,o),
(235,237,cs),
(504,237,ls),
(534,237,o),
(562,222,o),
(579,197,cs),
(583,191,ls),
(593,176,o),
(598,158,o),
(598,140,cs),
(598,-20,ls),
(598,-31,o),
(607,-40,o),
(618,-40,cs),
(629,-40,o),
(638,-31,o),
(638,-20,cs),
(638,140,ls),
(638,166,o),
(632,194,o),
(616,215,cs),
(613,219,ls),
(587,254,o),
(548,277,o),
(504,277,cs),
(235,277,ls),
(191,277,o),
(150,255,o),
(126,219,cs),
(122,213,ls),
(108,191,o),
(100,166,o),
(100,140,cs),
(100,-20,ls),
(100,-31,o),
(109,-40,o),
(120,-40,cs)
);
},
{
closed = 1;
nodes = (
(851,-40,o),
(860,-31,o),
(860,-20,cs),
(860,140,ls),
(860,166,o),
(852,191,o),
(838,213,cs),
(834,219,ls),
(810,255,o),
(769,277,o),
(725,277,cs),
(702,277,ls),
(690,277,o),
(682,268,o),
(682,257,cs),
(682,246,o),
(690,237,o),
(702,237,cs),
(725,237,ls),
(756,237,o),
(784,222,o),
(801,197,cs),
(805,191,ls),
(815,176,o),
(820,158,o),
(820,140,cs),
(820,-20,ls),
(820,-31,o),
(829,-40,o),
(840,-40,cs)
);
},
{
closed = 1;
nodes = (
(472,348,o),
(555,431,o),
(555,534,cs),
(555,637,o),
(472,720,o),
(369,720,cs),
(266,720,o),
(183,637,o),
(183,534,cs),
(183,431,o),
(266,348,o),
(369,348,cs)
);
},
{
closed = 1;
nodes = (
(289,388,o),
(223,453,o),
(223,534,cs),
(223,615,o),
(289,680,o),
(369,680,cs),
(450,680,o),
(515,615,o),
(515,534,cs),
(515,453,o),
(450,388,o),
(369,388,cs)
);
},
{
closed = 1;
nodes = (
(694,348,o),
(777,431,o),
(777,534,cs),
(777,637,o),
(694,720,o),
(591,720,cs),
(580,720,o),
(571,711,o),
(571,700,cs),
(571,689,o),
(580,680,o),
(591,680,cs),
(671,680,o),
(737,615,o),
(737,534,cs),
(737,453,o),
(671,388,o),
(591,388,cs),
(580,388,o),
(571,379,o),
(571,368,cs),
(571,357,o),
(580,348,o),
(591,348,cs)
);
}
);
width = 960;
},
{
layerId = "CD0E3B44-F66A-4791-B84C-A1128DC61275";
shapes = (
{
closed = 1;
nodes = (
(142,-60,o),
(160,-42,o),
(160,-20,cs),
(160,140,ls),
(160,154,o),
(164,168,o),
(172,180,cs),
(176,185,ls),
(189,205,o),
(211,217,o),
(235,217,cs),
(504,217,ls),
(527,217,o),
(550,205,o),
(563,185,cs),
(567,180,l),
(574,168,o),
(578,154,o),
(578,140,cs),
(578,-20,ls),
(578,-42,o),
(596,-60,o),
(618,-60,cs),
(641,-60,o),
(658,-42,o),
(658,-20,cs),
(658,140,ls),
(658,170,o),
(650,199,o),
(633,224,cs),
(629,230,ls),
(601,272,o),
(554,297,o),
(504,297,cs),
(235,297,ls),
(184,297,o),
(137,272,o),
(109,230,cs),
(105,224,ls),
(89,199,o),
(80,170,o),
(80,140,cs),
(80,-20,ls),
(80,-42,o),
(98,-60,o),
(120,-60,cs)
);
},
{
closed = 1;
nodes = (
(862,-60,o),
(880,-42,o),
(880,-20,cs),
(880,140,ls),
(880,170,o),
(871,199,o),
(855,224,cs),
(851,230,ls),
(823,272,o),
(776,297,o),
(725,297,cs),
(702,297,ls),
(679,297,o),
(662,279,o),
(662,257,cs),
(662,235,o),
(679,217,o),
(702,217,cs),
(725,217,ls),
(749,217,o),
(771,205,o),
(784,185,cs),
(788,180,ls),
(796,168,o),
(800,154,o),
(800,140,cs),
(800,-20,ls),
(800,-42,o),
(818,-60,o),
(840,-60,cs)
);
},
{
closed = 1;
nodes = (
(483,328,o),
(575,420,o),
(575,534,cs),
(575,648,o),
(483,740,o),
(369,740,cs),
(255,740,o),
(163,648,o),
(163,534,cs),
(163,420,o),
(255,328,o),
(369,328,cs)
);
},
{
closed = 1;
nodes = (
(300,408,o),
(243,464,o),
(243,534,cs),
(243,604,o),
(300,660,o),
(369,660,cs),
(439,660,o),
(495,604,o),
(495,534,cs),
(495,464,o),
(439,408,o),
(369,408,cs)
);
},
{
closed = 1;
nodes = (
(705,328,o),
(797,420,o),
(797,534,cs),
(797,648,o),
(705,740,o),
(591,740,cs),
(569,740,o),
(551,722,o),
(551,700,cs),
(551,678,o),
(569,660,o),
(591,660,cs),
(660,660,o),
(717,604,o),
(717,534,cs),
(717,464,o),
(660,408,o),
(591,408,cs),
(569,408,o),
(551,390,o),
(551,368,cs),
(551,346,o),
(569,328,o),
(591,328,cs)
);
}
);
width = 960;
},
{
layerId = "5C20EF92-B63D-42A8-8878-93C2863E0093";
shapes = (
{
closed = 1;
nodes = (
(153,-80,o),
(180,-53,o),
(180,-20,cs),
(180,140,ls),
(180,150,o),
(183,160,o),
(189,169,cs),
(192,174,ls),
(202,188,o),
(218,197,o),
(235,197,cs),
(504,197,ls),
(521,197,o),
(537,188,o),
(546,174,cs),
(550,169,l),
(555,160,o),
(558,150,o),
(558,140,cs),
(558,-20,ls),
(558,-53,o),
(585,-80,o),
(618,-80,cs),
(652,-80,o),
(678,-53,o),
(678,-20,cs),
(678,140,ls),
(678,174,o),
(668,207,o),
(650,235,cs),
(646,241,ls),
(614,288,o),
(561,317,o),
(504,317,cs),
(235,317,ls),
(178,317,o),
(124,288,o),
(93,241,cs),
(89,235,ls),
(70,207,o),
(60,174,o),
(60,140,cs),
(60,-20,ls),
(60,-53,o),
(87,-80,o),
(120,-80,cs)
);
},
{
closed = 1;
nodes = (
(873,-80,o),
(900,-53,o),
(900,-20,cs),
(900,140,ls),
(900,174,o),
(890,207,o),
(871,235,cs),
(867,241,ls),
(836,288,o),
(782,317,o),
(725,317,cs),
(725,317,ls),
(692,317,o),
(665,290,o),
(665,257,cs),
(665,224,o),
(692,197,o),
(725,197,cs),
(725,197,ls),
(742,197,o),
(758,188,o),
(768,174,cs),
(771,169,ls),
(777,160,o),
(780,150,o),
(780,140,cs),
(780,-20,ls),
(780,-53,o),
(807,-80,o),
(840,-80,cs)
);
},
{
closed = 1;
nodes = (
(494,308,o),
(595,409,o),
(595,534,cs),
(595,659,o),
(494,760,o),
(369,760,cs),
(244,760,o),
(143,659,o),
(143,534,cs),
(143,409,o),
(244,308,o),
(369,308,cs)
);
},
{
closed = 1;
nodes = (
(311,428,o),
(263,475,o),
(263,534,cs),
(263,592,o),
(311,640,o),
(369,640,cs),
(428,640,o),
(475,592,o),
(475,534,cs),
(475,475,o),
(428,428,o),
(369,428,cs)
);
},
{
closed = 1;
nodes = (
(750,346,o),
(817,432,o),
(817,534,cs),
(817,635,o),
(750,721,o),
(658,750,cs),
(626,760,o),
(593,742,o),
(583,710,cs),
(573,679,o),
(591,645,o),
(622,635,cs),
(666,622,o),
(697,581,o),
(697,534,cs),
(697,486,o),
(666,446,o),
(622,432,cs),
(591,423,o),
(573,389,o),
(583,357,cs),
(593,326,o),
(626,308,o),
(658,318,cs)
);
}
);
width = 960;
}
);
metricWidth = symbolBase;
unicode = 1024055;
}
{
color = 11;
glyphname = iconPersons.medium;
layers = (
{
layerId = "B1F27B51-9973-4381-9301-4FE46FE1CA59";
shapes = (
{
closed = 1;
nodes = (
(162,-134,o),
(173,-123,o),
(173,-110,cs),
(173,90,ls),
(173,113,o),
(179,137,o),
(192,155,cs),
(197,162,ls),
(220,194,o),
(255,213,o),
(293,213,cs),
(630,213,ls),
(667,213,o),
(701,194,o),
(724,162,cs),
(729,155,ls),
(744,134,o),
(749,110,o),
(749,90,cs),
(749,-110,ls),
(749,-123,o),
(760,-134,o),
(772,-134,cs),
(785,-134,o),
(796,-123,o),
(796,-110,cs),
(796,90,ls),
(796,120,o),
(786,153,o),
(768,183,cs),
(765,188,ls),
(738,233,o),
(686,260,o),
(630,260,cs),
(293,260,ls),
(242,260,o),
(188,236,o),
(158,188,cs),
(153,180,ls),
(136,153,o),
(126,122,o),
(126,90,cs),
(126,-110,ls),
(126,-123,o),
(137,-134,o),
(150,-134,cs)
);
},
{
closed = 1;
nodes = (
(1062,-134,o),
(1073,-123,o),
(1073,-110,cs),
(1073,90,ls),
(1073,122,o),
(1063,153,o),
(1046,180,cs),
(1041,188,ls),
(1011,236,o),
(957,260,o),
(906,260,cs),
(877,260,ls),
(862,260,o),
(853,249,o),
(853,236,cs),
(853,223,o),
(863,213,o),
(877,213,cs),
(906,213,ls),
(944,213,o),
(979,194,o),
(1002,162,cs),
(1007,155,ls),
(1020,137,o),
(1026,113,o),
(1026,90,cs),
(1026,-110,ls),
(1026,-123,o),
(1037,-134,o),
(1050,-134,cs)
);
},
{
closed = 1;
nodes = (
(589,351,o),
(692,455,o),
(692,583,cs),
(692,710,o),
(589,814,o),
(461,814,cs),
(333,814,o),
(230,710,o),
(230,583,cs),
(230,455,o),
(333,351,o),
(461,351,cs)
);
},
{
closed = 1;
nodes = (
(360,399,o),
(277,481,o),
(277,583,cs),
(277,684,o),
(360,766,o),
(461,766,cs),
(563,766,o),
(645,684,o),
(645,583,cs),
(645,481,o),
(563,399,o),
(461,399,cs)
);
},
{
closed = 1;
nodes = (
(867,350,o),
(969,456,o),
(969,583,cs),
(969,710,o),
(866,815,o),
(737,814,cs),
(725,814,o),
(714,804,o),
(714,790,cs),
(714,773,o),
(732,766,o),
(752,766,cs),
(845,765,o),
(922,681,o),
(922,583,cs),
(922,485,o),
(846,400,o),
(751,399,cs),
(730,399,o),
(714,391,o),
(714,375,cs),
(714,362,o),
(724,351,o),
(737,351,cs)
);
}
);
userData = {
RMXScaler = {
height = 125;
verticalShift = -85;
width = 125;
};
};
width = 1199;
},
{
layerId = "CD0E3B44-F66A-4791-B84C-A1128DC61275";
shapes = (
{
closed = 1;
nodes = (
(174,-153,o),
(194,-134,o),
(194,-110,cs),
(194,90,ls),
(194,108,o),
(197,128,o),
(210,144,cs),
(215,150,ls),
(235,174,o),
(261,193,o),
(294,193,cs),
(630,193,ls),
(661,193,o),
(692,177,o),
(710,150,cs),
(714,144,l),
(726,125,o),
(730,106,o),
(730,90,cs),
(730,-110,ls),
(730,-134,o),
(750,-153,o),
(773,-153,cs),
(797,-153,o),
(816,-134,o),
(816,-110,cs),
(816,90,ls),
(816,129,o),
(806,164,o),
(786,192,cs),
(781,199,ls),
(746,248,o),
(691,280,o),
(630,280,cs),
(294,280,ls),
(232,280,o),
(174,250,o),
(142,199,cs),
(137,191,ls),
(117,159,o),
(107,124,o),
(107,90,cs),
(107,-110,ls),
(107,-134,o),
(127,-153,o),
(150,-153,cs)
);
},
{
closed = 1;
nodes = (
(1074,-153,o),
(1094,-134,o),
(1094,-110,cs),
(1094,90,ls),
(1094,125,o),
(1083,159,o),
(1063,191,cs),
(1058,199,ls),
(1026,250,o),
(968,280,o),
(907,280,cs),
(878,280,ls),
(853,280,o),
(835,260,o),
(835,236,cs),
(835,212,o),
(853,193,o),
(878,193,cs),
(907,193,ls),
(939,193,o),
(966,174,o),
(986,150,cs),
(991,144,ls),
(1004,128,o),
(1007,108,o),
(1007,90,cs),
(1007,-110,ls),
(1007,-134,o),
(1027,-153,o),
(1050,-153,cs)
);
},
{
closed = 1;
nodes = (
(600,332,o),
(712,444,o),
(712,583,cs),
(712,721,o),
(600,833,o),
(462,833,cs),
(323,833,o),
(211,721,o),
(211,583,cs),
(211,444,o),
(323,332,o),
(462,332,cs)
);
},
{
closed = 1;
nodes = (
(372,418,o),
(297,491,o),
(297,583,cs),
(297,674,o),
(372,747,o),
(462,747,cs),
(553,747,o),
(626,673,o),
(626,583,cs),
(626,492,o),
(553,418,o),
(462,418,cs)
);
},
{
closed = 1;
nodes = (
(878,332,o),
(990,444,o),
(990,583,cs),
(990,721,o),
(878,833,o),
(739,833,cs),
(716,833,o),
(696,814,o),
(696,790,cs),
(696,766,o),
(716,747,o),
(739,747,cs),
(829,747,o),
(903,673,o),
(903,583,cs),
(903,492,o),
(829,418,o),
(739,418,cs),
(716,418,o),
(696,399,o),
(696,375,cs),
(696,351,o),
(716,332,o),
(739,332,cs)
);
}
);
userData = {
RMXScaler = {
height = 125;
verticalShift = -85;
width = 125;
};
};
width = 1201;
},
{
layerId = "5C20EF92-B63D-42A8-8878-93C2863E0093";
shapes = (
{
closed = 1;
nodes = (
(186,-176,o),
(216,-146,o),
(216,-110,cs),
(216,90,ls),
(216,105,o),
(221,119,o),
(229,131,cs),
(233,137,ls),
(247,158,o),
(270,170,o),
(294,170,cs),
(630,170,ls),
(654,170,o),
(679,159,o),
(691,138,cs),
(695,131,l),
(704,116,o),
(707,102,o),
(707,90,cs),
(707,-110,ls),
(707,-146,o),
(736,-176,o),
(773,-176,cs),
(810,-176,o),
(839,-146,o),
(839,-110,cs),
(839,90,ls),
(839,127,o),
(830,169,o),
(805,204,cs),
(800,211,ls),
(760,267,o),
(698,302,o),
(630,302,cs),
(294,302,ls),
(226,302,o),
(163,267,o),
(123,211,cs),
(118,204,ls),
(93,169,o),
(84,127,o),
(84,90,cs),
(84,-110,ls),
(84,-146,o),
(114,-176,o),
(150,-176,cs)
);
},
{
closed = 1;
nodes = (
(1086,-176,o),
(1116,-146,o),
(1116,-110,cs),
(1116,90,ls),
(1116,127,o),
(1107,169,o),
(1082,204,cs),
(1077,211,ls),
(1037,267,o),
(974,302,o),
(906,302,cs),
(896,302,ls),
(859,302,o),
(830,272,o),
(830,236,cs),
(830,200,o),
(859,170,o),
(896,170,cs),
(906,170,ls),
(930,170,o),
(953,158,o),
(967,137,cs),
(971,131,ls),
(979,119,o),
(984,105,o),
(984,90,cs),
(984,-110,ls),
(984,-146,o),
(1014,-176,o),
(1050,-176,cs)
);
},
{
closed = 1;
nodes = (
(612,309,o),
(735,431,o),
(735,583,cs),
(735,734,o),
(612,856,o),
(461,856,cs),
(310,856,o),
(188,733,o),
(188,583,cs),
(188,432,o),
(310,309,o),
(461,309,cs)
);
},
{
closed = 1;
nodes = (
(384,441,o),
(320,504,o),
(320,583,cs),
(320,660,o),
(384,724,o),
(461,724,cs),
(540,724,o),
(603,660,o),
(603,583,cs),
(603,504,o),
(540,441,o),
(461,441,cs)
);
},
{
closed = 1;
nodes = (
(921,343,o),
(1012,453,o),
(1012,583,cs),
(1012,709,o),
(923,821,o),
(795,848,cs),
(758,856,o),
(722,834,o),
(714,797,cs),
(707,763,o),
(728,727,o),
(762,721,cs),
(827,709,o),
(880,654,o),
(880,583,cs),
(880,513,o),
(830,456,o),
(764,444,cs),
(731,438,o),
(707,404,o),
(714,368,cs),
(722,328,o),
(761,310,o),
(795,317,cs)
);
}
);
userData = {
RMXScaler = {
height = 125;
verticalShift = -85;
width = 125;
};
};
width = 1200;
}
);
unicode = 1024055;
userData = {
RMXScaler = {
source = iconPersons.small;
};
};
}
{
color = 11;
glyphname = iconSearch.medium;
layers = (
{
layerId = "B1F27B51-9973-4381-9301-4FE46FE1CA59";
shapes = (
{
closed = 1;
nodes = (
(697,91,o),
(848,242,o),
(848,428,cs),
(848,613,o),
(697,764,o),
(512,764,cs),
(327,764,o),
(176,613,o),
(176,428,cs),
(176,242,o),
(327,91,o),
(512,91,cs)
);
},
{
closed = 1;
nodes = (
(353,139,o),
(223,268,o),
(223,428,cs),
(223,587,o),
(353,716,o),
(512,716,cs),
(671,716,o),
(801,587,o),
(801,428,cs),
(801,268,o),
(671,139,o),
(512,139,cs)
);
},
{
closed = 1;
nodes = (
(993,-86,o),
(1007,-85,o),
(1016,-76,cs),
(1025,-67,o),
(1025,-53,o),
(1016,-44,cs),
(766,206,l),
(733,174,l),
(983,-76,ls)
);
}
);
userData = {
RMXScaler = {
height = 125;
verticalShift = -85;
width = 125;
};
};
width = 1200;
},
{
layerId = "CD0E3B44-F66A-4791-B84C-A1128DC61275";
shapes = (
{
closed = 1;
nodes = (
(709,72,o),
(869,231,o),
(869,428,cs),
(869,624,o),
(709,783,o),
(513,783,cs),
(317,783,o),
(157,624,o),
(157,428,cs),
(157,231,o),
(317,72,o),
(513,72,cs)
);
},
{
closed = 1;
nodes = (
(364,158,o),
(244,279,o),
(244,428,cs),
(244,576,o),
(364,697,o),
(513,697,cs),
(662,697,o),
(782,576,o),
(782,428,cs),
(782,279,o),
(662,158,o),
(513,158,cs)
);
},
{
closed = 1;
nodes = (
(987,-107,o),
(1014,-107,o),
(1031,-90,cs),
(1048,-73,o),
(1047,-46,o),
(1031,-30,cs),
(781,220,l),
(720,160,l),
(970,-90,ls)
);
}
);
userData = {
RMXScaler = {
height = 125;
verticalShift = -85;
width = 125;
};
};
width = 1201;
},
{
layerId = "5C20EF92-B63D-42A8-8878-93C2863E0093";
shapes = (
{
closed = 1;
nodes = (
(721,49,o),
(891,219,o),
(891,428,cs),
(891,636,o),
(721,806,o),
(513,806,cs),
(304,806,o),
(134,636,o),
(134,428,cs),
(134,219,o),
(304,49,o),
(513,49,cs)
);
},
{
closed = 1;
nodes = (
(377,181,o),
(266,291,o),
(266,428,cs),
(266,564,o),
(377,674,o),
(513,674,cs),
(648,674,o),
(759,564,o),
(759,428,cs),
(759,292,o),
(649,181,o),
(513,181,cs)
);
},
{
closed = 1;
nodes = (
(979,-131,o),
(1020,-132,o),
(1046,-107,cs),
(1074,-80,o),
(1070,-38,o),
(1046,-14,cs),
(796,236,l),
(704,144,l),
(954,-106,ls)
);
}
);
userData = {
RMXScaler = {
height = 125;
verticalShift = -85;
width = 125;
};
};
width = 1200;
}
);
unicode = 1024056;
userData = {
RMXScaler = {
source = iconSearch.small;
};
};
}
{
color = 11;
glyphname = iconShare.medium;
layers = (
{
layerId = "B1F27B51-9973-4381-9301-4FE46FE1CA59";
shapes = (
{
closed = 1;
nodes = (
(762,621,ls),
(774,629,o),
(775,643,o),
(769,652,cs),
(761,664,o),
(747,666,o),
(737,659,cs),
(412,434,ls),
(400,426,o),
(399,412,o),
(405,403,cs),
(413,391,o),
(427,389,o),
(437,396,cs)
);
},
{
closed = 1;
nodes = (
(417,216,o),
(473,272,o),
(473,340,cs),
(473,408,o),
(417,464,o),
(350,464,cs),
(282,464,o),
(226,408,o),
(226,340,cs),
(226,272,o),
(282,216,o),
(350,216,cs)
);
},
{
closed = 1;
nodes = (
(308,264,o),
(273,298,o),
(273,340,cs),
(273,382,o),
(308,416,o),
(350,416,cs),
(391,416,o),
(426,382,o),
(426,340,cs),
(426,298,o),
(391,264,o),
(350,264,cs)
);
},
{
closed = 1;
nodes = (
(747,14,o),
(761,16,o),
(769,28,cs),
(777,40,o),
(771,53,o),
(762,59,cs),
(437,284,ls),
(427,291,o),
(413,289,o),
(405,277,cs),
(397,265,o),
(403,252,o),
(412,246,cs),
(737,21,ls)
);
},
{
closed = 1;
nodes = (
(917,-134,o),
(973,-78,o),
(973,-10,cs),
(973,58,o),
(917,114,o),
(850,114,cs),
(782,114,o),
(726,58,o),
(726,-10,cs),
(726,-78,o),
(782,-134,o),
(850,-134,cs)
);
},
{
closed = 1;
nodes = (
(808,-86,o),
(773,-52,o),
(773,-10,cs),
(773,32,o),
(808,66,o),
(850,66,cs),
(891,66,o),
(926,32,o),
(926,-10,cs),
(926,-52,o),
(891,-86,o),
(850,-86,cs)
);
},
{
closed = 1;
nodes = (
(917,566,o),
(973,622,o),
(973,690,cs),
(973,758,o),
(917,814,o),
(850,814,cs),
(782,814,o),
(726,758,o),
(726,690,cs),
(726,622,o),
(782,566,o),
(850,566,cs)
);
},
{
closed = 1;
nodes = (
(808,614,o),
(773,648,o),
(773,690,cs),
(773,732,o),
(808,766,o),
(850,766,cs),
(891,766,o),
(926,732,o),
(926,690,cs),
(926,648,o),
(891,614,o),
(850,614,cs)
);
}
);
userData = {
RMXScaler = {
height = 125;
verticalShift = -85;
width = 125;
};
};
width = 1199;
},
{
layerId = "CD0E3B44-F66A-4791-B84C-A1128DC61275";
shapes = (
{
closed = 1;
nodes = (
(775,604,ls),
(795,618,o),
(800,646,o),
(785,666,cs),
(769,687,o),
(742,687,o),
(726,676,cs),
(401,451,ls),
(382,438,o),
(375,411,o),
(390,390,cs),
(404,370,o),
(431,366,o),
(450,379,cs)
);
},
{
closed = 1;
nodes = (
(429,197,o),
(494,261,o),
(494,340,cs),
(494,419,o),
(429,483,o),
(350,483,cs),
(272,483,o),
(207,419,o),
(207,340,cs),
(207,261,o),
(272,197,o),
(350,197,cs)
);
},
{
closed = 1;
nodes = (
(319,283,o),
(294,309,o),
(294,340,cs),
(294,371,o),
(319,397,o),
(350,397,cs),
(382,397,o),
(407,371,o),
(407,340,cs),
(407,309,o),
(382,283,o),
(350,283,cs)
);
},
{
closed = 1;
nodes = (
(746,-10,o),
(772,-3,o),
(785,14,cs),
(800,34,o),
(795,62,o),
(775,76,cs),
(450,301,ls),
(431,314,o),
(404,310,o),
(390,290,cs),
(375,269,o),
(382,242,o),
(401,229,cs),
(726,4,ls)
);
},
{
closed = 1;
nodes = (
(929,-153,o),
(994,-89,o),
(994,-10,cs),
(994,69,o),
(929,133,o),
(850,133,cs),
(772,133,o),
(707,69,o),
(707,-10,cs),
(707,-89,o),
(772,-153,o),
(850,-153,cs)
);
},
{
closed = 1;
nodes = (
(819,-67,o),
(794,-41,o),
(794,-10,cs),
(794,21,o),
(819,47,o),
(850,47,cs),
(882,47,o),
(907,21,o),
(907,-10,cs),
(907,-41,o),
(882,-67,o),
(850,-67,cs)
);
},
{
closed = 1;
nodes = (
(929,547,o),
(994,611,o),
(994,690,cs),
(994,769,o),
(929,833,o),
(850,833,cs),
(772,833,o),
(707,769,o),
(707,690,cs),
(707,611,o),
(772,547,o),
(850,547,cs)
);
},
{
closed = 1;
nodes = (
(819,633,o),
(794,659,o),
(794,690,cs),
(794,721,o),
(819,747,o),
(850,747,cs),
(882,747,o),
(907,721,o),
(907,690,cs),
(907,659,o),
(882,633,o),
(850,633,cs)
);
}
);
userData = {
RMXScaler = {
height = 125;
verticalShift = -85;
width = 125;
};
};
width = 1201;
},
{
layerId = "5C20EF92-B63D-42A8-8878-93C2863E0093";
shapes = (
{
closed = 1;
nodes = (
(788,586,ls),
(817,606,o),
(826,648,o),
(803,679,cs),
(782,707,o),
(742,715,o),
(712,694,cs),
(387,469,ls),
(357,448,o),
(350,407,o),
(371,377,cs),
(395,342,o),
(437,343,o),
(463,361,cs)
);
},
{
closed = 1;
nodes = (
(441,174,o),
(516,249,o),
(516,340,cs),
(516,431,o),
(441,506,o),
(350,506,cs),
(259,506,o),
(184,431,o),
(184,340,cs),
(184,249,o),
(259,174,o),
(350,174,cs)
);
},
{
closed = 1;
nodes = (
(331,306,o),
(316,321,o),
(316,340,cs),
(316,359,o),
(331,374,o),
(350,374,cs),
(369,374,o),
(384,359,o),
(384,340,cs),
(384,321,o),
(369,306,o),
(350,306,cs)
);
},
{
closed = 1;
nodes = (
(742,-35,o),
(782,-27,o),
(803,1,cs),
(826,32,o),
(817,74,o),
(788,94,cs),
(463,319,ls),
(433,340,o),
(392,333,o),
(371,303,cs),
(351,274,o),
(356,232,o),
(387,211,cs),
(712,-14,ls)
);
},
{
closed = 1;
nodes = (
(941,-176,o),
(1016,-101,o),
(1016,-10,cs),
(1016,81,o),
(941,156,o),
(850,156,cs),
(759,156,o),
(684,81,o),
(684,-10,cs),
(684,-101,o),
(759,-176,o),
(850,-176,cs)
);
},
{
closed = 1;
nodes = (
(831,-44,o),
(816,-29,o),
(816,-10,cs),
(816,9,o),
(831,24,o),
(850,24,cs),
(869,24,o),
(884,9,o),
(884,-10,cs),
(884,-29,o),
(869,-44,o),
(850,-44,cs)
);
},
{
closed = 1;
nodes = (
(941,524,o),
(1016,599,o),
(1016,690,cs),
(1016,781,o),
(941,856,o),
(850,856,cs),
(759,856,o),
(684,781,o),
(684,690,cs),
(684,599,o),
(759,524,o),
(850,524,cs)
);
},
{
closed = 1;
nodes = (
(831,656,o),
(816,671,o),
(816,690,cs),
(816,709,o),
(831,724,o),
(850,724,cs),
(869,724,o),
(884,709,o),
(884,690,cs),
(884,671,o),
(869,656,o),
(850,656,cs)
);
}
);
userData = {
RMXScaler = {
height = 125;
verticalShift = -85;
width = 125;
};
};
width = 1200;
}
);
unicode = 1024057;
userData = {
RMXScaler = {
source = iconShare.small;
};
};
}
{
color = 11;
glyphname = iconSorting;
layers = (
{
layerId = "B1F27B51-9973-4381-9301-4FE46FE1CA59";
shapes = (
{
closed = 1;
nodes = (
(186,491,o),
(199,491,o),
(207,499,cs),
(308,600,l),
(409,499,ls),
(416,491,o),
(429,491,o),
(437,499,cs),
(445,506,o),
(445,519,o),
(437,527,cs),
(322,642,ls),
(318,646,o),
(313,648,o),
(308,648,cs),
(302,648,o),
(297,646,o),
(293,642,cs),
(178,527,ls),
(170,519,o),
(170,506,o),
(178,499,cs)
);
},
{
closed = 1;
nodes = (
(319,32,o),
(328,41,o),
(328,52,cs),
(328,628,ls),
(328,639,o),
(319,648,o),
(308,648,cs),
(296,648,o),
(288,639,o),
(288,628,cs),
(288,52,ls),
(288,41,o),
(296,32,o),
(308,32,cs)
);
},
{
closed = 1;
nodes = (
(658,32,o),
(663,34,o),
(667,38,cs),
(782,153,ls),
(790,161,o),
(790,174,o),
(782,181,cs),
(774,189,o),
(762,189,o),
(754,181,cs),
(653,80,l),
(552,181,ls),
(544,189,o),
(531,189,o),
(524,181,cs),
(516,174,o),
(516,161,o),
(524,153,cs),
(639,38,l),
(642,34,o),
(648,32,o),
(653,32,cs)
);
},
{
closed = 1;
nodes = (
(664,32,o),
(673,41,o),
(673,52,cs),
(673,628,ls),
(673,639,o),
(664,648,o),
(653,648,cs),
(642,648,o),
(633,639,o),
(633,628,cs),
(633,52,ls),
(633,41,o),
(642,32,o),
(653,32,cs)
);
}
);
width = 960;
},
{
layerId = "CD0E3B44-F66A-4791-B84C-A1128DC61275";
shapes = (
{
closed = 1;
nodes = (
(183,480,o),
(202,480,o),
(214,492,cs),
(308,586,l),
(402,492,ls),
(413,480,o),
(432,480,o),
(444,492,cs),
(456,503,o),
(456,522,o),
(444,534,cs),
(329,649,ls),
(323,655,o),
(316,658,o),
(308,658,cs),
(300,658,o),
(292,655,o),
(286,649,cs),
(171,534,ls),
(159,522,o),
(159,503,o),
(171,492,cs)
);
},
{
closed = 1;
nodes = (
(324,22,o),
(338,35,o),
(338,52,cs),
(338,628,ls),
(338,645,o),
(324,658,o),
(308,658,cs),
(291,658,o),
(278,645,o),
(278,628,cs),
(278,52,ls),
(278,35,o),
(291,22,o),
(308,22,cs)
);
},
{
closed = 1;
nodes = (
(661,22,o),
(668,25,o),
(674,31,cs),
(789,146,ls),
(801,158,o),
(801,177,o),
(789,188,cs),
(778,200,o),
(759,200,o),
(747,188,cs),
(653,94,l),
(559,188,ls),
(547,200,o),
(528,200,o),
(516,188,cs),
(505,177,o),
(505,158,o),
(516,146,cs),
(632,31,l),
(637,25,o),
(645,22,o),
(653,22,cs)
);
},
{
closed = 1;
nodes = (
(670,22,o),
(683,35,o),
(683,52,cs),
(683,628,ls),
(683,645,o),
(670,658,o),
(653,658,cs),
(636,658,o),
(623,645,o),
(623,628,cs),
(623,52,ls),
(623,35,o),
(636,22,o),
(653,22,cs)
);
}
);
width = 960;
},
{
layerId = "5C20EF92-B63D-42A8-8878-93C2863E0093";
shapes = (
{
closed = 1;
nodes = (
(180,469,o),
(205,469,o),
(221,484,cs),
(308,571,l),
(395,484,ls),
(410,469,o),
(435,469,o),
(451,484,cs),
(467,500,o),
(467,525,o),
(451,541,cs),
(336,656,ls),
(328,664,o),
(318,668,o),
(308,668,cs),
(297,668,o),
(287,664,o),
(279,656,cs),
(164,541,ls),
(149,525,o),
(149,500,o),
(164,484,cs)
);
},
{
closed = 1;
nodes = (
(330,12,o),
(348,30,o),
(348,52,cs),
(348,628,ls),
(348,650,o),
(330,668,o),
(308,668,cs),
(285,668,o),
(268,650,o),
(268,628,cs),
(268,52,ls),
(268,30,o),
(285,12,o),
(308,12,cs)
);
},
{
closed = 1;
nodes = (
(663,12,o),
(674,16,o),
(681,24,cs),
(796,139,ls),
(812,155,o),
(812,180,o),
(796,196,cs),
(781,211,o),
(755,211,o),
(740,196,cs),
(653,109,l),
(566,196,ls),
(550,211,o),
(525,211,o),
(509,196,cs),
(494,180,o),
(494,155,o),
(509,139,cs),
(625,24,ls),
(632,16,o),
(642,12,o),
(653,12,cs)
);
},
{
closed = 1;
nodes = (
(675,12,o),
(693,30,o),
(693,52,cs),
(693,628,ls),
(693,650,o),
(675,668,o),
(653,668,cs),
(631,668,o),
(613,650,o),
(613,628,cs),
(613,52,ls),
(613,30,o),
(631,12,o),
(653,12,cs)
);
}
);
width = 960;
}
);
metricWidth = symbolBase;
unicode = 1024058;
}
{
color = 11;
glyphname = iconSorting.medium;
layers = (
{
layerId = "B1F27B51-9973-4381-9301-4FE46FE1CA59";
metricWidth = "=symbolBase.medium";
shapes = (
{
closed = 1;
nodes = (
(235,528,o),
(250,531,o),
(258,539,cs),
(385,666,l),
(512,539,ls),
(520,531,o),
(535,529,o),
(546,539,cs),
(557,549,o),
(554,565,o),
(546,573,cs),
(402,717,ls),
(397,722,o),
(391,724,o),
(385,724,cs),
(378,724,o),
(372,722,o),
(367,717,cs),
(223,573,ls),
(214,564,o),
(213,548,o),
(223,539,cs)
);
},
{
closed = 1;
nodes = (
(398,-44,o),
(409,-33,o),
(409,-20,cs),
(409,700,ls),
(409,713,o),
(398,724,o),
(385,724,cs),
(370,724,o),
(361,713,o),
(361,700,cs),
(361,-20,ls),
(361,-33,o),
(370,-44,o),
(385,-44,cs)
);
},
{
closed = 1;
nodes = (
(822,-44,o),
(828,-42,o),
(833,-37,cs),
(977,107,ls),
(986,116,o),
(987,132,o),
(977,141,cs),
(965,152,o),
(951,149,o),
(943,141,cs),
(816,14,l),
(689,141,ls),
(678,152,o),
(662,148,o),
(655,141,cs),
(646,132,o),
(647,116,o),
(656,107,cs),
(799,-37,l),
(803,-42,o),
(811,-44,o),
(816,-44,cs)
);
},
{
closed = 1;
nodes = (
(830,-44,o),
(841,-33,o),
(841,-20,cs),
(841,700,ls),
(841,713,o),
(830,724,o),
(816,724,cs),
(803,724,o),
(792,713,o),
(792,700,cs),
(792,-20,ls),
(792,-33,o),
(803,-44,o),
(816,-44,cs)
);
}
);
userData = {
RMXScaler = {
height = 125;
verticalShift = -85;
width = 125;
};
};
width = 1200;
},
{
layerId = "CD0E3B44-F66A-4791-B84C-A1128DC61275";
metricWidth = "=symbolBase.medium";
shapes = (
{
closed = 1;
nodes = (
(232,517,o),
(253,520,o),
(265,532,cs),
(385,652,l),
(505,532,ls),
(519,518,o),
(540,521,o),
(552,532,cs),
(565,544,o),
(568,565,o),
(553,580,cs),
(409,724,ls),
(401,732,o),
(392,734,o),
(385,734,cs),
(376,734,o),
(367,731,o),
(360,724,cs),
(216,580,ls),
(203,567,o),
(202,545,o),
(216,532,cs)
);
},
{
closed = 1;
nodes = (
(403,-54,o),
(419,-39,o),
(419,-20,cs),
(419,700,ls),
(419,719,o),
(403,734,o),
(385,734,cs),
(365,734,o),
(351,719,o),
(351,700,cs),
(351,-20,ls),
(351,-39,o),
(365,-54,o),
(385,-54,cs)
);
},
{
closed = 1;
nodes = (
(826,-54,o),
(834,-50,o),
(840,-44,cs),
(984,100,ls),
(998,114,o),
(997,135,o),
(984,148,cs),
(970,162,o),
(949,161,o),
(936,148,cs),
(816,28,l),
(696,148,ls),
(683,161,o),
(662,161,o),
(648,148,cs),
(633,134,o),
(637,111,o),
(648,100,cs),
(792,-44,l),
(798,-51,o),
(808,-54,o),
(816,-54,cs)
);
},
{
closed = 1;
nodes = (
(835,-54,o),
(850,-39,o),
(850,-20,cs),
(850,700,ls),
(850,719,o),
(835,734,o),
(816,734,cs),
(797,734,o),
(782,719,o),
(782,700,cs),
(782,-20,ls),
(782,-39,o),
(797,-54,o),
(816,-54,cs)
);
}
);
userData = {
RMXScaler = {
height = 125;
verticalShift = -85;
width = 125;
};
};
width = 1200;
},
{
layerId = "5C20EF92-B63D-42A8-8878-93C2863E0093";
metricWidth = "=symbolBase.medium";
shapes = (
{
closed = 1;
nodes = (
(226,506,o),
(255,506,o),
(273,524,cs),
(385,636,l),
(497,524,ls),
(514,507,o),
(543,506,o),
(561,524,cs),
(578,541,o),
(579,569,o),
(560,588,cs),
(417,732,ls),
(408,741,o),
(397,746,o),
(385,746,cs),
(374,746,o),
(362,742,o),
(352,732,cs),
(208,588,ls),
(190,570,o),
(191,541,o),
(208,524,cs)
);
},
{
closed = 1;
nodes = (
(409,-66,o),
(430,-45,o),
(430,-20,cs),
(430,700,ls),
(430,725,o),
(409,746,o),
(385,746,cs),
(359,746,o),
(339,725,o),
(339,700,cs),
(339,-20,ls),
(339,-45,o),
(359,-66,o),
(385,-66,cs)
);
},
{
closed = 1;
nodes = (
(827,-66,o),
(839,-61,o),
(848,-52,cs),
(992,92,ls),
(1010,110,o),
(1010,138,o),
(992,156,cs),
(975,173,o),
(946,174,o),
(928,156,cs),
(816,45,l),
(704,156,ls),
(686,174,o),
(657,174,o),
(639,156,cs),
(621,138,o),
(622,109,o),
(639,92,cs),
(784,-52,ls),
(794,-62,o),
(806,-66,o),
(816,-66,cs)
);
},
{
closed = 1;
nodes = (
(842,-66,o),
(862,-45,o),
(862,-20,cs),
(862,700,ls),
(862,725,o),
(842,746,o),
(816,746,cs),
(791,746,o),
(771,725,o),
(771,700,cs),
(771,-20,ls),
(771,-45,o),
(791,-66,o),
(816,-66,cs)
);
}
);
userData = {
RMXScaler = {
height = 125;
verticalShift = -85;
width = 125;
};
};
width = 1200;
}
);
unicode = 1024058;
userData = {
RMXScaler = {
source = iconSorting.small;
};
};
}
{
color = 11;
glyphname = iconTooltip.medium;
layers = (
{
layerId = "B1F27B51-9973-4381-9301-4FE46FE1CA59";
metricWidth = "=baseSymbol.medium";
shapes = (
{
closed = 1;
nodes = (
(876,-160,o),
(1100,64,o),
(1100,340,cs),
(1100,616,o),
(876,840,o),
(600,840,cs),
(324,840,o),
(100,616,o),
(100,340,cs),
(100,64,o),
(324,-160,o),
(600,-160,cs)
);
},
{
closed = 1;
nodes = (
(350,-113,o),
(147,90,o),
(147,340,cs),
(147,590,o),
(350,793,o),
(600,793,cs),
(850,793,o),
(1053,590,o),
(1053,340,cs),
(1053,90,o),
(850,-113,o),
(600,-113,cs)
);
},
{
closed = 1;
nodes = (
(725,104,l),
(725,153,l),
(624,153,l),
(624,441,l),
(475,441,l),
(475,392,l),
(576,392,l),
(576,153,l),
(475,153,l),
(475,104,l)
);
},
{
closed = 1;
nodes = (
(623,523,o),
(643,543,o),
(643,566,cs),
(643,589,o),
(623,609,o),
(600,609,cs),
(577,609,o),
(557,589,o),
(557,566,cs),
(557,543,o),
(577,523,o),
(600,523,cs)
);
}
);
userData = {
RMXScaler = {
height = 125;
verticalShift = -85;
width = 125;
};
};
width = 1200;
},
{
layerId = "CD0E3B44-F66A-4791-B84C-A1128DC61275";
metricWidth = "=baseSymbol.medium";
shapes = (
{
closed = 1;
nodes = (
(876,-160,o),
(1100,64,o),
(1100,340,cs),
(1100,616,o),
(876,840,o),
(600,840,cs),
(324,840,o),
(100,616,o),
(100,340,cs),
(100,64,o),
(324,-160,o),
(600,-160,cs)
);
},
{
closed = 1;
nodes = (
(372,-73,o),
(187,112,o),
(187,340,cs),
(187,568,o),
(372,753,o),
(600,753,cs),
(828,753,o),
(1013,568,o),
(1013,340,cs),
(1013,112,o),
(828,-73,o),
(600,-73,cs)
);
},
{
closed = 1;
nodes = (
(725,84,l),
(725,143,l),
(643,143,l),
(643,422,l),
(475,422,l),
(475,363,l),
(557,363,l),
(557,143,l),
(475,143,l),
(475,84,l)
);
},
{
closed = 1;
nodes = (
(632,489,o),
(658,515,o),
(658,547,cs),
(658,579,o),
(632,604,o),
(600,604,cs),
(568,604,o),
(543,578,o),
(543,547,cs),
(543,515,o),
(568,489,o),
(600,489,cs)
);
}
);
userData = {
RMXScaler = {
height = 125;
verticalShift = -85;
width = 125;
};
};
width = 1200;
},
{
layerId = "5C20EF92-B63D-42A8-8878-93C2863E0093";
metricWidth = "=baseSymbol.medium";
shapes = (
{
closed = 1;
nodes = (
(876,-160,o),
(1100,64,o),
(1100,340,cs),
(1100,616,o),
(876,840,o),
(600,840,cs),
(324,840,o),
(100,616,o),
(100,340,cs),
(100,64,o),
(324,-160,o),
(600,-160,cs)
);
},
{
closed = 1;
nodes = (
(396,-28,o),
(232,136,o),
(232,340,cs),
(232,544,o),
(396,708,o),
(600,708,cs),
(804,708,o),
(968,544,o),
(968,340,cs),
(968,136,o),
(804,-28,o),
(600,-28,cs)
);
},
{
closed = 1;
nodes = (
(725,78,l),
(725,156,l),
(658,156,l),
(658,415,l),
(475,415,l),
(475,337,l),
(542,337,l),
(542,156,l),
(475,156,l),
(475,78,l)
);
},
{
closed = 1;
nodes = (
(639,470,o),
(671,501,o),
(671,540,cs),
(671,579,o),
(639,611,o),
(600,611,cs),
(561,611,o),
(530,579,o),
(530,540,cs),
(530,501,o),
(561,470,o),
(600,470,cs)
);
}
);
userData = {
RMXScaler = {
height = 125;
verticalShift = -85;
width = 125;
};
};
width = 1200;
}
);
unicode = 1024061;
userData = {
RMXScaler = {
source = iconTooltip.small;
};
};
}
{
color = 11;
glyphname = iconTooltipFill.medium;
layers = (
{
layerId = "B1F27B51-9973-4381-9301-4FE46FE1CA59";
metricWidth = "=baseSymbol.medium";
shapes = (
{
closed = 1;
nodes = (
(876,-160,o),
(1100,64,o),
(1100,340,cs),
(1100,616,o),
(876,840,o),
(600,840,cs),
(324,840,o),
(100,616,o),
(100,340,cs),
(100,64,o),
(324,-160,o),
(600,-160,cs)
);
},
{
closed = 1;
nodes = (
(475,90,l),
(538,90,l),
(538,403,l),
(475,403,l),
(475,465,l),
(663,465,l),
(663,90,l),
(725,90,l),
(725,28,l),
(475,28,l)
);
},
{
closed = 1;
nodes = (
(565,528,o),
(538,555,o),
(538,590,cs),
(538,625,o),
(565,653,o),
(600,653,cs),
(635,653,o),
(663,625,o),
(663,590,cs),
(663,555,o),
(635,528,o),
(600,528,cs)
);
}
);
userData = {
RMXScaler = {
height = 125;
verticalShift = -85;
width = 125;
};
};
width = 1200;
},
{
layerId = "CD0E3B44-F66A-4791-B84C-A1128DC61275";
metricWidth = "=baseSymbol.medium";
shapes = (
{
closed = 1;
nodes = (
(876,-160,o),
(1100,64,o),
(1100,340,cs),
(1100,616,o),
(876,840,o),
(600,840,cs),
(324,840,o),
(100,616,o),
(100,340,cs),
(100,64,o),
(324,-160,o),
(600,-160,cs)
);
},
{
closed = 1;
nodes = (
(475,90,l),
(538,90,l),
(538,403,l),
(475,403,l),
(475,465,l),
(663,465,l),
(663,90,l),
(725,90,l),
(725,28,l),
(475,28,l)
);
},
{
closed = 1;
nodes = (
(565,528,o),
(538,555,o),
(538,590,cs),
(538,625,o),
(565,653,o),
(600,653,cs),
(635,653,o),
(663,625,o),
(663,590,cs),
(663,555,o),
(635,528,o),
(600,528,cs)
);
}
);
userData = {
RMXScaler = {
height = 125;
verticalShift = -85;
width = 125;
};
};
width = 1200;
},
{
layerId = "5C20EF92-B63D-42A8-8878-93C2863E0093";
metricWidth = "=baseSymbol.medium";
shapes = (
{
closed = 1;
nodes = (
(876,-160,o),
(1100,64,o),
(1100,340,cs),
(1100,616,o),
(876,840,o),
(600,840,cs),
(324,840,o),
(100,616,o),
(100,340,cs),
(100,64,o),
(324,-160,o),
(600,-160,cs)
);
},
{
closed = 1;
nodes = (
(475,90,l),
(538,90,l),
(538,403,l),
(475,403,l),
(475,465,l),
(663,465,l),
(663,90,l),
(725,90,l),
(725,28,l),
(475,28,l)
);
},
{
closed = 1;
nodes = (
(565,528,o),
(538,555,o),
(538,590,cs),
(538,625,o),
(565,653,o),
(600,653,cs),
(635,653,o),
(663,625,o),
(663,590,cs),
(663,555,o),
(635,528,o),
(600,528,cs)
);
}
);
userData = {
RMXScaler = {
height = 125;
verticalShift = -85;
width = 125;
};
};
width = 1200;
}
);
unicode = 1024062;
userData = {
RMXScaler = {
source = iconTooltipFill.small;
};
};
}
{
color = 11;
glyphname = iconCircle.medium;
layers = (
{
background = {
shapes = (
{
pos = (0,-85);
ref = iconCircle.small;
scale = (1.25,1.25);
}
);
};
layerId = "B1F27B51-9973-4381-9301-4FE46FE1CA59";
metricWidth = "=baseSymbol.medium";
shapes = (
{
closed = 1;
nodes = (
(876,-160,o),
(1100,64,o),
(1100,340,cs),
(1100,616,o),
(876,840,o),
(600,840,cs),
(324,840,o),
(100,616,o),
(100,340,cs),
(100,64,o),
(324,-160,o),
(600,-160,cs)
);
},
{
closed = 1;
nodes = (
(350,-113,o),
(147,90,o),
(147,340,cs),
(147,590,o),
(350,793,o),
(600,793,cs),
(850,793,o),
(1053,590,o),
(1053,340,cs),
(1053,90,o),
(850,-113,o),
(600,-113,cs)
);
}
);
userData = {
RMXScaler = {
height = 125;
verticalShift = -85;
width = 125;
};
};
width = 1200;
},
{
background = {
shapes = (
{
pos = (0,-85);
ref = iconCircle.small;
scale = (1.25,1.25);
}
);
};
layerId = "CD0E3B44-F66A-4791-B84C-A1128DC61275";
metricWidth = "=baseSymbol.medium";
shapes = (
{
closed = 1;
nodes = (
(876,-160,o),
(1100,64,o),
(1100,340,cs),
(1100,616,o),
(876,840,o),
(600,840,cs),
(324,840,o),
(100,616,o),
(100,340,cs),
(100,64,o),
(324,-160,o),
(600,-160,cs)
);
},
{
closed = 1;
nodes = (
(372,-73,o),
(187,112,o),
(187,340,cs),
(187,568,o),
(372,753,o),
(600,753,cs),
(828,753,o),
(1013,568,o),
(1013,340,cs),
(1013,112,o),
(828,-73,o),
(600,-73,cs)
);
}
);
userData = {
RMXScaler = {
height = 125;
verticalShift = -85;
width = 125;
};
};
width = 1200;
},
{
background = {
shapes = (
{
pos = (0,-85);
ref = iconCircle.small;
scale = (1.25,1.25);
}
);
};
layerId = "5C20EF92-B63D-42A8-8878-93C2863E0093";
metricWidth = "=baseSymbol.medium";
shapes = (
{
closed = 1;
nodes = (
(876,-160,o),
(1100,64,o),
(1100,340,cs),
(1100,616,o),
(876,840,o),
(600,840,cs),
(324,840,o),
(100,616,o),
(100,340,cs),
(100,64,o),
(324,-160,o),
(600,-160,cs)
);
},
{
closed = 1;
nodes = (
(396,-28,o),
(232,136,o),
(232,340,cs),
(232,544,o),
(396,708,o),
(600,708,cs),
(804,708,o),
(968,544,o),
(968,340,cs),
(968,136,o),
(804,-28,o),
(600,-28,cs)
);
}
);
userData = {
RMXScaler = {
height = 125;
verticalShift = -85;
width = 125;
};
};
width = 1200;
}
);
unicode = 1024063;
userData = {
RMXScaler = {
source = iconCircle.small;
};
};
}
{
color = 11;
glyphname = iconCircleFill.medium;
layers = (
{
layerId = "B1F27B51-9973-4381-9301-4FE46FE1CA59";
metricWidth = "=baseSymbol.medium";
shapes = (
{
closed = 1;
nodes = (
(876,-160,o),
(1100,64,o),
(1100,340,cs),
(1100,616,o),
(876,840,o),
(600,840,cs),
(324,840,o),
(100,616,o),
(100,340,cs),
(100,64,o),
(324,-160,o),
(600,-160,cs)
);
}
);
userData = {
RMXScaler = {
height = 125;
verticalShift = -85;
width = 125;
};
};
width = 1200;
},
{
layerId = "CD0E3B44-F66A-4791-B84C-A1128DC61275";
metricWidth = "=baseSymbol.medium";
shapes = (
{
closed = 1;
nodes = (
(876,-160,o),
(1100,64,o),
(1100,340,cs),
(1100,616,o),
(876,840,o),
(600,840,cs),
(324,840,o),
(100,616,o),
(100,340,cs),
(100,64,o),
(324,-160,o),
(600,-160,cs)
);
}
);
userData = {
RMXScaler = {
height = 125;
verticalShift = -85;
width = 125;
};
};
width = 1200;
},
{
layerId = "5C20EF92-B63D-42A8-8878-93C2863E0093";
metricWidth = "=baseSymbol.medium";
shapes = (
{
closed = 1;
nodes = (
(876,-160,o),
(1100,64,o),
(1100,340,cs),
(1100,616,o),
(876,840,o),
(600,840,cs),
(324,840,o),
(100,616,o),
(100,340,cs),
(100,64,o),
(324,-160,o),
(600,-160,cs)
);
}
);
userData = {
RMXScaler = {
height = 125;
verticalShift = -85;
width = 125;
};
};
width = 1200;
}
);
unicode = 1024064;
userData = {
RMXScaler = {
source = iconCircleFill.small;
};
};
}
{
glyphname = iconExchangeRateFill;
layers = (
{
layerId = "B1F27B51-9973-4381-9301-4FE46FE1CA59";
shapes = (
{
closed = 1;
nodes = (
(701,-60,o),
(880,119,o),
(880,340,cs),
(880,561,o),
(701,740,o),
(480,740,cs),
(259,740,o),
(80,561,o),
(80,340,cs),
(80,119,o),
(259,-60,o),
(480,-60,cs)
);
},
{
closed = 1;
nodes = (
(276,216,ls),
(268,224,o),
(268,236,o),
(276,244,cs),
(376,344,ls),
(384,352,o),
(396,352,o),
(404,344,cs),
(412,336,o),
(412,324,o),
(404,316,cs),
(338,250,l),
(670,250,ls),
(681,250,o),
(690,241,o),
(690,230,cs),
(690,219,o),
(681,210,o),
(670,210,cs),
(338,210,l),
(404,144,ls),
(412,136,o),
(412,124,o),
(404,116,cs),
(396,108,o),
(384,108,o),
(376,116,cs)
);
},
{
closed = 1;
nodes = (
(548,344,o),
(548,356,o),
(556,364,cs),
(622,430,l),
(290,430,ls),
(279,430,o),
(270,439,o),
(270,450,cs),
(270,461,o),
(279,470,o),
(290,470,cs),
(622,470,l),
(556,536,ls),
(548,544,o),
(548,556,o),
(556,564,cs),
(564,572,o),
(576,572,o),
(584,564,cs),
(684,464,ls),
(692,456,o),
(692,444,o),
(684,436,cs),
(584,336,ls),
(576,328,o),
(564,328,o),
(556,336,cs)
);
}
);
width = 960;
},
{
layerId = "CD0E3B44-F66A-4791-B84C-A1128DC61275";
shapes = (
{
closed = 1;
nodes = (
(701,-60,o),
(880,119,o),
(880,340,cs),
(880,561,o),
(701,740,o),
(480,740,cs),
(259,740,o),
(80,561,o),
(80,340,cs),
(80,119,o),
(259,-60,o),
(480,-60,cs)
);
},
{
closed = 1;
nodes = (
(272,192,ls),
(256,207,o),
(256,233,o),
(272,248,cs),
(372,348,ls),
(387,364,o),
(413,364,o),
(428,348,cs),
(444,333,o),
(444,307,o),
(428,292,cs),
(397,260,l),
(660,260,ls),
(682,260,o),
(700,242,o),
(700,220,cs),
(700,198,o),
(682,180,o),
(660,180,cs),
(397,180,l),
(428,148,ls),
(444,133,o),
(444,107,o),
(428,92,cs),
(413,76,o),
(387,76,o),
(372,92,cs)
);
},
{
closed = 1;
nodes = (
(516,347,o),
(516,373,o),
(532,388,cs),
(563,420,l),
(300,420,ls),
(278,420,o),
(260,438,o),
(260,460,cs),
(260,482,o),
(278,500,o),
(300,500,cs),
(563,500,l),
(532,532,ls),
(516,547,o),
(516,573,o),
(532,588,cs),
(547,604,o),
(573,604,o),
(588,588,cs),
(688,488,ls),
(704,473,o),
(704,447,o),
(688,432,cs),
(588,332,ls),
(573,316,o),
(547,316,o),
(532,332,cs)
);
}
);
width = 960;
},
{
layerId = "5C20EF92-B63D-42A8-8878-93C2863E0093";
shapes = (
{
closed = 1;
nodes = (
(701,-60,o),
(880,119,o),
(880,340,c),
(880,561,o),
(701,740,o),
(480,740,c),
(259,740,o),
(80,561,o),
(80,340,c),
(80,119,o),
(259,-60,o),
(480,-60,c)
);
},
{
closed = 1;
nodes = (
(265,175,l),
(245,194,o),
(245,226,o),
(265,245,c),
(365,345,l),
(384,365,o),
(416,365,o),
(435,345,c),
(455,326,o),
(455,294,o),
(435,275,c),
(421,260,l),
(660,260,l),
(688,260,o),
(710,238,o),
(710,210,c),
(710,182,o),
(688,160,o),
(660,160,c),
(421,160,l),
(435,145,l),
(455,126,o),
(455,94,o),
(435,75,c),
(416,55,o),
(384,55,o),
(365,75,c)
);
},
{
closed = 1;
nodes = (
(505,354,o),
(505,386,o),
(525,405,c),
(539,420,l),
(300,420,l),
(272,420,o),
(250,442,o),
(250,470,c),
(250,498,o),
(272,520,o),
(300,520,c),
(539,520,l),
(525,535,l),
(505,554,o),
(505,586,o),
(525,605,c),
(544,625,o),
(576,625,o),
(595,605,c),
(695,505,l),
(715,486,o),
(715,454,o),
(695,435,c),
(595,335,l),
(576,315,o),
(544,315,o),
(525,335,c)
);
}
);
width = 960;
}
);
metricWidth = symbolBase;
unicode = 1024077;
}
{
glyphname = iconExclam;
layers = (
{
layerId = "B1F27B51-9973-4381-9301-4FE46FE1CA59";
shapes = (
{
closed = 1;
nodes = (
(701,-60,o),
(880,119,o),
(880,340,cs),
(880,561,o),
(701,740,o),
(480,740,cs),
(259,740,o),
(80,561,o),
(80,340,cs),
(80,119,o),
(259,-60,o),
(480,-60,cs)
);
},
{
closed = 1;
nodes = (
(499,125,o),
(515,141,o),
(515,160,cs),
(515,179,o),
(499,195,o),
(480,195,cs),
(461,195,o),
(445,179,o),
(445,160,cs),
(445,141,o),
(461,125,o),
(480,125,cs)
);
},
{
closed = 1;
nodes = (
(281,-20,o),
(120,141,o),
(120,340,cs),
(120,539,o),
(281,700,o),
(480,700,cs),
(679,700,o),
(840,539,o),
(840,340,cs),
(840,141,o),
(679,-20,o),
(480,-20,cs)
);
},
{
closed = 1;
nodes = (
(500,260,l),
(500,580,l),
(460,580,l),
(460,260,l)
);
}
);
width = 960;
},
{
layerId = "CD0E3B44-F66A-4791-B84C-A1128DC61275";
shapes = (
{
closed = 1;
nodes = (
(701,-60,o),
(880,119,o),
(880,340,cs),
(880,561,o),
(701,740,o),
(480,740,cs),
(259,740,o),
(80,561,o),
(80,340,cs),
(80,119,o),
(259,-60,o),
(480,-60,cs)
);
},
{
closed = 1;
nodes = (
(510,120,o),
(535,145,o),
(535,175,cs),
(535,205,o),
(510,230,o),
(480,230,cs),
(450,230,o),
(425,205,o),
(425,175,cs),
(425,145,o),
(450,120,o),
(480,120,cs)
);
},
{
closed = 1;
nodes = (
(303,20,o),
(160,163,o),
(160,340,cs),
(160,517,o),
(303,660,o),
(480,660,cs),
(657,660,o),
(800,517,o),
(800,340,cs),
(800,163,o),
(657,20,o),
(480,20,cs)
);
},
{
closed = 1;
nodes = (
(520,270,l),
(520,560,l),
(440,560,l),
(440,270,l)
);
}
);
width = 960;
},
{
layerId = "5C20EF92-B63D-42A8-8878-93C2863E0093";
shapes = (
{
closed = 1;
nodes = (
(701,-60,o),
(880,119,o),
(880,340,cs),
(880,561,o),
(701,740,o),
(480,740,cs),
(259,740,o),
(80,561,o),
(80,340,cs),
(80,119,o),
(259,-60,o),
(480,-60,cs)
);
},
{
closed = 1;
nodes = (
(519,125,o),
(550,156,o),
(550,195,cs),
(550,234,o),
(519,265,o),
(480,265,cs),
(441,265,o),
(410,234,o),
(410,195,cs),
(410,156,o),
(441,125,o),
(480,125,cs)
);
},
{
closed = 1;
nodes = (
(325,60,o),
(200,185,o),
(200,340,cs),
(200,495,o),
(325,620,o),
(480,620,cs),
(635,620,o),
(760,495,o),
(760,340,cs),
(760,185,o),
(635,60,o),
(480,60,cs)
);
},
{
closed = 1;
nodes = (
(540,300,l),
(540,540,l),
(420,540,l),
(420,300,l)
);
}
);
width = 960;
}
);
metricWidth = symbolBase;
unicode = 1024078;
}
{
color = 11;
glyphname = iconExclam.medium;
layers = (
{
layerId = "B1F27B51-9973-4381-9301-4FE46FE1CA59";
metricWidth = "=baseSymbol.medium";
shapes = (
{
closed = 1;
nodes = (
(876,-160,o),
(1100,64,o),
(1100,340,cs),
(1100,616,o),
(876,840,o),
(600,840,cs),
(324,840,o),
(100,616,o),
(100,340,cs),
(100,64,o),
(324,-160,o),
(600,-160,cs)
);
},
{
closed = 1;
nodes = (
(350,-113,o),
(147,90,o),
(147,340,cs),
(147,590,o),
(350,793,o),
(600,793,cs),
(850,793,o),
(1053,590,o),
(1053,340,cs),
(1053,90,o),
(850,-113,o),
(600,-113,cs)
);
},
{
closed = 1;
nodes = (
(623,71,o),
(642,91,o),
(642,114,cs),
(642,136,o),
(623,156,o),
(600,156,cs),
(577,156,o),
(558,136,o),
(558,114,cs),
(558,91,o),
(577,71,o),
(600,71,cs)
);
},
{
closed = 1;
nodes = (
(624,239,l),
(624,641,l),
(576,641,l),
(576,239,l)
);
}
);
userData = {
RMXScaler = {
height = 125;
verticalShift = -85;
width = 125;
};
};
width = 1200;
},
{
layerId = "CD0E3B44-F66A-4791-B84C-A1128DC61275";
metricWidth = "=baseSymbol.medium";
shapes = (
{
closed = 1;
nodes = (
(876,-160,o),
(1100,64,o),
(1100,340,cs),
(1100,616,o),
(876,840,o),
(600,840,cs),
(324,840,o),
(100,616,o),
(100,340,cs),
(100,64,o),
(324,-160,o),
(600,-160,cs)
);
},
{
closed = 1;
nodes = (
(372,-73,o),
(187,112,o),
(187,340,cs),
(187,568,o),
(372,753,o),
(600,753,cs),
(828,753,o),
(1013,568,o),
(1013,340,cs),
(1013,112,o),
(828,-73,o),
(600,-73,cs)
);
},
{
closed = 1;
nodes = (
(633,67,o),
(662,95,o),
(662,129,cs),
(662,162,o),
(634,191,o),
(600,191,cs),
(566,191,o),
(538,162,o),
(538,129,cs),
(538,95,o),
(567,67,o),
(600,67,cs)
);
},
{
closed = 1;
nodes = (
(643,249,l),
(643,622,l),
(557,622,l),
(557,249,l)
);
}
);
userData = {
RMXScaler = {
height = 125;
verticalShift = -85;
width = 125;
};
};
width = 1200;
},
{
layerId = "5C20EF92-B63D-42A8-8878-93C2863E0093";
metricWidth = "=baseSymbol.medium";
shapes = (
{
closed = 1;
nodes = (
(876,-160,o),
(1100,64,o),
(1100,340,cs),
(1100,616,o),
(876,840,o),
(600,840,cs),
(324,840,o),
(100,616,o),
(100,340,cs),
(100,64,o),
(324,-160,o),
(600,-160,cs)
);
},
{
closed = 1;
nodes = (
(396,-28,o),
(232,136,o),
(232,340,cs),
(232,544,o),
(396,708,o),
(600,708,cs),
(804,708,o),
(968,544,o),
(968,340,cs),
(968,136,o),
(804,-28,o),
(600,-28,cs)
);
},
{
closed = 1;
nodes = (
(645,69,o),
(681,105,o),
(681,150,cs),
(681,194,o),
(645,231,o),
(600,231,cs),
(555,231,o),
(519,194,o),
(519,150,cs),
(519,105,o),
(555,69,o),
(600,69,cs)
);
},
{
closed = 1;
nodes = (
(666,277,l),
(666,599,l),
(534,599,l),
(534,277,l)
);
}
);
userData = {
RMXScaler = {
height = 125;
verticalShift = -85;
width = 125;
};
};
width = 1200;
}
);
unicode = 1024078;
userData = {
RMXScaler = {
source = iconExclam.small;
};
};
}
{
glyphname = iconHeartFill;
layers = (
{
layerId = "B1F27B51-9973-4381-9301-4FE46FE1CA59";
shapes = (
{
closed = 1;
nodes = (
(485,20,o),
(490,22,o),
(494,26,cs),
(757,292,ls),
(811,346,o),
(820,412,o),
(820,478,cs),
(820,579,o),
(740,660,o),
(640,660,cs),
(570,660,o),
(510,620,o),
(480,562,c),
(450,620,o),
(390,660,o),
(320,660,cs),
(220,660,o),
(140,579,o),
(140,478,cs),
(140,412,o),
(149,346,o),
(203,292,cs),
(466,26,ls),
(470,22,o),
(475,20,o),
(480,20,cs)
);
}
);
width = 960;
},
{
layerId = "CD0E3B44-F66A-4791-B84C-A1128DC61275";
shapes = (
{
closed = 1;
nodes = (
(491,0,o),
(501,4,o),
(508,12,cs),
(772,278,ls),
(831,337,o),
(840,411,o),
(840,478,cs),
(840,589,o),
(751,680,o),
(640,680,cs),
(574,680,o),
(516,648,o),
(480,599,c),
(444,648,o),
(386,680,o),
(320,680,cs),
(209,680,o),
(120,589,o),
(120,478,cs),
(120,411,o),
(129,337,o),
(188,278,cs),
(452,12,ls),
(459,4,o),
(469,0,o),
(480,0,cs)
);
}
);
width = 960;
},
{
layerId = "5C20EF92-B63D-42A8-8878-93C2863E0093";
shapes = (
{
closed = 1;
nodes = (
(496,-20,o),
(511,-14,o),
(523,-2,cs),
(786,264,ls),
(851,329,o),
(860,409,o),
(860,478,cs),
(860,600,o),
(762,700,o),
(640,700,cs),
(577,700,o),
(520,673,o),
(480,631,c),
(440,673,o),
(383,700,o),
(320,700,cs),
(198,700,o),
(100,600,o),
(100,478,cs),
(100,409,o),
(109,329,o),
(174,264,cs),
(437,-2,ls),
(449,-14,o),
(464,-20,o),
(480,-20,cs)
);
}
);
width = 960;
}
);
metricWidth = symbolBase;
unicode = 1024079;
}
{
color = 11;
glyphname = iconHeartFill.medium;
layers = (
{
layerId = "B1F27B51-9973-4381-9301-4FE46FE1CA59";
shapes = (
{
closed = 1;
nodes = (
(605,-68,o),
(612,-66,o),
(616,-61,c),
(846,174,ls),
(964,295,o),
(1028,378,o),
(1028,491,cs),
(1028,634,o),
(927,729,o),
(800,729,cs),
(710,729,o),
(636,683,o),
(600,609,c),
(563,685,o),
(487,729,o),
(400,729,cs),
(272,729,o),
(171,634,o),
(171,491,cs),
(171,378,o),
(235,295,o),
(353,174,cs),
(583,-61,l),
(587,-66,o),
(594,-68,o),
(600,-68,cs)
);
}
);
userData = {
RMXScaler = {
height = 125;
verticalShift = -85;
width = 125;
};
};
width = 1199;
},
{
layerId = "CD0E3B44-F66A-4791-B84C-A1128DC61275";
shapes = (
{
closed = 1;
nodes = (
(613,-81,o),
(624,-76,o),
(632,-68,cs),
(861,167,ls),
(974,283,o),
(1049,374,o),
(1049,498,cs),
(1049,651,o),
(940,756,o),
(800,756,cs),
(713,756,o),
(642,715,o),
(600,654,c),
(557,717,o),
(485,756,o),
(400,756,cs),
(261,756,o),
(152,651,o),
(152,498,cs),
(152,375,o),
(226,284,o),
(340,167,cs),
(569,-68,ls),
(577,-76,o),
(588,-81,o),
(600,-81,cs)
);
}
);
userData = {
RMXScaler = {
height = 125;
verticalShift = -85;
width = 125;
};
};
width = 1201;
},
{
layerId = "5C20EF92-B63D-42A8-8878-93C2863E0093";
shapes = (
{
closed = 1;
nodes = (
(618,-101,o),
(635,-93,o),
(647,-81,cs),
(877,153,ls),
(991,269,o),
(1071,366,o),
(1071,500,cs),
(1071,665,o),
(953,781,o),
(800,781,cs),
(722,781,o),
(650,750,o),
(600,694,c),
(550,750,o),
(478,781,o),
(400,781,cs),
(247,781,o),
(129,665,o),
(129,500,cs),
(129,366,o),
(209,269,o),
(323,153,cs),
(553,-81,ls),
(565,-93,o),
(582,-101,o),
(600,-101,cs)
);
}
);
userData = {
RMXScaler = {
height = 125;
verticalShift = -85;
width = 125;
};
};
width = 1200;
}
);
unicode = 1024079;
userData = {
RMXScaler = {
source = iconHeartFill.small;
};
};
}
{
color = 11;
glyphname = iconHeartFill.small;
layers = (
{
layerId = "B1F27B51-9973-4381-9301-4FE46FE1CA59";
shapes = (
{
closed = 1;
nodes = (
(485,13,o),
(491,15,o),
(494,19,c),
(678,207,ls),
(770,299,o),
(824,368,o),
(824,461,cs),
(824,576,o),
(743,653,o),
(640,653,cs),
(568,653,o),
(509,616,o),
(480,558,c),
(451,616,o),
(392,653,o),
(320,653,cs),
(217,653,o),
(136,576,o),
(136,461,cs),
(136,368,o),
(190,299,o),
(282,207,cs),
(466,19,l),
(469,15,o),
(475,13,o),
(480,13,cs)
);
}
);
width = 960;
},
{
layerId = "CD0E3B44-F66A-4791-B84C-A1128DC61275";
shapes = (
{
closed = 1;
nodes = (
(491,0,o),
(501,4,o),
(509,12,cs),
(692,200,ls),
(784,291,o),
(844,366,o),
(844,468,cs),
(844,593,o),
(755,680,o),
(640,680,cs),
(573,680,o),
(516,650,o),
(480,603,c),
(444,650,o),
(387,680,o),
(320,680,cs),
(205,680,o),
(116,593,o),
(116,468,cs),
(116,366,o),
(176,291,o),
(268,200,cs),
(451,12,ls),
(459,4,o),
(469,0,o),
(480,0,cs)
);
}
);
width = 960;
},
{
layerId = "5C20EF92-B63D-42A8-8878-93C2863E0093";
shapes = (
{
closed = 1;
nodes = (
(496,-20,o),
(512,-13,o),
(523,-2,cs),
(707,186,ls),
(798,277,o),
(864,357,o),
(864,468,cs),
(864,604,o),
(766,700,o),
(640,700,cs),
(576,700,o),
(520,675,o),
(480,634,c),
(440,675,o),
(384,700,o),
(320,700,cs),
(194,700,o),
(96,604,o),
(96,468,cs),
(96,357,o),
(162,277,o),
(253,186,cs),
(437,-2,ls),
(448,-13,o),
(464,-20,o),
(480,-20,cs)
);
}
);
width = 960;
}
);
metricWidth = symbolBase;
unicode = 1024079;
}
{
color = 11;
glyphname = iconArrowDownLeft.medium;
layers = (
{
layerId = "B1F27B51-9973-4381-9301-4FE46FE1CA59";
shapes = (
{
closed = 1;
nodes = (
(712,28,ls),
(724,28,o),
(735,38,o),
(735,51,cs),
(735,64,o),
(725,75,o),
(712,75,cs),
(368,75,l),
(906,612,ls),
(915,621,o),
(915,636,o),
(906,645,cs),
(897,654,o),
(882,654,o),
(873,645,cs),
(335,109,l),
(335,451,ls),
(335,464,o),
(324,475,o),
(312,475,cs),
(299,475,o),
(288,464,o),
(288,451,cs),
(288,51,ls),
(288,46,o),
(290,40,o),
(295,35,cs),
(300,30,o),
(306,28,o),
(312,28,cs)
);
}
);
userData = {
RMXScaler = {
height = 125;
verticalShift = -85;
width = 125;
};
};
width = 1201;
},
{
layerId = "CD0E3B44-F66A-4791-B84C-A1128DC61275";
shapes = (
{
closed = 1;
nodes = (
(711,8,ls),
(735,8,o),
(755,28,o),
(755,51,cs),
(755,75,o),
(735,95,o),
(711,95,cs),
(416,95,l),
(919,598,ls),
(936,615,o),
(936,642,o),
(919,659,cs),
(902,676,o),
(875,676,o),
(858,659,cs),
(355,157,l),
(355,451,ls),
(355,475,o),
(335,495,o),
(311,495,cs),
(288,495,o),
(268,475,o),
(268,451,cs),
(268,51,ls),
(268,41,o),
(273,29,o),
(281,21,cs),
(289,13,o),
(301,8,o),
(311,8,cs)
);
}
);
userData = {
RMXScaler = {
height = 125;
verticalShift = -85;
width = 125;
};
};
width = 1200;
},
{
layerId = "5C20EF92-B63D-42A8-8878-93C2863E0093";
shapes = (
{
closed = 1;
nodes = (
(711,-15,ls),
(748,-15,o),
(777,15,o),
(777,51,cs),
(777,87,o),
(748,117,o),
(711,117,cs),
(471,117,l),
(935,582,ls),
(960,607,o),
(961,648,o),
(935,675,cs),
(910,700,o),
(869,703,o),
(841,675,cs),
(377,211,l),
(377,451,ls),
(377,488,o),
(348,517,o),
(311,517,cs),
(275,517,o),
(245,488,o),
(245,451,cs),
(245,51,ls),
(245,35,o),
(252,18,o),
(265,5,cs),
(278,-8,o),
(295,-15,o),
(311,-15,cs)
);
}
);
userData = {
RMXScaler = {
height = 125;
verticalShift = -85;
width = 125;
};
};
width = 1200;
}
);
unicode = 1024083;
userData = {
RMXScaler = {
source = iconArrowDownLeft.small;
};
};
}
{
color = 11;
glyphname = iconArrowDownRight.medium;
layers = (
{
layerId = "B1F27B51-9973-4381-9301-4FE46FE1CA59";
metricWidth = "=symbolBase.medium";
shapes = (
{
closed = 1;
nodes = (
(889,28,ls),
(893,28,o),
(900,29,o),
(906,35,cs),
(911,40,o),
(913,46,o),
(913,51,cs),
(913,451,ls),
(913,464,o),
(902,475,o),
(889,475,cs),
(876,475,o),
(865,464,o),
(865,451,cs),
(865,109,l),
(328,645,ls),
(319,654,o),
(304,654,o),
(295,645,cs),
(286,636,o),
(286,621,o),
(295,612,cs),
(833,75,l),
(489,75,ls),
(476,75,o),
(465,64,o),
(465,51,cs),
(465,39,o),
(476,28,o),
(489,28,cs)
);
}
);
userData = {
RMXScaler = {
height = 125;
verticalShift = -85;
width = 125;
};
};
width = 1200;
},
{
layerId = "CD0E3B44-F66A-4791-B84C-A1128DC61275";
metricWidth = "=symbolBase.medium";
shapes = (
{
closed = 1;
nodes = (
(889,8,ls),
(901,8,o),
(912,14,o),
(919,21,cs),
(927,29,o),
(932,41,o),
(932,51,cs),
(932,451,ls),
(932,475,o),
(912,495,o),
(889,495,cs),
(865,495,o),
(846,475,o),
(846,451,cs),
(846,157,l),
(343,659,ls),
(325,677,o),
(298,676,o),
(281,659,cs),
(264,642,o),
(264,615,o),
(281,598,cs),
(784,95,l),
(489,95,ls),
(465,95,o),
(446,75,o),
(446,51,cs),
(446,28,o),
(465,8,o),
(489,8,cs)
);
}
);
userData = {
RMXScaler = {
height = 125;
verticalShift = -85;
width = 125;
};
};
width = 1200;
},
{
layerId = "5C20EF92-B63D-42A8-8878-93C2863E0093";
metricWidth = "=symbolBase.medium";
shapes = (
{
closed = 1;
nodes = (
(889,-15,ls),
(906,-15,o),
(923,-7,o),
(935,5,cs),
(947,17,o),
(955,34,o),
(955,51,cs),
(955,451,ls),
(955,487,o),
(925,517,o),
(889,517,cs),
(853,517,o),
(823,488,o),
(823,451,cs),
(823,211,l),
(359,675,ls),
(333,701,o),
(292,702,o),
(265,675,cs),
(239,649,o),
(239,608,o),
(265,582,cs),
(729,117,l),
(489,117,ls),
(452,117,o),
(423,87,o),
(423,51,cs),
(423,15,o),
(452,-15,o),
(489,-15,cs)
);
}
);
userData = {
RMXScaler = {
height = 125;
verticalShift = -85;
width = 125;
};
};
width = 1200;
}
);
unicode = 1024084;
userData = {
RMXScaler = {
source = iconArrowDownRight.small;
};
};
}
{
color = 11;
glyphname = iconArrowUpLeft.medium;
layers = (
{
layerId = "B1F27B51-9973-4381-9301-4FE46FE1CA59";
metricWidth = "=baseSymbol.medium";
shapes = (
{
closed = 1;
nodes = (
(882,26,o),
(897,26,o),
(906,35,cs),
(915,44,o),
(915,59,o),
(906,68,cs),
(368,605,l),
(712,605,ls),
(725,605,o),
(735,616,o),
(735,629,cs),
(735,642,o),
(724,652,o),
(712,652,cs),
(312,652,ls),
(306,652,o),
(300,650,o),
(295,645,cs),
(290,640,o),
(288,634,o),
(288,629,cs),
(288,229,ls),
(288,216,o),
(299,205,o),
(312,205,cs),
(324,205,o),
(335,216,o),
(335,229,cs),
(335,571,l),
(873,35,ls)
);
}
);
userData = {
RMXScaler = {
height = 125;
verticalShift = -85;
width = 125;
};
};
width = 1200;
},
{
layerId = "CD0E3B44-F66A-4791-B84C-A1128DC61275";
metricWidth = "=baseSymbol.medium";
shapes = (
{
closed = 1;
nodes = (
(875,4,o),
(902,4,o),
(919,21,cs),
(936,38,o),
(936,65,o),
(919,82,cs),
(416,585,l),
(711,585,ls),
(735,585,o),
(755,605,o),
(755,629,cs),
(755,652,o),
(735,672,o),
(711,672,cs),
(311,672,ls),
(301,672,o),
(289,667,o),
(281,659,cs),
(273,651,o),
(268,639,o),
(268,629,cs),
(268,229,ls),
(268,205,o),
(288,185,o),
(311,185,cs),
(335,185,o),
(355,205,o),
(355,229,cs),
(355,524,l),
(858,21,ls)
);
}
);
userData = {
RMXScaler = {
height = 125;
verticalShift = -85;
width = 125;
};
};
width = 1200;
},
{
layerId = "5C20EF92-B63D-42A8-8878-93C2863E0093";
metricWidth = "=baseSymbol.medium";
shapes = (
{
closed = 1;
nodes = (
(866,-20,o),
(908,-23,o),
(935,5,cs),
(962,32,o),
(959,74,o),
(935,98,cs),
(471,563,l),
(711,563,ls),
(748,563,o),
(777,593,o),
(777,629,cs),
(777,665,o),
(748,695,o),
(711,695,cs),
(311,695,ls),
(295,695,o),
(278,688,o),
(265,675,cs),
(252,662,o),
(245,645,o),
(245,629,cs),
(245,229,ls),
(245,192,o),
(275,163,o),
(311,163,cs),
(348,163,o),
(377,192,o),
(377,229,cs),
(377,469,l),
(841,5,ls)
);
}
);
userData = {
RMXScaler = {
height = 125;
verticalShift = -85;
width = 125;
};
};
width = 1200;
}
);
unicode = 1024085;
userData = {
RMXScaler = {
source = iconArrowUpLeft.small;
};
};
}
{
color = 11;
glyphname = iconArrowUpRight.medium;
layers = (
{
layerId = "B1F27B51-9973-4381-9301-4FE46FE1CA59";
metricWidth = "=baseSymbol.medium";
shapes = (
{
closed = 1;
nodes = (
(304,26,o),
(318,25,o),
(328,35,cs),
(865,572,l),
(865,229,ls),
(865,216,o),
(876,205,o),
(889,205,cs),
(902,205,o),
(913,216,o),
(913,229,cs),
(913,629,ls),
(913,634,o),
(911,640,o),
(906,645,cs),
(900,651,o),
(893,652,o),
(889,652,cs),
(489,652,ls),
(476,652,o),
(465,641,o),
(465,629,cs),
(465,616,o),
(476,605,o),
(489,605,cs),
(831,605,l),
(295,69,ls),
(286,60,o),
(285,45,o),
(295,35,cs)
);
}
);
userData = {
RMXScaler = {
height = 125;
verticalShift = -85;
width = 125;
};
};
width = 1200;
},
{
layerId = "CD0E3B44-F66A-4791-B84C-A1128DC61275";
metricWidth = "=baseSymbol.medium";
shapes = (
{
closed = 1;
nodes = (
(297,5,o),
(324,3,o),
(342,21,cs),
(846,524,l),
(846,229,ls),
(846,205,o),
(865,185,o),
(889,185,cs),
(912,185,o),
(932,205,o),
(932,229,cs),
(932,629,ls),
(932,639,o),
(927,651,o),
(919,659,cs),
(912,666,o),
(901,672,o),
(889,672,cs),
(489,672,ls),
(465,672,o),
(446,652,o),
(446,629,cs),
(446,605,o),
(465,585,o),
(489,585,cs),
(784,585,l),
(281,83,ls),
(264,66,o),
(263,39,o),
(281,21,cs)
);
}
);
userData = {
RMXScaler = {
height = 125;
verticalShift = -85;
width = 125;
};
};
width = 1200;
},
{
layerId = "5C20EF92-B63D-42A8-8878-93C2863E0093";
metricWidth = "=baseSymbol.medium";
shapes = (
{
closed = 1;
nodes = (
(291,-21,o),
(333,-20,o),
(358,5,cs),
(823,469,l),
(823,229,ls),
(823,192,o),
(853,163,o),
(889,163,cs),
(925,163,o),
(955,193,o),
(955,229,cs),
(955,629,ls),
(955,646,o),
(947,663,o),
(935,675,cs),
(923,687,o),
(906,695,o),
(889,695,cs),
(489,695,ls),
(452,695,o),
(423,665,o),
(423,629,cs),
(423,593,o),
(452,563,o),
(489,563,cs),
(729,563,l),
(265,99,ls),
(239,73,o),
(238,32,o),
(265,5,cs)
);
}
);
userData = {
RMXScaler = {
height = 125;
verticalShift = -85;
width = 125;
};
};
width = 1200;
}
);
unicode = 1024086;
userData = {
RMXScaler = {
source = iconArrowUpRight.small;
};
};
}
{
color = 11;
glyphname = iconCaretDown.medium;
layers = (
{
layerId = "B1F27B51-9973-4381-9301-4FE46FE1CA59";
metricWidth = "=symbolBase.medium";
shapes = (
{
closed = 1;
nodes = (
(594,139,o),
(608,140,o),
(617,149,cs),
(892,424,ls),
(899,431,o),
(901,440,o),
(896,450,cs),
(892,458,o),
(885,464,o),
(875,464,cs),
(325,464,ls),
(317,464,o),
(308,459,o),
(304,450,cs),
(299,439,o),
(303,430,o),
(309,424,cs),
(584,149,ls)
);
}
);
userData = {
RMXScaler = {
height = 125;
verticalShift = -85;
width = 125;
};
};
width = 1200;
},
{
layerId = "CD0E3B44-F66A-4791-B84C-A1128DC61275";
metricWidth = "=symbolBase.medium";
shapes = (
{
closed = 1;
nodes = (
(587,118,o),
(613,118,o),
(630,135,cs),
(905,410,ls),
(917,422,o),
(921,440,o),
(915,456,cs),
(909,472,o),
(892,483,o),
(875,483,cs),
(325,483,ls),
(307,483,o),
(291,472,o),
(285,456,cs),
(279,440,o),
(283,422,o),
(295,410,cs),
(570,135,ls)
);
}
);
userData = {
RMXScaler = {
height = 125;
verticalShift = -85;
width = 125;
};
};
width = 1200;
},
{
layerId = "5C20EF92-B63D-42A8-8878-93C2863E0093";
metricWidth = "=symbolBase.medium";
shapes = (
{
closed = 1;
nodes = (
(579,93,o),
(620,93,o),
(646,119,cs),
(921,394,ls),
(939,412,o),
(946,440,o),
(935,466,cs),
(924,492,o),
(898,506,o),
(875,506,cs),
(325,506,ls),
(298,506,o),
(274,489,o),
(264,465,cs),
(254,441,o),
(259,413,o),
(278,394,cs),
(553,119,ls)
);
}
);
userData = {
RMXScaler = {
height = 125;
verticalShift = -85;
width = 125;
};
};
width = 1200;
}
);
unicode = 1024087;
userData = {
RMXScaler = {
source = iconCaretDown.small;
};
};
}
{
color = 11;
glyphname = iconCaretUp.medium;
layers = (
{
layerId = "B1F27B51-9973-4381-9301-4FE46FE1CA59";
shapes = (
{
closed = 1;
nodes = (
(875,216,ls),
(885,216,o),
(892,222,o),
(896,230,cs),
(902,242,o),
(897,251,o),
(892,256,cs),
(617,531,ls),
(607,541,o),
(593,540,o),
(584,531,cs),
(309,256,ls),
(302,249,o),
(299,240,o),
(304,230,cs),
(308,221,o),
(317,216,o),
(325,216,cs)
);
}
);
userData = {
RMXScaler = {
height = 125;
verticalShift = -85;
width = 125;
};
};
width = 1200;
},
{
layerId = "CD0E3B44-F66A-4791-B84C-A1128DC61275";
shapes = (
{
closed = 1;
nodes = (
(875,197,ls),
(892,197,o),
(909,208,o),
(915,224,cs),
(921,240,o),
(917,258,o),
(905,270,cs),
(630,545,ls),
(613,562,o),
(587,562,o),
(570,545,cs),
(295,270,ls),
(283,258,o),
(279,240,o),
(285,224,cs),
(291,208,o),
(307,197,o),
(325,197,cs)
);
}
);
userData = {
RMXScaler = {
height = 125;
verticalShift = -85;
width = 125;
};
};
width = 1200;
},
{
layerId = "5C20EF92-B63D-42A8-8878-93C2863E0093";
shapes = (
{
closed = 1;
nodes = (
(875,174,ls),
(898,174,o),
(924,188,o),
(935,214,cs),
(946,240,o),
(939,268,o),
(921,286,cs),
(646,561,ls),
(620,587,o),
(579,587,o),
(553,561,cs),
(278,286,ls),
(259,267,o),
(254,239,o),
(264,215,cs),
(274,191,o),
(298,174,o),
(325,174,cs)
);
}
);
userData = {
RMXScaler = {
height = 125;
verticalShift = -85;
width = 125;
};
};
width = 1199;
}
);
unicode = 1024088;
userData = {
RMXScaler = {
source = iconCaretUp.small;
};
};
}
{
color = 11;
glyphname = iconDividerTight.medium;
layers = (
{
layerId = "B1F27B51-9973-4381-9301-4FE46FE1CA59";
metricWidth = "=baseSymbol.medium/2";
shapes = (
{
closed = 1;
nodes = (
(306,-72,o),
(311,-67,o),
(311,-60,cs),
(311,740,ls),
(311,747,o),
(306,752,o),
(300,752,cs),
(293,752,o),
(288,747,o),
(288,740,cs),
(288,-60,ls),
(288,-67,o),
(293,-72,o),
(300,-72,cs)
);
}
);
userData = {
RMXScaler = {
height = 125;
verticalShift = -85;
width = 125;
};
};
width = 600;
},
{
layerId = "CD0E3B44-F66A-4791-B84C-A1128DC61275";
metricWidth = "=baseSymbol.medium/2";
shapes = (
{
closed = 1;
nodes = (
(311,-82,o),
(321,-72,o),
(321,-60,cs),
(321,740,ls),
(321,752,o),
(311,762,o),
(300,762,cs),
(288,762,o),
(278,752,o),
(278,740,cs),
(278,-60,ls),
(278,-72,o),
(288,-82,o),
(300,-82,cs)
);
}
);
userData = {
RMXScaler = {
height = 125;
verticalShift = -85;
width = 125;
};
};
width = 600;
},
{
layerId = "5C20EF92-B63D-42A8-8878-93C2863E0093";
metricWidth = "=baseSymbol.medium/2";
shapes = (
{
closed = 1;
nodes = (
(323,-101,o),
(341,-83,o),
(341,-60,cs),
(341,740,ls),
(341,763,o),
(323,781,o),
(300,781,cs),
(277,781,o),
(259,763,o),
(259,740,cs),
(259,-60,ls),
(259,-83,o),
(277,-101,o),
(300,-101,cs)
);
}
);
userData = {
RMXScaler = {
height = 125;
verticalShift = -85;
width = 125;
};
};
width = 600;
}
);
unicode = 1024089;
userData = {
RMXScaler = {
source = iconDividerTight.small;
};
};
}
{
color = 11;
glyphname = iconArrowClockwise.large;
layers = (
{
layerId = "B1F27B51-9973-4381-9301-4FE46FE1CA59";
metricWidth = "=baseSymbol.large";
shapes = (
{
closed = 1;
nodes = (
(881,-227,o),
(1028,-161,o),
(1132,-52,cs),
(1157,-26,o),
(1181,6,o),
(1201,36,cs),
(1210,49,o),
(1207,67,o),
(1194,75,cs),
(1180,84,o),
(1164,79,o),
(1157,68,cs),
(1136,35,o),
(1117,10,o),
(1092,-16,cs),
(999,-112,o),
(869,-173,o),
(723,-173,cs),
(440,-173,o),
(210,56,o),
(210,340,cs),
(210,624,o),
(440,853,o),
(723,853,cs),
(859,853,o),
(979,799,o),
(1067,720,cs),
(1126,667,o),
(1167,606,o),
(1196,537,cs),
(1202,523,o),
(1218,518,o),
(1232,523,cs),
(1245,528,o),
(1252,545,o),
(1244,562,cs),
(1207,641,o),
(1164,704,o),
(1108,756,cs),
(1010,847,o),
(875,907,o),
(723,907,cs),
(410,907,o),
(156,653,o),
(156,340,cs),
(156,27,o),
(410,-227,o),
(723,-227,cs)
);
},
{
closed = 1;
nodes = (
(1290,493,ls),
(1305,493,o),
(1317,505,o),
(1317,520,cs),
(1317,700,ls),
(1317,715,o),
(1305,727,o),
(1290,727,cs),
(1276,727,o),
(1263,715,o),
(1263,700,cs),
(1263,547,l),
(1110,547,ls),
(1095,547,o),
(1083,535,o),
(1083,520,cs),
(1083,505,o),
(1095,493,o),
(1110,493,cs)
);
}
);
userData = {
RMXScaler = {
height = 150;
verticalShift = -170;
width = 150;
};
};
width = 1440;
},
{
layerId = "CD0E3B44-F66A-4791-B84C-A1128DC61275";
metricWidth = "=baseSymbol.large";
shapes = (
{
closed = 1;
nodes = (
(892,-247,o),
(1040,-175,o),
(1144,-68,cs),
(1173,-38,o),
(1199,-4,o),
(1219,28,cs),
(1234,52,o),
(1222,80,o),
(1203,92,cs),
(1182,105,o),
(1154,100,o),
(1140,78,cs),
(1119,45,o),
(1100,22,o),
(1078,-1,cs),
(984,-99,o),
(856,-153,o),
(723,-153,cs),
(450,-153,o),
(229,67,o),
(229,340,cs),
(229,613,o),
(450,833,o),
(723,833,cs),
(851,833,o),
(968,783,o),
(1055,704,cs),
(1109,655,o),
(1150,595,o),
(1177,531,cs),
(1188,506,o),
(1215,495,o),
(1239,505,cs),
(1266,516,o),
(1272,546,o),
(1263,567,cs),
(1228,649,o),
(1178,718,o),
(1118,773,cs),
(1015,867,o),
(877,927,o),
(723,927,cs),
(398,927,o),
(136,664,o),
(136,340,cs),
(136,16,o),
(398,-247,o),
(723,-247,cs)
);
},
{
closed = 1;
nodes = (
(1290,473,ls),
(1315,473,o),
(1336,494,o),
(1336,520,cs),
(1336,700,ls),
(1336,726,o),
(1315,747,o),
(1290,747,cs),
(1264,747,o),
(1243,725,o),
(1243,700,cs),
(1243,567,l),
(1110,567,ls),
(1084,567,o),
(1063,546,o),
(1063,520,cs),
(1063,494,o),
(1084,473,o),
(1110,473,cs)
);
}
);
userData = {
RMXScaler = {
height = 150;
verticalShift = -170;
width = 150;
};
};
width = 1440;
},
{
layerId = "5C20EF92-B63D-42A8-8878-93C2863E0093";
metricWidth = "=baseSymbol.large";
shapes = (
{
closed = 1;
nodes = (
(888,-272,o),
(1047,-205,o),
(1163,-85,cs),
(1192,-55,o),
(1217,-23,o),
(1240,13,cs),
(1261,46,o),
(1252,92,o),
(1216,114,cs),
(1185,133,o),
(1140,125,o),
(1118,90,cs),
(1101,63,o),
(1082,39,o),
(1059,15,cs),
(974,-73,o),
(855,-128,o),
(723,-128,cs),
(464,-128,o),
(255,81,o),
(255,340,cs),
(255,599,o),
(464,808,o),
(723,808,cs),
(846,808,o),
(955,760,o),
(1035,688,cs),
(1087,641,o),
(1127,584,o),
(1155,519,cs),
(1171,482,o),
(1214,466,o),
(1250,482,cs),
(1286,498,o),
(1302,539,o),
(1287,576,cs),
(1252,661,o),
(1198,734,o),
(1136,791,cs),
(1022,895,o),
(876,952,o),
(723,952,cs),
(385,952,o),
(111,678,o),
(111,340,cs),
(111,2,o),
(385,-272,o),
(723,-272,cs)
);
},
{
closed = 1;
nodes = (
(1290,448,ls),
(1330,448,o),
(1362,480,o),
(1362,520,cs),
(1362,700,ls),
(1362,740,o),
(1330,772,o),
(1290,772,cs),
(1250,772,o),
(1218,740,o),
(1218,700,cs),
(1218,592,l),
(1110,592,ls),
(1070,592,o),
(1038,560,o),
(1038,520,cs),
(1038,480,o),
(1070,448,o),
(1110,448,cs)
);
}
);
userData = {
RMXScaler = {
height = 150;
verticalShift = -170;
width = 150;
};
};
width = 1440;
}
);
userData = {
RMXScaler = {
source = iconArrowClockwise.small;
};
};
}
